ply
format ascii 1.0
comment VCGLIB generated
comment TextureFile dummy.png
element vertex 412
property float x
property float y
property float z
property float nx
property float ny
property float nz
property float texture_u
property float texture_v
element face 446
property list uchar int vertex_indices
end_header
-0.1008351 0.1763189 -0.06248074 -8.274492e-09 9.096424e-05 -1 0.753184 0.686501
-0.07231998 0.1541086 -0.06248276 -8.274492e-09 9.096424e-05 -1 0.759613 0.670655
-0.1125081 0.1227959 -0.06248561 -8.274492e-09 9.096424e-05 -1 0.735739 0.667334
-0.03680205 0.1474018 -0.06248337 -8.274492e-09 9.096424e-05 -1 0.772578 0.659504
-0.1912091 0.05823676 -0.06249148 -8.274492e-09 9.096424e-05 -1 0.688221 0.659504
-0.1792641 0.09235084 -0.06248838 -8.274492e-09 9.096424e-05 -1 0.701186 0.670655
-0.132056 0.1115081 -0.06248663 -8.274492e-09 9.096424e-05 -1 0.72506 0.667334
-0.184247 0.1281504 -0.06248512 -8.274492e-09 9.096424e-05 -1 0.707614 0.686501
-0.03680205 0.1473904 0.06251663 8.274492e-09 -9.096424e-05 1 0.688221 0.903356
-0.07231998 0.1540972 0.06251724 8.274492e-09 -9.096424e-05 1 0.701186 0.914507
-0.1125081 0.1227845 0.0625144 8.274492e-09 -9.096424e-05 1 0.72506 0.911186
-0.1008351 0.1763076 0.06251926 8.274492e-09 -9.096424e-05 1 0.707614 0.930353
-0.184247 0.128139 0.06251488 8.274492e-09 -9.096424e-05 1 0.753184 0.930353
-0.1792641 0.09233947 0.06251162 8.274492e-09 -9.096424e-05 1 0.759613 0.914507
-0.132056 0.1114968 0.06251337 8.274492e-09 -9.096424e-05 1 0.735739 0.911186
-0.1912091 0.05822539 0.06250852 8.274492e-09 -9.096424e-05 1 0.772578 0.903356
-0.5584121 0.0843624 0.0139619 -0.8882304 0.391395 0.2405342 0.833781 0.456735
-0.5611191 0.08436342 1.089984e-05 -0.9696212 0.2446115 2.225893e-05 0.829313 0.464308
-0.5652871 0.06253004 8.913818e-06 -0.9696212 0.2446115 2.225893e-05 0.84048 0.47222
-0.564831 0.06349964 0.01584 -0.935593 0.2725852 0.2244172 0.845594 0.463896
-0.5589471 0.06338385 0.03036099 -0.8382931 0.2798704 0.4679074 0.85046 0.456243
-0.5497661 0.08999059 0.03161241 -0.7213423 0.5362898 0.4382448 0.839292 0.446172
-0.5584121 0.0843624 0.0139619 -9.096423e-05 1 9.096424e-05 0.833781 0.456735
-0.537384 0.08436431 0.0139619 -9.096423e-05 1 9.096424e-05 0.823451 0.449781
-0.53671 0.08436564 1.089984e-05 -9.096423e-05 1 9.096424e-05 0.818126 0.455309
-0.5611191 0.08436342 1.089984e-05 -9.096423e-05 1 9.096424e-05 0.829313 0.464308
-0.5337591 0.07800216 0.05221632 -0.5035922 0.3337564 0.7968699 0.848998 0.436267
-0.5409241 0.08615631 0.04350406 -0.5965495 0.4505918 0.6641505 0.843791 0.440585
-0.549654 0.06223351 0.04344289 -0.7123834 0.2558614 0.6534867 0.855211 0.447963
-0.5360711 0.06155654 0.05677883 -0.5116208 0.2470778 0.8229197 0.858306 0.43694
-0.520575 0.08216085 0.0578747 -0.2858382 0.403597 0.869141 0.846968 0.429312
-0.521522 0.0995689 0.04533629 -0.3099683 0.651028 0.6928797 0.838422 0.4321
-0.5191081 0.06073654 0.06267375 -0.2787165 0.2494847 0.927402 0.858306 0.426251
-0.5000091 0.0614638 0.06800582 -2.446236e-05 0.2689228 0.9631618 0.854631 0.415218
-0.50001 0.08254746 0.06062474 -3.84973e-05 0.4232136 0.90603 0.844216 0.420292
-0.5000122 0.1022397 0.04713053 -6.262452e-05 0.6884522 0.7252818 0.835346 0.424613
-0.5000131 0.11453 0.03236664 -7.989621e-05 0.8783256 0.478063 0.829419 0.4275
-0.5237441 0.109493 0.03125519 -0.3852652 0.8116069 0.439164 0.83271 0.434662
-0.5000141 0.1210887 0.01396524 -8.569556e-05 0.9420797 0.3353893 0.824103 0.43009
-0.528192 0.1146231 0.01396465 -0.4515883 0.8453543 0.2853841 0.827519 0.437876
-0.5000141 0.1210887 0.01396524 -8.274492e-09 9.096424e-05 -1 0.824103 0.43009
-0.500011 0.08436771 0.0139619 -8.274492e-09 9.096424e-05 -1 0.811969 0.436001
-0.518245 0.08436605 0.0139619 -8.274492e-09 9.096424e-05 -1 0.816371 0.443221
-0.528192 0.1146231 0.01396465 -8.274492e-09 9.096424e-05 -1 0.827519 0.437876
-0.500011 0.08436771 0.0139619 -9.096423e-05 1 9.096424e-05 0.811969 0.436001
-0.500011 0.08436897 1.589984e-05 -9.096423e-05 1 9.096424e-05 0.805359 0.439222
-0.51825 0.08436732 1.089984e-05 -9.096423e-05 1 9.096424e-05 0.810833 0.447686
-0.518245 0.08436605 0.0139619 -9.096423e-05 1 9.096424e-05 0.816371 0.443221
-0.537384 0.08436431 0.0139619 -8.274492e-09 9.096424e-05 -1 0.823451 0.449781
-0.5584121 0.0843624 0.0139619 -8.274492e-09 9.096424e-05 -1 0.833781 0.456735
-0.4351871 0.06351144 0.01584 0.9355434 0.2727554 0.2244172 0.810729 0.39233
-0.4347301 0.06254192 8.913818e-06 0.9695767 0.2447879 2.225892e-05 0.801022 0.391226
-0.4389031 0.08437453 1.089984e-05 0.9695767 0.2447879 2.225892e-05 0.80037 0.404896
-0.4416101 0.08437303 0.0139619 0.8881592 0.3915566 0.2405342 0.809087 0.406046
-0.4502561 0.08999963 0.03161241 0.7212448 0.536421 0.4382449 0.820802 0.408217
-0.441071 0.06339458 0.03036099 0.8382422 0.2800229 0.4679074 0.819755 0.393216
-0.4389031 0.08437453 1.089984e-05 -9.096423e-05 1 9.096424e-05 0.80037 0.404896
-0.4633121 0.08437231 1.089984e-05 -9.096423e-05 1 9.096424e-05 0.80056 0.419253
-0.4626381 0.08437111 0.0139619 -9.096423e-05 1 9.096424e-05 0.808196 0.418467
-0.4416101 0.08437303 0.0139619 -9.096423e-05 1 9.096424e-05 0.809087 0.406046
-0.4639471 0.0615631 0.05677883 0.5115758 0.2471709 0.8229197 0.839791 0.398934
-0.4503632 0.06224255 0.04344289 0.7123368 0.255991 0.6534867 0.829203 0.394578
-0.4590981 0.08616374 0.04350406 0.5964675 0.4507003 0.6641505 0.827974 0.408118
-0.4662611 0.0780083 0.05221632 0.5035315 0.333848 0.7968699 0.834583 0.406679
-0.478502 0.09957282 0.04533629 0.3098499 0.6510844 0.6928797 0.831347 0.417576
-0.479445 0.08216459 0.0578747 0.2857647 0.403649 0.869141 0.838809 0.412565
-0.4809091 0.06074002 0.06267375 0.2786711 0.2495354 0.927402 0.848208 0.405523
-0.4762821 0.1094973 0.03125519 0.3851176 0.811677 0.439164 0.825808 0.420495
-0.4718339 0.1146283 0.01396465 0.4514345 0.8454365 0.2853841 0.820078 0.422601
-0.4718339 0.1146283 0.01396465 -8.274492e-09 9.096424e-05 -1 0.820078 0.422601
-0.481777 0.08436936 0.0139619 -8.274492e-09 9.096424e-05 -1 0.808997 0.428085
-0.481777 0.08436936 0.0139619 -9.096423e-05 1 9.096424e-05 0.808997 0.428085
-0.4817719 0.08437064 1.089984e-05 -9.096423e-05 1 9.096424e-05 0.802068 0.429694
-0.4416101 0.08437303 0.0139619 -8.274492e-09 9.096424e-05 -1 0.809087 0.406046
-0.564831 0.06350252 -0.015822 -0.935593 0.272626 -0.2243676 0.810729 0.305742
-0.5652871 0.06253004 8.913818e-06 -0.9696212 0.2446115 2.225893e-05 0.801022 0.304638
-0.5611191 0.08436342 1.089984e-05 -0.9696212 0.2446115 2.225893e-05 0.80037 0.318308
-0.5584121 0.08436494 -0.0139401 -0.8882304 0.3914388 -0.240463 0.809087 0.319458
-0.5497661 0.08999632 -0.03158959 -0.7213424 0.5363695 -0.4381473 0.820802 0.321629
-0.5589471 0.06338938 -0.03034301 -0.8382931 0.2799555 -0.4678565 0.819755 0.306627
-0.5611191 0.08436342 1.089984e-05 -9.096423e-05 1 9.096424e-05 0.80037 0.318308
-0.53671 0.08436564 1.089984e-05 -9.096423e-05 1 9.096424e-05 0.80056 0.332665
-0.537384 0.08436684 -0.0139401 -9.096423e-05 1 9.096424e-05 0.808196 0.331878
-0.5584121 0.08436494 -0.0139401 -9.096423e-05 1 9.096424e-05 0.809087 0.319458
-0.5360711 0.06156686 -0.05676117 -0.5116208 0.2472275 -0.8228747 0.839791 0.312346
-0.549654 0.06224141 -0.04342511 -0.7123834 0.2559803 -0.6534401 0.829203 0.30799
-0.5409241 0.08616421 -0.04348193 -0.5965495 0.4507126 -0.6640685 0.827974 0.32153
-0.5337591 0.07801165 -0.05219567 -0.5035923 0.3339014 -0.7968091 0.834583 0.320091
-0.521522 0.09957714 -0.04531172 -0.3099684 0.651154 -0.6927612 0.831347 0.330987
-0.520575 0.08217137 -0.0578533 -0.2858382 0.4037551 -0.8690675 0.838809 0.325977
-0.5191081 0.06074794 -0.06265624 -0.2787165 0.2496534 -0.9273567 0.848208 0.318935
-0.50001 0.0825585 -0.06060326 -3.851229e-05 0.4233784 -0.905953 0.844215 0.333704
-0.5000091 0.06147616 -0.06798819 -2.44783e-05 0.269098 -0.9631128 0.854631 0.32863
-0.5000122 0.1022483 -0.04710547 -6.263654e-05 0.6885841 -0.7251565 0.835346 0.338025
-0.5237441 0.1094987 -0.03122881 -0.3852652 0.8116868 -0.4390164 0.825808 0.333907
-0.5000131 0.1145359 -0.03233936 -7.990414e-05 0.8784125 -0.4779032 0.829419 0.340912
-0.528192 0.1146257 -0.01393735 -0.4515883 0.8454062 -0.2852303 0.820078 0.336013
-0.5000141 0.1210913 -0.01393676 -8.57011e-05 0.9421407 -0.3352179 0.824103 0.343502
-0.528192 0.1146257 -0.01393735 8.274492e-09 -9.096424e-05 1 0.820078 0.336013
-0.518245 0.08436859 -0.0139401 8.274492e-09 -9.096424e-05 1 0.808997 0.341497
-0.500011 0.08437024 -0.0139401 8.274492e-09 -9.096424e-05 1 0.811969 0.349413
-0.5000141 0.1210913 -0.01393676 8.274492e-09 -9.096424e-05 1 0.824103 0.343502
-0.518245 0.08436859 -0.0139401 -9.096423e-05 1 9.096424e-05 0.808997 0.341497
-0.51825 0.08436732 1.089984e-05 -9.096423e-05 1 9.096424e-05 0.802068 0.343106
-0.500011 0.08436897 5.899842e-06 -9.096423e-05 1 9.096424e-05 0.805359 0.352634
-0.500011 0.08437024 -0.0139401 -9.096423e-05 1 9.096424e-05 0.811969 0.349413
-0.5584121 0.08436494 -0.0139401 8.274492e-09 -9.096424e-05 1 0.809087 0.319458
-0.4416101 0.08437556 -0.0139401 0.8881592 0.3916004 -0.240463 0.833781 0.370147
-0.4389031 0.08437453 1.089984e-05 0.9695767 0.2447879 2.225892e-05 0.829313 0.377719
-0.4347301 0.06254192 8.913818e-06 0.9695767 0.2447879 2.225892e-05 0.84048 0.385632
-0.4351871 0.06351431 -0.015822 0.9355434 0.2727962 -0.2243676 0.845594 0.377308
-0.441071 0.0634001 -0.03034301 0.8382422 0.280108 -0.4678565 0.85046 0.369654
-0.4502561 0.09000538 -0.03158959 0.7212448 0.5365008 -0.4381472 0.839292 0.359584
-0.4416101 0.08437556 -0.0139401 -9.096423e-05 1 9.096424e-05 0.833781 0.370147
-0.4626381 0.08437365 -0.0139401 -9.096423e-05 1 9.096424e-05 0.823451 0.363192
-0.4633121 0.08437231 1.089984e-05 -9.096423e-05 1 9.096424e-05 0.818126 0.36872
-0.4389031 0.08437453 1.089984e-05 -9.096423e-05 1 9.096424e-05 0.829313 0.377719
-0.4662611 0.07801779 -0.05219567 0.5035315 0.333993 -0.7968091 0.848998 0.349679
-0.4590981 0.08617166 -0.04348193 0.5964675 0.4508211 -0.6640685 0.843791 0.353997
-0.4503632 0.06225045 -0.04342511 0.7123368 0.2561099 -0.6534401 0.85521 0.361374
-0.4639471 0.06157342 -0.05676117 0.5115758 0.2473206 -0.8228747 0.858306 0.350352
-0.479445 0.08217511 -0.0578533 0.2857647 0.4038071 -0.8690676 0.846968 0.342724
-0.478502 0.09958106 -0.04531172 0.3098285 0.6511653 -0.6928132 0.838422 0.345512
-0.4809091 0.06075142 -0.06265624 0.2786711 0.2497041 -0.9273567 0.858306 0.339663
-0.4762821 0.109503 -0.03122881 0.3851176 0.8117568 -0.4390164 0.83271 0.348073
-0.4718339 0.1146308 -0.01393735 0.4514346 0.8454884 -0.2852303 0.827519 0.351288
-0.481777 0.0843719 -0.0139401 8.274492e-09 -9.096424e-05 1 0.816371 0.356633
-0.4718339 0.1146308 -0.01393735 8.274492e-09 -9.096424e-05 1 0.827519 0.351288
-0.4817719 0.08437064 1.089984e-05 -9.096423e-05 1 9.096424e-05 0.810833 0.361098
-0.481777 0.0843719 -0.0139401 -9.096423e-05 1 9.096424e-05 0.816371 0.356633
-0.4626381 0.08437365 -0.0139401 8.274492e-09 -9.096424e-05 1 0.823451 0.363192
-0.4416101 0.08437556 -0.0139401 8.274492e-09 -9.096424e-05 1 0.833781 0.370147
-0.1672611 -0.280413 -0.06252228 -0.8089506 -0.5878766 -5.346905e-05 0.938065 0.997203
-0.1672611 -0.2804244 0.06247772 -0.8089506 -0.5878766 -5.346905e-05 0.997203 0.997203
-0.2283711 -0.196328 0.06248537 -0.9135146 -0.4068061 -3.699724e-05 0.997203 0.948021
-0.2283711 -0.1963166 -0.06251463 -0.9135146 -0.4068061 -3.699724e-05 0.938065 0.948021
-0.249994 -0.09464594 0.06249461 -1 -9.096423e-05 -8.844277e-17 0.997203 0.898839
-0.249994 -0.09463454 -0.06250539 -1 -9.096423e-05 -8.844277e-17 0.938065 0.898839
-0.228389 0.007040005 0.06250386 -0.9135886 0.4066398 3.699724e-05 0.997203 0.849656
-0.228389 0.007051375 -0.06249613 -0.9135886 0.4066398 3.699724e-05 0.938065 0.849656
-0.1008351 0.1763076 0.06251926 0.6913204 0.7225484 6.572034e-05 0.997203 0.633659
-0.1008351 0.1763189 -0.06248074 0.6913204 0.7225484 6.572034e-05 0.938065 0.633659
-0.1848471 0.2748724 -0.06247177 0.6317449 0.7751764 7.05081e-05 0.938065 0.694927
-0.1848471 0.2748609 0.06252822 0.6317449 0.7751764 7.05081e-05 0.997203 0.694927
-0.1912091 0.05822539 0.06250852 -0.8858288 0.4640124 4.221586e-05 0.997203 0.819726
-0.1912091 0.05823676 -0.06249148 -0.8858288 0.4640124 4.221586e-05 0.938065 0.819726
0.02611494 0.1540205 -0.06248277 0.1044121 0.9945341 9.046619e-05 0.938065 0.569527
0.02611494 0.1540092 0.06251723 0.1044121 0.9945341 9.046619e-05 0.997203 0.569527
0.1249859 0.1218941 0.06251431 0.4999323 0.8660645 7.877676e-05 0.997203 0.520345
0.1249859 0.1219055 -0.06248569 0.4999323 0.8660645 7.877676e-05 0.938065 0.520345
0.202246 0.05234117 0.06250798 0.8089506 0.5878766 5.346905e-05 0.997203 0.471163
0.202246 0.05235254 -0.06249202 0.8089506 0.5878766 5.346905e-05 0.938065 0.471163
0.2445378 -0.04262295 0.06249934 0.9135146 0.4068061 3.699724e-05 0.997203 0.42198
0.2445378 -0.04261164 -0.06250065 0.9135146 0.4068061 3.699724e-05 0.938065 0.42198
-0.184247 0.1281504 -0.06248512 -0.9713666 -0.2375855 -2.160374e-05 0.938065 0.785525
-0.184247 0.128139 0.06251488 -0.9713666 -0.2375855 -2.160374e-05 0.997203 0.785525
-0.2276142 0.2501641 0.06252598 -0.9871677 -0.1596869 -1.451763e-05 0.997203 0.724257
-0.2276142 0.2501754 -0.06247402 -0.9871677 -0.1596869 -1.451763e-05 0.938065 0.724257
-0.2200851 0.2706242 -0.06247216 -0.6478745 0.7617471 6.929711e-05 0.938065 0.713351
-0.2200851 0.2706127 0.06252784 -0.6478745 0.7617471 6.929711e-05 0.997203 0.713351
-0.206321 0.27856 0.06252857 -0.3358962 0.9418991 8.568192e-05 0.997203 0.705832
-0.206321 0.2785714 -0.06247144 -0.3358962 0.9418991 8.568192e-05 0.938065 0.705832
-0.1792641 0.09233947 0.06251162 -0.9950769 0.09910628 9.023362e-06 0.997203 0.802625
-0.1792641 0.09235084 -0.06248838 -0.9950769 0.09910628 9.023362e-06 0.938065 0.802625
-0.07231998 0.1540972 0.06251724 0.4115413 0.9113911 8.290061e-05 0.997203 0.616558
-0.07231998 0.1541086 -0.06248276 0.4115413 0.9113911 8.290061e-05 0.938065 0.616558
-0.03680205 0.1473904 0.06251663 0.04090744 0.999163 9.088776e-05 0.997203 0.599458
-0.03680205 0.1474018 -0.06248337 0.04090744 0.999163 9.088776e-05 0.938065 0.599458
-0.227375 0.2616861 0.06252703 -0.9384155 0.3455088 3.143671e-05 0.997203 0.718804
-0.227375 0.2616974 -0.06247297 -0.9384155 0.3455088 3.143671e-05 0.938065 0.718804
-0.1949461 0.2804131 0.06252873 0.1698039 0.9854779 8.964185e-05 0.997203 0.70038
-0.1949461 0.2804244 -0.06247127 0.1698039 0.9854779 8.964185e-05 0.938065 0.70038
-0.9295561 0.04023857 -0.5129981 -0.1386562 0.6065633 -0.7828509 0.491761 0.072963
0.93259 0.04040796 -0.5129981 0.1448462 0.6023887 -0.7849506 0.491474 0.94881
0.969955 -0.03506125 -0.55 0.188959 0.5060074 -0.8415766 0.531385 0.968135
-0.9670241 -0.03523745 -0.55 -0.1800391 0.5033419 -0.845123 0.531385 0.05368799
0.93259 0.04031464 0.5130119 0.1448462 0.6022459 0.7850602 0.567266 0.07228303
-0.9295561 0.04014524 0.5130119 -0.1386562 0.6064209 0.7829612 0.567552 0.94813
-0.967025 -0.03533754 0.55 -0.1800391 0.5031881 0.8452145 0.607177 0.967405
0.969955 -0.03516135 0.55 0.188959 0.5058542 0.8416686 0.607177 0.05295801
-1.013011 0.04014434 0.4395569 -0.7525724 0.6395295 0.1569612 0.892532 0.539173
-1.013011 0.0402243 -0.4395431 -0.7525725 0.639558 -0.1568448 0.893182 0.950996
-1.05 -0.03525165 -0.476641 -0.8290287 0.5144334 -0.2192484 0.932471 0.970321
-1.05 -0.03533845 0.476641 -0.8290287 0.5143934 0.219342 0.932471 0.51975
1.012998 0.04040843 -0.4377141 0.7694446 0.6196849 -0.1547439 0.647712 0.05198401
1.012998 0.04032879 0.4377279 0.7694446 0.6196567 0.1548566 0.647135 0.462496
1.05 -0.03514724 0.474882 0.8332226 0.5117378 0.2094388 0.687067 0.481813
1.05 -0.03506085 -0.474882 0.8332226 0.5117759 -0.2093457 0.687067 0.03277498
-0.9925652 0.05890862 0.4239036 -0.4562801 0.8857498 0.08518049 0.879409 0.54636
-0.9925652 0.05898573 -0.4238864 -0.4562801 0.8857653 -0.08501934 0.880055 0.943855
-0.907764 0.05890963 0.4975306 -0.0738773 0.8385558 0.5397837 0.556066 0.937921
0.9137919 0.05907534 0.4974476 0.08222141 0.8340302 0.5455578 0.555757 0.08107698
0.88834 0.06684577 0.4782593 0.02931392 0.9388496 0.3430774 0.545889 0.09276003
-0.8755131 0.06668529 0.4785443 -0.02278562 0.938477 0.3445893 0.546199 0.922944
0.2164969 0.06682247 0.0625093 -1 -9.096423e-05 -8.844277e-17 0.692661 0.153317
0.2164969 0.06683384 -0.0624907 -1 -9.096423e-05 -8.844277e-17 0.692661 0.212456
0.216506 -0.03517415 -0.06249999 -1 -9.096423e-05 -8.844277e-17 0.740922 0.212456
0.216506 -0.03518555 0.06250001 -1 -9.096423e-05 -8.844277e-17 0.740922 0.153317
-0.216506 -0.03521354 -0.06249999 1 9.096423e-05 8.844277e-17 0.794776 0.153317
-0.2165151 0.06679446 -0.0624907 1 9.096423e-05 8.844277e-17 0.746515 0.153317
-0.2165151 0.06678309 0.0625093 1 9.096423e-05 8.844277e-17 0.746515 0.212456
-0.216506 -0.03522494 0.06250001 1 9.096423e-05 8.844277e-17 0.794776 0.212456
-0.2165151 0.06678309 0.0625093 -8.274492e-09 9.096424e-05 -1 0.794776 0.509499
0.2164969 0.06682247 0.0625093 -8.274492e-09 9.096424e-05 -1 0.794776 0.304638
0.216506 -0.03518555 0.06250001 -8.274492e-09 9.096424e-05 -1 0.746515 0.304638
-0.216506 -0.03522494 0.06250001 -8.274492e-09 9.096424e-05 -1 0.746515 0.509499
0.216506 -0.03517415 -0.06249999 8.274492e-09 -9.096424e-05 1 0.740922 0.304638
0.2164969 0.06683384 -0.0624907 8.274492e-09 -9.096424e-05 1 0.692661 0.304638
-0.2165151 0.06679446 -0.0624907 8.274492e-09 -9.096424e-05 1 0.692661 0.509499
-0.216506 -0.03521354 -0.06249999 8.274492e-09 -9.096424e-05 1 0.740922 0.509499
0.995147 0.05916635 -0.4217774 0.5021099 0.8603334 -0.08781967 0.635495 0.05932599
0.995147 0.05908962 0.4217946 0.5021099 0.8603173 0.08797618 0.634888 0.455097
0.970443 0.06693334 -0.4023787 0.2723223 0.9614628 -0.03781391 0.623157 0.06795502
0.970443 0.06686013 0.4023973 0.2723223 0.9614559 0.03798882 0.622409 0.446348
-0.8755131 0.06677235 -0.4785257 -0.02278563 0.9385397 -0.3444185 0.470407 0.09815001
0.88834 0.06693278 -0.4782417 0.02931391 0.938912 -0.3429066 0.470097 0.928333
0.9137919 0.05916584 -0.4974304 0.0822214 0.8341295 -0.545406 0.479966 0.940016
-0.907764 0.05900015 -0.4975134 -0.07387731 0.838654 -0.5396311 0.480274 0.08317202
-0.9615932 0.06668416 0.4048523 -0.2211967 0.9745122 0.03739002 0.864026 0.5548
-0.9615932 0.06675782 -0.4048337 -0.2211968 0.974519 -0.03721273 0.864838 0.935531
-0.9885681 0.04014184 0.4914979 -0.4981453 0.6783832 0.540044 0.884307 0.512897
-0.9677269 0.05890614 0.4759676 -0.2950812 0.8902422 0.3469812 0.870214 0.520261
-0.9677269 0.05890614 0.4759676 -0.2950812 0.8902422 0.3469812 0.548459 0.967262
-0.9885681 0.04014184 0.4914979 -0.4981453 0.6783832 0.540044 0.560468 0.977425
0.971319 0.05908258 0.4752876 0.325823 0.877105 0.3528828 0.626319 0.48176
0.9894469 0.0403218 0.4909619 0.514945 0.6682054 0.5369667 0.639326 0.489329
0.9894469 0.0403218 0.4909619 0.514945 0.6682054 0.5369667 0.559992 0.04391003
0.971319 0.05908258 0.4752876 0.325823 0.877105 0.3528828 0.547944 0.052818
-0.9363811 0.06668172 0.4569663 -0.1316912 0.9745906 0.1811922 0.853622 0.528383
-0.9363811 0.06668172 0.4569663 -0.1316912 0.9745906 0.1811922 0.53743 0.952612
0.9463949 0.06685307 0.4560343 0.1581141 0.9696115 0.1866909 0.61277 0.473305
0.9463949 0.06685307 0.4560343 0.1581141 0.9696115 0.1866909 0.536979 0.06433702
-0.9677269 0.05899273 -0.4759504 -0.2950812 0.8903053 -0.3468193 0.472667 0.05383098
-0.9363811 0.06676485 -0.4569477 -0.1316912 0.9746236 -0.1810149 0.461638 0.06848103
-0.9363811 0.06676485 -0.4569477 -0.1316912 0.9746236 -0.1810149 0.854554 0.961706
-0.9677269 0.05899273 -0.4759504 -0.2950812 0.8903053 -0.3468193 0.870997 0.969735
-0.9885681 0.04023124 -0.4914841 -0.4981453 0.6784815 -0.5399206 0.484676 0.04366797
-0.9885681 0.04023124 -0.4914841 -0.4981453 0.6784815 -0.5399206 0.884969 0.977026
0.971319 0.05916905 -0.4752704 0.325823 0.8771692 -0.3527232 0.472152 0.968275
0.9894469 0.04041112 -0.4909481 0.514945 0.6683031 -0.5368452 0.4842 0.977183
0.9894469 0.04041112 -0.4909481 0.514945 0.6683031 -0.5368452 0.639933 0.02541298
0.971319 0.05916905 -0.4752704 0.325823 0.8771692 -0.3527232 0.627052 0.03290498
0.9463959 0.06693603 -0.4560157 0.1581141 0.9696455 -0.1865145 0.461187 0.956756
0.9463959 0.06693603 -0.4560157 0.1581141 0.9696455 -0.1865145 0.61363 0.041269
1.026555 -0.03515415 0.527999 0.5689325 0.5703822 0.5924357 0.679867 0.509499
1.026555 -0.03515415 0.527999 0.5689325 0.5703822 0.5924357 0.60046 0.02389002
-1.025697 -0.03534094 0.528514 -0.5577834 0.5701267 0.603186 0.924876 0.492481
-1.025697 -0.03534094 0.528514 -0.5577834 0.5701267 0.603186 0.600718 0.997203
-1.025697 -0.03524475 -0.528514 -0.5577834 0.5702364 -0.6030822 0.524926 0.02389002
-1.025697 -0.03524475 -0.528514 -0.5577834 0.5702364 -0.6030822 0.924951 0.997203
1.026555 -0.03505815 -0.527999 0.5689325 0.57049 -0.5923319 0.524668 0.997203
1.026555 -0.03505815 -0.527999 0.5689325 0.57049 -0.5923319 0.679926 0.005454004
0.4415879 0.08445337 0.0139619 -0.8882304 0.391395 0.2405342 0.726072 0.283559
0.4388809 0.08445439 1.089984e-05 -0.9696212 0.2446115 2.225893e-05 0.721604 0.291131
0.4347129 0.062621 8.913818e-06 -0.9696212 0.2446115 2.225893e-05 0.732771 0.299044
0.435169 0.06359061 0.01584 -0.935593 0.2725852 0.2244172 0.737885 0.290719
0.4410529 0.06347482 0.03036099 -0.8382931 0.2798704 0.4679074 0.742751 0.283066
0.4502339 0.09008154 0.03161241 -0.7213423 0.5362898 0.4382448 0.731583 0.272996
0.4415879 0.08445337 0.0139619 -9.096423e-05 1 9.096424e-05 0.726072 0.283559
0.462616 0.08445527 0.0139619 -9.096423e-05 1 9.096424e-05 0.715742 0.276604
0.46329 0.08445661 1.089984e-05 -9.096423e-05 1 9.096424e-05 0.710417 0.282132
0.4388809 0.08445439 1.089984e-05 -9.096423e-05 1 9.096424e-05 0.721604 0.291131
0.4662409 0.07809313 0.05221632 -0.5035922 0.3337564 0.7968699 0.741289 0.263091
0.4590759 0.08624727 0.04350406 -0.5965495 0.4505918 0.6641505 0.736082 0.267408
0.450346 0.06232448 0.04344289 -0.7123834 0.2558614 0.6534867 0.747501 0.274786
0.4639289 0.0616475 0.05677883 -0.5116208 0.2470778 0.8229197 0.750598 0.263764
0.479425 0.0822518 0.0578747 -0.2858382 0.403597 0.869141 0.739259 0.256135
0.478478 0.09965986 0.04533629 -0.3099469 0.6509829 0.6929317 0.730713 0.258923
0.4808919 0.06082751 0.06267375 -0.2787165 0.2494847 0.927402 0.750598 0.253075
0.4999909 0.06155476 0.06800582 -2.446236e-05 0.2689228 0.9631618 0.746922 0.242042
0.49999 0.08263844 0.06062474 -3.84973e-05 0.4232136 0.90603 0.736507 0.247115
0.4999878 0.1023307 0.04713053 -6.262452e-05 0.6884522 0.7252818 0.727637 0.251437
0.4999869 0.114621 0.03236664 -7.989621e-05 0.8783256 0.478063 0.721711 0.254324
0.4762559 0.1095839 0.03125519 -0.3852652 0.8116069 0.439164 0.725001 0.261485
0.4999859 0.1211797 0.01396524 -8.569556e-05 0.9420797 0.3353893 0.716394 0.256914
0.471808 0.1147141 0.01396465 -0.4515883 0.8453543 0.2853841 0.71981 0.264699
0.4999859 0.1211797 0.01396524 -8.274492e-09 9.096424e-05 -1 0.716394 0.256914
0.499989 0.08445868 0.0139619 -8.274492e-09 9.096424e-05 -1 0.70426 0.262825
0.481755 0.08445701 0.0139619 -8.274492e-09 9.096424e-05 -1 0.708662 0.270044
0.471808 0.1147141 0.01396465 -8.274492e-09 9.096424e-05 -1 0.71981 0.264699
0.499989 0.08445868 0.0139619 -9.096423e-05 1 9.096424e-05 0.70426 0.262825
0.499989 0.08445995 1.589984e-05 -9.096423e-05 1 9.096424e-05 0.69765 0.266045
0.48175 0.08445828 1.089984e-05 -9.096423e-05 1 9.096424e-05 0.703124 0.274509
0.481755 0.08445701 0.0139619 -9.096423e-05 1 9.096424e-05 0.708662 0.270044
0.462616 0.08445527 0.0139619 -8.274492e-09 9.096424e-05 -1 0.715742 0.276604
0.4415879 0.08445337 0.0139619 -8.274492e-09 9.096424e-05 -1 0.726072 0.283559
0.5648129 0.0636024 0.01584 0.9355434 0.2727554 0.2244172 0.703021 0.219153
0.5652699 0.06263288 8.913818e-06 0.9695767 0.2447879 2.225892e-05 0.693313 0.218049
0.5610969 0.0844655 1.089984e-05 0.9695767 0.2447879 2.225892e-05 0.692661 0.23172
0.5583899 0.08446398 0.0139619 0.8881592 0.3915566 0.2405342 0.701378 0.232869
0.5497439 0.0900906 0.03161241 0.7212448 0.536421 0.4382449 0.713093 0.23504
0.558929 0.06348555 0.03036099 0.8382422 0.2800229 0.4679074 0.712046 0.220039
0.5610969 0.0844655 1.089984e-05 -9.096423e-05 1 9.096424e-05 0.692661 0.23172
0.5366879 0.08446328 1.089984e-05 -9.096423e-05 1 9.096424e-05 0.692851 0.246076
0.5373619 0.08446208 0.0139619 -9.096423e-05 1 9.096424e-05 0.700487 0.24529
0.5583899 0.08446398 0.0139619 -9.096423e-05 1 9.096424e-05 0.701378 0.232869
0.5360529 0.06165406 0.05677883 0.5115758 0.2471709 0.8229197 0.732082 0.225758
0.5496368 0.06233351 0.04344289 0.7123368 0.255991 0.6534867 0.721494 0.221402
0.5409019 0.08625472 0.04350406 0.5964675 0.4507003 0.6641505 0.720265 0.234942
0.5337389 0.07809927 0.05221632 0.5035315 0.333848 0.7968699 0.726874 0.233503
0.521498 0.09966378 0.04533629 0.3098499 0.6510844 0.6928797 0.723638 0.244399
0.520555 0.08225556 0.0578747 0.2857647 0.403649 0.869141 0.7311 0.239388
0.5190909 0.06083098 0.06267375 0.2786711 0.2495354 0.927402 0.740499 0.232346
0.5237179 0.1095883 0.03125519 0.3851176 0.811677 0.439164 0.718099 0.247319
0.5281661 0.1147192 0.01396465 0.4514345 0.8454365 0.2853841 0.712369 0.249424
0.5281661 0.1147192 0.01396465 -8.274492e-09 9.096424e-05 -1 0.712369 0.249424
0.518223 0.08446033 0.0139619 -8.274492e-09 9.096424e-05 -1 0.701288 0.254909
0.518223 0.08446033 0.0139619 -9.096423e-05 1 9.096424e-05 0.701288 0.254909
0.5182281 0.08446161 1.089984e-05 -9.096423e-05 1 9.096424e-05 0.694359 0.256517
0.5583899 0.08446398 0.0139619 -8.274492e-09 9.096424e-05 -1 0.701378 0.232869
0.435169 0.06359348 -0.015822 -0.935593 0.272626 -0.2243676 0.766551 0.219153
0.4347129 0.062621 8.913818e-06 -0.9696212 0.2446115 2.225893e-05 0.756843 0.218049
0.4388809 0.08445439 1.089984e-05 -0.9696212 0.2446115 2.225893e-05 0.756191 0.23172
0.4415879 0.08445591 -0.0139401 -0.8882304 0.3914388 -0.240463 0.764908 0.232869
0.4502339 0.09008729 -0.03158959 -0.7213424 0.5363695 -0.4381473 0.776623 0.23504
0.4410529 0.06348035 -0.03034301 -0.8382931 0.2799555 -0.4678565 0.775576 0.220039
0.4388809 0.08445439 1.089984e-05 -9.096423e-05 1 9.096424e-05 0.756191 0.23172
0.46329 0.08445661 1.089984e-05 -9.096423e-05 1 9.096424e-05 0.756382 0.246076
0.462616 0.08445781 -0.0139401 -9.096423e-05 1 9.096424e-05 0.764017 0.24529
0.4415879 0.08445591 -0.0139401 -9.096423e-05 1 9.096424e-05 0.764908 0.232869
0.4639289 0.06165783 -0.05676117 -0.5116208 0.2472275 -0.8228747 0.795613 0.225758
0.450346 0.06233238 -0.04342511 -0.7123834 0.2559803 -0.6534401 0.785025 0.221402
0.4590759 0.08625519 -0.04348193 -0.5965495 0.4507126 -0.6640685 0.783795 0.234942
0.4662409 0.07810263 -0.05219567 -0.5035923 0.3339014 -0.7968091 0.790405 0.233503
0.478478 0.0996681 -0.04531172 -0.3099684 0.651154 -0.6927612 0.787168 0.244399
0.479425 0.08226234 -0.0578533 -0.2858382 0.4037551 -0.8690675 0.794631 0.239388
0.4808919 0.06083891 -0.06265624 -0.2787165 0.2496534 -0.9273567 0.80403 0.232346
0.49999 0.08264945 -0.06060326 -3.851229e-05 0.4233784 -0.905953 0.800037 0.247115
0.4999909 0.06156713 -0.06798819 -2.44783e-05 0.269098 -0.9631128 0.810452 0.242041
0.4999878 0.1023392 -0.04710547 -6.263654e-05 0.6885841 -0.7251565 0.791167 0.251436
0.4762559 0.1095896 -0.03122881 -0.3852652 0.8116868 -0.4390164 0.781629 0.247319
0.4999869 0.1146269 -0.03233936 -7.990414e-05 0.8784125 -0.4779032 0.785241 0.254324
0.471808 0.1147166 -0.01393735 -0.4515883 0.8454062 -0.2852303 0.775899 0.249424
0.4999859 0.1211822 -0.01393676 -8.57011e-05 0.9421407 -0.3352179 0.779924 0.256914
0.471808 0.1147166 -0.01393735 8.274492e-09 -9.096424e-05 1 0.775899 0.249424
0.481755 0.08445956 -0.0139401 8.274492e-09 -9.096424e-05 1 0.764818 0.254909
0.499989 0.08446121 -0.0139401 8.274492e-09 -9.096424e-05 1 0.767791 0.262825
0.4999859 0.1211822 -0.01393676 8.274492e-09 -9.096424e-05 1 0.779924 0.256914
0.481755 0.08445956 -0.0139401 -9.096423e-05 1 9.096424e-05 0.764818 0.254909
0.48175 0.08445828 1.089984e-05 -9.096423e-05 1 9.096424e-05 0.757889 0.256518
0.499989 0.08445995 5.899842e-06 -9.096423e-05 1 9.096424e-05 0.76118 0.266045
0.499989 0.08446121 -0.0139401 -9.096423e-05 1 9.096424e-05 0.767791 0.262825
0.4415879 0.08445591 -0.0139401 8.274492e-09 -9.096424e-05 1 0.764908 0.232869
0.5583899 0.08446652 -0.0139401 0.8881592 0.3916004 -0.240463 0.789602 0.283559
0.5610969 0.0844655 1.089984e-05 0.9695767 0.2447879 2.225892e-05 0.785134 0.291131
0.5652699 0.06263288 8.913818e-06 0.9695767 0.2447879 2.225892e-05 0.796301 0.299044
0.5648129 0.06360528 -0.015822 0.9355434 0.2727962 -0.2243676 0.801415 0.290719
0.558929 0.06349107 -0.03034301 0.8382422 0.280108 -0.4678565 0.806281 0.283066
0.5497439 0.09009635 -0.03158959 0.7212448 0.5365008 -0.4381472 0.795114 0.272996
0.5583899 0.08446652 -0.0139401 -9.096423e-05 1 9.096424e-05 0.789602 0.283559
0.5373619 0.08446462 -0.0139401 -9.096423e-05 1 9.096424e-05 0.779272 0.276604
0.5366879 0.08446328 1.089984e-05 -9.096423e-05 1 9.096424e-05 0.773947 0.282132
0.5610969 0.0844655 1.089984e-05 -9.096423e-05 1 9.096424e-05 0.785134 0.291131
0.5337389 0.07810877 -0.05219567 0.5035315 0.333993 -0.7968091 0.804819 0.263091
0.5409019 0.08626263 -0.04348193 0.5964675 0.4508211 -0.6640685 0.799612 0.267408
0.5496368 0.06234141 -0.04342511 0.7123368 0.2561099 -0.6534401 0.811032 0.274786
0.5360529 0.06166439 -0.05676117 0.5115758 0.2473206 -0.8228747 0.814128 0.263764
0.520555 0.08226608 -0.0578533 0.2857647 0.4038071 -0.8690676 0.802789 0.256135
0.521498 0.09967202 -0.04531172 0.3098499 0.6512104 -0.6927612 0.794244 0.258923
0.5190909 0.06084238 -0.06265624 0.2786711 0.2497041 -0.9273567 0.814128 0.253075
0.5237179 0.1095939 -0.03122881 0.3851176 0.8117568 -0.4390164 0.788531 0.261485
0.5281661 0.1147218 -0.01393735 0.4514346 0.8454884 -0.2852303 0.783341 0.264699
0.518223 0.08446287 -0.0139401 8.274492e-09 -9.096424e-05 1 0.772192 0.270044
0.5281661 0.1147218 -0.01393735 8.274492e-09 -9.096424e-05 1 0.783341 0.264699
0.5182281 0.08446161 1.089984e-05 -9.096423e-05 1 9.096424e-05 0.766654 0.274509
0.518223 0.08446287 -0.0139401 -9.096423e-05 1 9.096424e-05 0.772192 0.270044
0.5373619 0.08446462 -0.0139401 8.274492e-09 -9.096424e-05 1 0.779272 0.276604
0.5583899 0.08446652 -0.0139401 8.274492e-09 -9.096424e-05 1 0.789602 0.283559
-0.2276142 0.2501641 0.06252598 8.274492e-09 -9.096424e-05 1 0.742082 0.990607
-0.1848471 0.2748609 0.06252822 8.274492e-09 -9.096424e-05 1 0.718717 0.990607
-0.227375 0.2616861 0.06252703 8.274492e-09 -9.096424e-05 1 0.739258 0.995271
-0.2200851 0.2706127 0.06252784 8.274492e-09 -9.096424e-05 1 0.734159 0.997203
-0.206321 0.27856 0.06252857 8.274492e-09 -9.096424e-05 1 0.72664 0.997203
-0.1949461 0.2804131 0.06252873 8.274492e-09 -9.096424e-05 1 0.721541 0.995271
-0.2276142 0.2501754 -0.06247402 -8.274492e-09 9.096424e-05 -1 0.718717 0.746755
-0.1848471 0.2748724 -0.06247177 -8.274492e-09 9.096424e-05 -1 0.742082 0.746755
-0.227375 0.2616974 -0.06247297 -8.274492e-09 9.096424e-05 -1 0.721541 0.751419
-0.2200851 0.2706242 -0.06247216 -8.274492e-09 9.096424e-05 -1 0.72664 0.753351
-0.206321 0.2785714 -0.06247144 -8.274492e-09 9.096424e-05 -1 0.734159 0.753351
-0.1949461 0.2804244 -0.06247127 -8.274492e-09 9.096424e-05 -1 0.739258 0.751419
0.2445378 -0.04262295 0.06249934 8.274492e-09 -9.096424e-05 1 0.617911 0.758945
-0.2283711 -0.196328 0.06248537 8.274492e-09 -9.096424e-05 1 0.848028 0.807858
-0.1672611 -0.2804244 0.06247772 8.274492e-09 -9.096424e-05 1 0.842887 0.758945
-0.249994 -0.09464594 0.06249461 8.274492e-09 -9.096424e-05 1 0.83283 0.854633
-0.228389 0.007040005 0.06250386 8.274492e-09 -9.096424e-05 1 0.799921 0.891182
0.202246 0.05234117 0.06250798 8.274492e-09 -9.096424e-05 1 0.61277 0.807858
0.1249859 0.1218941 0.06251431 8.274492e-09 -9.096424e-05 1 0.627969 0.854633
0.02611494 0.1540092 0.06251723 8.274492e-09 -9.096424e-05 1 0.660878 0.891182
-0.2283711 -0.1963166 -0.06251463 -8.274492e-09 9.096424e-05 -1 0.61277 0.564006
0.2445378 -0.04261164 -0.06250065 -8.274492e-09 9.096424e-05 -1 0.842887 0.515093
-0.1672611 -0.280413 -0.06252228 -8.274492e-09 9.096424e-05 -1 0.617911 0.515093
-0.249994 -0.09463454 -0.06250539 -8.274492e-09 9.096424e-05 -1 0.627969 0.610781
-0.228389 0.007051375 -0.06249613 -8.274492e-09 9.096424e-05 -1 0.660878 0.64733
0.202246 0.05235254 -0.06249202 -8.274492e-09 9.096424e-05 -1 0.848028 0.564006
0.1249859 0.1219055 -0.06248569 -8.274492e-09 9.096424e-05 -1 0.83283 0.610781
0.02611494 0.1540205 -0.06248277 -8.274492e-09 9.096424e-05 -1 0.799921 0.64733
-0.9363811 0.06668172 0.4569663 -9.096423e-05 1 9.096424e-05 0.013006 0.09507102
-0.9615932 0.06675782 -0.4048337 -9.096423e-05 1 9.096424e-05 0.420729 0.083143
-0.9615932 0.06668416 0.4048523 -9.096423e-05 1 9.096424e-05 0.037661 0.083143
-0.9363811 0.06676485 -0.4569477 -9.096423e-05 1 9.096424e-05 0.445385 0.09507102
-0.2165151 0.06678309 0.0625093 -9.096423e-05 1 9.096424e-05 0.199626 0.435645
-0.2165151 0.06679446 -0.0624907 -9.096423e-05 1 9.096424e-05 0.258764 0.435645
-0.8755131 0.06668529 0.4785443 -9.096423e-05 1 9.096424e-05 0.002797 0.123868
0.88834 0.06684577 0.4782593 -9.096423e-05 1 9.096424e-05 0.002931 0.95836
0.2164969 0.06682247 0.0625093 -9.096423e-05 1 9.096424e-05 0.199626 0.640506
0.9463949 0.06685307 0.4560343 -9.096423e-05 1 9.096424e-05 0.013446 0.985826
-0.8755131 0.06677235 -0.4785257 -9.096423e-05 1 9.096424e-05 0.455593 0.123868
0.88834 0.06693278 -0.4782417 -9.096423e-05 1 9.096424e-05 0.455459 0.95836
0.2164969 0.06683384 -0.0624907 -9.096423e-05 1 9.096424e-05 0.258764 0.640506
0.9463959 0.06693603 -0.4560157 -9.096423e-05 1 9.096424e-05 0.444944 0.985826
0.970443 0.06686013 0.4023973 -9.096423e-05 1 9.096424e-05 0.038823 0.997203
0.970443 0.06693334 -0.4023787 -9.096423e-05 1 9.096424e-05 0.419568 0.997203
3 0 1 2 
3 1 3 2 
3 4 5 6 
3 5 7 6 
3 8 9 10 
3 9 11 10 
3 12 13 14 
3 13 15 14 
3 16 17 18 
3 16 18 19 
3 16 19 20 
3 16 20 21 
3 22 23 24 
3 22 24 25 
3 26 27 28 
3 26 28 29 
3 26 30 31 
3 26 31 27 
3 26 29 32 
3 26 32 30 
3 32 33 34 
3 32 34 30 
3 34 35 31 
3 34 31 30 
3 35 36 37 
3 35 37 31 
3 37 36 38 
3 37 38 39 
3 37 39 16 
3 37 16 21 
3 37 21 27 
3 37 27 31 
3 40 41 42 
3 40 42 43 
3 44 45 46 
3 44 46 47 
3 46 24 23 
3 46 23 47 
3 28 27 21 
3 28 21 20 
3 48 49 43 
3 48 43 42 
3 50 51 52 
3 50 52 53 
3 54 55 50 
3 54 50 53 
3 56 57 58 
3 56 58 59 
3 60 61 62 
3 60 62 63 
3 62 64 65 
3 62 65 63 
3 65 66 60 
3 65 60 63 
3 65 34 33 
3 65 33 66 
3 65 64 35 
3 65 35 34 
3 64 67 36 
3 64 36 35 
3 68 38 36 
3 68 36 67 
3 54 53 68 
3 54 68 67 
3 64 62 54 
3 64 54 67 
3 69 70 41 
3 69 41 40 
3 71 72 45 
3 71 45 44 
3 71 58 57 
3 71 57 72 
3 55 54 62 
3 55 62 61 
3 70 69 73 
3 74 75 76 
3 74 76 77 
3 78 79 74 
3 78 74 77 
3 80 81 82 
3 80 82 83 
3 84 85 86 
3 84 86 87 
3 86 88 89 
3 86 89 87 
3 89 90 84 
3 89 84 87 
3 89 91 92 
3 89 92 90 
3 89 88 93 
3 89 93 91 
3 88 94 95 
3 88 95 93 
3 96 97 95 
3 96 95 94 
3 78 77 96 
3 78 96 94 
3 88 86 78 
3 88 78 94 
3 98 99 100 
3 98 100 101 
3 102 103 104 
3 102 104 105 
3 102 82 81 
3 102 81 103 
3 79 78 86 
3 79 86 85 
3 99 98 106 
3 107 108 109 
3 107 109 110 
3 107 110 111 
3 107 111 112 
3 113 114 115 
3 113 115 116 
3 117 118 119 
3 117 119 120 
3 117 121 122 
3 117 122 118 
3 117 120 123 
3 117 123 121 
3 123 92 91 
3 123 91 121 
3 91 93 122 
3 91 122 121 
3 93 95 124 
3 93 124 122 
3 124 95 97 
3 124 97 125 
3 124 125 107 
3 124 107 112 
3 124 112 118 
3 124 118 122 
3 101 100 126 
3 101 126 127 
3 105 104 128 
3 105 128 129 
3 128 115 114 
3 128 114 129 
3 119 118 112 
3 119 112 111 
3 130 131 127 
3 130 127 126 
3 132 133 134 
3 132 134 135 
3 135 134 136 
3 135 136 137 
3 137 136 138 
3 137 138 139 
3 140 141 142 
3 140 142 143 
3 139 138 144 
3 139 144 145 
3 146 147 148 
3 146 148 149 
3 149 148 150 
3 149 150 151 
3 151 150 152 
3 151 152 153 
3 154 155 156 
3 154 156 157 
3 158 159 160 
3 158 160 161 
3 145 144 162 
3 145 162 163 
3 163 162 155 
3 163 155 154 
3 141 140 164 
3 141 164 165 
3 165 164 166 
3 165 166 167 
3 167 166 147 
3 167 147 146 
3 157 156 168 
3 157 168 169 
3 169 168 159 
3 169 159 158 
3 161 160 170 
3 161 170 171 
3 171 170 143 
3 171 143 142 
3 172 173 174 
3 172 174 175 
3 176 177 178 
3 176 178 179 
3 180 181 182 
3 180 182 183 
3 184 185 186 
3 184 186 187 
3 188 189 181 
3 188 181 180 
3 190 191 192 
3 190 192 193 
3 194 195 196 
3 194 196 197 
3 198 199 200 
3 198 200 201 
3 202 203 204 
3 202 204 205 
3 206 207 208 
3 206 208 209 
3 185 184 210 
3 185 210 211 
3 177 176 191 
3 177 191 190 
3 211 210 212 
3 211 212 213 
3 214 215 216 
3 214 216 217 
3 217 216 173 
3 217 173 172 
3 218 219 189 
3 218 189 188 
3 188 180 220 
3 188 220 221 
3 222 223 177 
3 222 177 190 
3 185 211 224 
3 185 224 225 
3 226 227 191 
3 226 191 176 
3 218 188 221 
3 218 221 228 
3 229 222 190 
3 229 190 193 
3 211 213 230 
3 211 230 224 
3 227 231 192 
3 227 192 191 
3 214 217 232 
3 214 232 233 
3 234 235 189 
3 234 189 219 
3 217 172 236 
3 217 236 232 
3 235 237 181 
3 235 181 189 
3 173 216 238 
3 173 238 239 
3 240 241 210 
3 240 210 184 
3 216 215 242 
3 216 242 238 
3 241 243 212 
3 241 212 210 
3 186 185 225 
3 186 225 244 
3 245 226 176 
3 245 176 179 
3 180 183 246 
3 180 246 220 
3 223 247 178 
3 223 178 177 
3 172 175 248 
3 172 248 236 
3 237 249 182 
3 237 182 181 
3 174 173 239 
3 174 239 250 
3 251 240 184 
3 251 184 187 
3 252 253 254 
3 252 254 255 
3 252 255 256 
3 252 256 257 
3 258 259 260 
3 258 260 261 
3 262 263 264 
3 262 264 265 
3 262 266 267 
3 262 267 263 
3 262 265 268 
3 262 268 266 
3 268 269 270 
3 268 270 266 
3 270 271 267 
3 270 267 266 
3 271 272 273 
3 271 273 267 
3 273 272 274 
3 273 274 275 
3 273 275 252 
3 273 252 257 
3 273 257 263 
3 273 263 267 
3 276 277 278 
3 276 278 279 
3 280 281 282 
3 280 282 283 
3 282 260 259 
3 282 259 283 
3 264 263 257 
3 264 257 256 
3 284 285 279 
3 284 279 278 
3 286 287 288 
3 286 288 289 
3 290 291 286 
3 290 286 289 
3 292 293 294 
3 292 294 295 
3 296 297 298 
3 296 298 299 
3 298 300 301 
3 298 301 299 
3 301 302 296 
3 301 296 299 
3 301 270 269 
3 301 269 302 
3 301 300 271 
3 301 271 270 
3 300 303 272 
3 300 272 271 
3 304 274 272 
3 304 272 303 
3 290 289 304 
3 290 304 303 
3 300 298 290 
3 300 290 303 
3 305 306 277 
3 305 277 276 
3 307 308 281 
3 307 281 280 
3 307 294 293 
3 307 293 308 
3 291 290 298 
3 291 298 297 
3 306 305 309 
3 310 311 312 
3 310 312 313 
3 314 315 310 
3 314 310 313 
3 316 317 318 
3 316 318 319 
3 320 321 322 
3 320 322 323 
3 322 324 325 
3 322 325 323 
3 325 326 320 
3 325 320 323 
3 325 327 328 
3 325 328 326 
3 325 324 329 
3 325 329 327 
3 324 330 331 
3 324 331 329 
3 332 333 331 
3 332 331 330 
3 314 313 332 
3 314 332 330 
3 324 322 314 
3 324 314 330 
3 334 335 336 
3 334 336 337 
3 338 339 340 
3 338 340 341 
3 338 318 317 
3 338 317 339 
3 315 314 322 
3 315 322 321 
3 335 334 342 
3 343 344 345 
3 343 345 346 
3 343 346 347 
3 343 347 348 
3 349 350 351 
3 349 351 352 
3 353 354 355 
3 353 355 356 
3 353 357 358 
3 353 358 354 
3 353 356 359 
3 353 359 357 
3 359 328 327 
3 359 327 357 
3 327 329 358 
3 327 358 357 
3 329 331 360 
3 329 360 358 
3 360 331 333 
3 360 333 361 
3 360 361 343 
3 360 343 348 
3 360 348 354 
3 360 354 358 
3 337 336 362 
3 337 362 363 
3 341 340 364 
3 341 364 365 
3 364 351 350 
3 364 350 365 
3 355 354 348 
3 355 348 347 
3 366 367 363 
3 366 363 362 
3 10 12 14 
3 12 10 11 
3 12 11 368 
3 368 11 369 
3 368 369 370 
3 370 369 371 
3 371 369 372 
3 372 369 373 
3 7 2 6 
3 2 7 0 
3 0 7 374 
3 0 374 375 
3 375 374 376 
3 375 376 377 
3 375 377 378 
3 375 378 379 
3 380 381 382 
3 381 380 383 
3 383 380 384 
3 384 380 385 
3 384 385 15 
3 15 385 386 
3 15 386 14 
3 14 386 10 
3 10 386 387 
3 10 387 8 
3 388 389 390 
3 389 388 391 
3 389 391 392 
3 389 392 393 
3 393 392 4 
3 393 4 394 
3 394 4 6 
3 394 6 2 
3 394 2 395 
3 395 2 3 
3 396 397 398 
3 397 396 399 
3 399 396 400 
3 399 400 401 
3 402 400 396 
3 400 402 403 
3 400 403 404 
3 404 403 405 
3 401 406 399 
3 406 401 407 
3 407 401 408 
3 407 408 409 
3 405 408 404 
3 408 405 409 
3 409 405 410 
3 409 410 411 
