ply
format ascii 1.0
comment VCGLIB generated
comment TextureFile low_poly_tree_texture.png
element vertex 460
property float x
property float y
property float z
property float nx
property float ny
property float nz
property float texture_u
property float texture_v
element face 226
property list uchar int vertex_indices
end_header
1.609149 2.566396 0.6647944 0.7895733 0.4454885 0.4220356 0.8262455 0.2280968
-0.01310065 6.078216 -0.007163925 0.7895733 0.4454885 0.4220356 0.7808645 0.2092994
1.446885 2.566396 0.9683681 0.7895733 0.4454885 0.4220356 0.8217063 0.2365891
1.742809 2.566396 -0.007163352 0.8909766 0.4454884 0.08775354 0.8299845 0.2092994
-0.01310065 6.078216 -0.007163925 0.8909766 0.4454884 0.08775354 0.7808645 0.2092994
1.70907 2.566396 0.3353978 0.8909766 0.4454884 0.08775354 0.8290407 0.2188823
1.70907 2.566396 -0.3497244 0.8909766 0.4454884 -0.08775368 0.8290407 0.1997166
-0.01310065 6.078216 -0.007163925 0.8909766 0.4454884 -0.08775368 0.7808645 0.2092994
1.742809 2.566396 -0.007163352 0.8909766 0.4454884 -0.08775368 0.8299845 0.2092994
1.609149 2.566396 -0.6791211 0.8567368 0.4454882 -0.2598886 0.8262455 0.190502
-0.01310065 6.078216 -0.007163925 0.8567368 0.4454882 -0.2598886 0.7808645 0.2092994
1.70907 2.566396 -0.3497244 0.8567368 0.4454882 -0.2598886 0.8290407 0.1997166
1.446885 2.566396 -0.9826947 0.7895734 0.4454883 -0.4220355 0.8217063 0.1820098
-0.01310065 6.078216 -0.007163925 0.7895734 0.4454883 -0.4220355 0.7808645 0.2092994
1.609149 2.566396 -0.6791211 0.7895734 0.4454883 -0.4220355 0.8262455 0.190502
1.228515 2.566396 -1.248779 0.6920668 0.4454883 -0.5679645 0.8155976 0.1745663
-0.01310065 6.078216 -0.007163925 0.6920668 0.4454883 -0.5679645 0.7808645 0.2092994
1.446885 2.566396 -0.9826947 0.6920668 0.4454883 -0.5679645 0.8217063 0.1820098
0.9624307 2.566396 -1.467149 0.5679643 0.4454884 -0.692067 0.8081541 0.1684576
-0.01310065 6.078216 -0.007163925 0.5679643 0.4454884 -0.692067 0.7808645 0.2092994
1.228515 2.566396 -1.248779 0.5679643 0.4454884 -0.692067 0.8155976 0.1745663
0.3294604 2.566396 -1.729334 0.2598877 0.4454884 -0.8567371 0.7904474 0.1611233
-0.01310065 6.078216 -0.007163925 0.2598877 0.4454884 -0.8567371 0.7808645 0.2092994
0.6588571 2.566396 -1.629413 0.2598877 0.4454884 -0.8567371 0.7996619 0.1639185
-0.01310065 2.566396 -1.763073 0.08775415 0.4454882 -0.8909767 0.7808645 0.1601794
-0.01310065 6.078216 -0.007163925 0.08775415 0.4454882 -0.8909767 0.7808645 0.2092994
0.3294604 2.566396 -1.729334 0.08775415 0.4454882 -0.8909767 0.7904474 0.1611233
0.6588571 2.566396 -1.629413 0.4220365 0.445488 -0.789573 0.7996619 0.1639185
-0.01310065 6.078216 -0.007163925 0.4220365 0.445488 -0.789573 0.7808645 0.2092994
0.9624307 2.566396 -1.467149 0.4220365 0.445488 -0.789573 0.8081541 0.1684576
1.70907 2.566396 0.3353978 0.8567368 0.4454884 0.2598884 0.8290407 0.2188823
-0.01310065 6.078216 -0.007163925 0.8567368 0.4454884 0.2598884 0.7808645 0.2092994
1.609149 2.566396 0.6647944 0.8567368 0.4454884 0.2598884 0.8262455 0.2280968
-0.01310063 4.177109 -1.203066 0.08775291 0.4454882 -0.8909768 0.7808645 0.1601794
-0.01310063 6.568914 -0.007163995 0.08775291 0.4454882 -0.8909768 0.7808645 0.2092994
0.2202084 4.177109 -1.180087 0.08775291 0.4454882 -0.8909768 0.7904474 0.1611233
0.2202084 4.177109 -1.180087 0.2598881 0.4454882 -0.8567371 0.7904474 0.1611233
-0.01310063 6.568914 -0.007163995 0.2598881 0.4454882 -0.8567371 0.7808645 0.2092994
0.4445515 4.177109 -1.112033 0.2598881 0.4454882 -0.8567371 0.7996619 0.1639185
-0.4200242 5.428285 0.6018403 -0.567965 0.4454883 0.6920664 0.7535748 0.2501413
-0.01310062 6.89317 -0.007164052 -0.567965 0.4454883 0.6920664 0.7808645 0.2092994
-0.531016 5.428285 0.5107516 -0.567965 0.4454883 0.6920664 0.7461314 0.2440326
0.4445515 4.177109 -1.112033 0.4220355 0.4454882 -0.7895735 0.7996619 0.1639185
-0.01310063 6.568914 -0.007163995 0.4220355 0.4454882 -0.7895735 0.7808645 0.2092994
0.6513073 4.177109 -1.00152 0.4220355 0.4454882 -0.7895735 0.8081541 0.1684576
0.6513073 4.177109 -1.00152 0.5679637 0.4454885 -0.6920673 0.8081541 0.1684576
-0.01310063 6.568914 -0.007163995 0.5679637 0.4454885 -0.6920673 0.7808645 0.2092994
0.8325301 4.177109 -0.8527943 0.5679637 0.4454885 -0.6920673 0.8155976 0.1745663
0.7193424 5.428285 -0.007163813 0.8909766 0.4454884 0.08775382 0.8299845 0.2092994
-0.01310062 6.89317 -0.007164052 0.8909766 0.4454884 0.08775382 0.7808645 0.2092994
0.7052686 5.428285 0.1357287 0.8909766 0.4454884 0.08775382 0.8290407 0.2188823
0.8325301 4.177109 -0.8527943 0.6920667 0.4454883 -0.5679646 0.8155976 0.1745663
-0.01310063 6.568914 -0.007163995 0.6920667 0.4454883 -0.5679646 0.7808645 0.2092994
0.9812559 4.177109 -0.6715715 0.6920667 0.4454883 -0.5679646 0.8217063 0.1820098
-0.2933944 5.428285 0.6695252 -0.4220372 0.4454881 0.7895726 0.7620671 0.2546804
-0.01310062 6.89317 -0.007164052 -0.4220372 0.4454881 0.7895726 0.7808645 0.2092994
-0.4200242 5.428285 0.6018403 -0.4220372 0.4454881 0.7895726 0.7535748 0.2501413
0.9812559 4.177109 -0.6715715 0.7895734 0.4454882 -0.4220356 0.8217063 0.1820098
-0.01310063 6.568914 -0.007163995 0.7895734 0.4454882 -0.4220356 0.7808645 0.2092994
1.091769 4.177109 -0.4648157 0.7895734 0.4454882 -0.4220356 0.8262455 0.190502
1.091769 4.177109 -0.4648157 0.8567368 0.4454883 -0.2598887 0.8262455 0.190502
-0.01310063 6.568914 -0.007163995 0.8567368 0.4454883 -0.2598887 0.7808645 0.2092994
1.159823 4.177109 -0.2404726 0.8567368 0.4454883 -0.2598887 0.8290407 0.1997166
0.7052686 5.428285 -0.1500563 0.8909767 0.4454883 -0.08775398 0.8290407 0.1997166
-0.01310062 6.89317 -0.007164052 0.8909767 0.4454883 -0.08775398 0.7808645 0.2092994
0.7193424 5.428285 -0.007163813 0.8909767 0.4454883 -0.08775398 0.8299845 0.2092994
1.159823 4.177109 -0.2404726 0.8909766 0.4454884 -0.08775358 0.8290407 0.1997166
-0.01310063 6.568914 -0.007163995 0.8909766 0.4454884 -0.08775358 0.7808645 0.2092994
1.182802 4.177109 -0.007163606 0.8909766 0.4454884 -0.08775358 0.8299845 0.2092994
-0.1559932 5.428285 0.7112054 -0.2598892 0.4454882 0.8567367 0.7712816 0.2574756
-0.01310062 6.89317 -0.007164052 -0.2598892 0.4454882 0.8567367 0.7808645 0.2092994
-0.2933944 5.428285 0.6695252 -0.2598892 0.4454882 0.8567367 0.7620671 0.2546804
1.182802 4.177109 -0.007163606 0.8909766 0.4454885 0.08775343 0.8299845 0.2092994
-0.01310063 6.568914 -0.007163995 0.8909766 0.4454885 0.08775343 0.7808645 0.2092994
1.159823 4.177109 0.2261454 0.8909766 0.4454885 0.08775343 0.8290407 0.2188823
1.159823 4.177109 0.2261454 0.8567369 0.4454883 0.2598886 0.8290407 0.2188823
-0.01310063 6.568914 -0.007163995 0.8567369 0.4454883 0.2598886 0.7808645 0.2092994
1.091769 4.177109 0.4504885 0.8567369 0.4454883 0.2598886 0.8262455 0.2280968
0.6635884 5.428285 -0.2874576 0.8567374 0.4454877 -0.2598879 0.8262455 0.190502
-0.01310062 6.89317 -0.007164052 0.8567374 0.4454877 -0.2598879 0.7808645 0.2092994
0.7052686 5.428285 -0.1500563 0.8567374 0.4454877 -0.2598879 0.8290407 0.1997166
1.091769 4.177109 0.4504885 0.7895732 0.4454886 0.4220355 0.8262455 0.2280968
-0.01310063 6.568914 -0.007163995 0.7895732 0.4454886 0.4220355 0.7808645 0.2092994
0.9812559 4.177109 0.6572443 0.7895732 0.4454886 0.4220355 0.8217063 0.2365891
-0.01310062 5.428285 0.7252792 -0.08775388 0.4454885 0.8909766 0.7808645 0.2584195
-0.01310062 6.89317 -0.007164052 -0.08775388 0.4454885 0.8909766 0.7808645 0.2092994
-0.1559932 5.428285 0.7112054 -0.08775388 0.4454885 0.8909766 0.7712816 0.2574756
0.9812559 4.177109 0.6572443 0.6920667 0.4454886 0.5679644 0.8217063 0.2365891
-0.01310063 6.568914 -0.007163995 0.6920667 0.4454886 0.5679644 0.7808645 0.2092994
0.8325301 4.177109 0.8384672 0.6920667 0.4454886 0.5679644 0.8155976 0.2440326
0.8325301 4.177109 0.8384672 0.5679638 0.4454886 0.6920672 0.8155976 0.2440326
-0.01310063 6.568914 -0.007163995 0.5679638 0.4454886 0.6920672 0.7808645 0.2092994
0.6513073 4.177109 0.987193 0.5679638 0.4454886 0.6920672 0.8081541 0.2501413
0.5959035 5.428285 -0.4140873 0.7895731 0.4454885 -0.4220359 0.8217063 0.1820098
-0.01310062 6.89317 -0.007164052 0.7895731 0.4454885 -0.4220359 0.7808645 0.2092994
0.6635884 5.428285 -0.2874576 0.7895731 0.4454885 -0.4220359 0.8262455 0.190502
0.6513073 4.177109 0.987193 0.4220355 0.4454885 0.7895733 0.8081541 0.2501413
-0.01310063 6.568914 -0.007163995 0.4220355 0.4454885 0.7895733 0.7808645 0.2092994
0.4445515 4.177109 1.097706 0.4220355 0.4454885 0.7895733 0.7996619 0.2546804
0.1297919 5.428285 0.7112054 0.08775389 0.4454885 0.8909766 0.7904474 0.2574756
-0.01310062 6.89317 -0.007164052 0.08775389 0.4454885 0.8909766 0.7808645 0.2092994
-0.01310062 5.428285 0.7252792 0.08775389 0.4454885 0.8909766 0.7808645 0.2584195
0.4445515 4.177109 1.097706 0.2598892 0.4454884 0.8567367 0.7996619 0.2546804
-0.01310063 6.568914 -0.007163995 0.2598892 0.4454884 0.8567367 0.7808645 0.2092994
0.2202084 4.177109 1.16576 0.2598892 0.4454884 0.8567367 0.7904474 0.2574756
0.2202084 4.177109 1.16576 0.08775291 0.4454885 0.8909766 0.7904474 0.2574756
-0.01310063 6.568914 -0.007163995 0.08775291 0.4454885 0.8909766 0.7808645 0.2092994
-0.01310063 4.177109 1.188739 0.08775291 0.4454885 0.8909766 0.7808645 0.2584195
0.5048148 5.428285 -0.5250792 0.692066 0.4454887 -0.5679652 0.8155976 0.1745663
-0.01310062 6.89317 -0.007164052 0.692066 0.4454887 -0.5679652 0.7808645 0.2092994
0.5959035 5.428285 -0.4140873 0.692066 0.4454887 -0.5679652 0.8217063 0.1820098
-0.01310063 4.177109 1.188739 -0.08775291 0.4454885 0.8909766 0.7808645 0.2584195
-0.01310063 6.568914 -0.007163995 -0.08775291 0.4454885 0.8909766 0.7808645 0.2092994
-0.2464096 4.177109 1.16576 -0.08775291 0.4454885 0.8909766 0.7712816 0.2574756
0.2671932 5.428285 0.6695252 0.2598893 0.4454883 0.8567367 0.7996619 0.2546804
-0.01310062 6.89317 -0.007164052 0.2598893 0.4454883 0.8567367 0.7808645 0.2092994
0.1297919 5.428285 0.7112054 0.2598893 0.4454883 0.8567367 0.7904474 0.2574756
-0.2464096 4.177109 1.16576 -0.2598881 0.4454885 0.856737 0.7712816 0.2574756
-0.01310063 6.568914 -0.007163995 -0.2598881 0.4454885 0.856737 0.7808645 0.2092994
-0.4707527 4.177109 1.097706 -0.2598881 0.4454885 0.856737 0.7620671 0.2546804
-0.4707527 4.177109 1.097706 -0.4220354 0.4454885 0.7895734 0.7620671 0.2546804
-0.01310063 6.568914 -0.007163995 -0.4220354 0.4454885 0.7895734 0.7808645 0.2092994
-0.6775085 4.177109 0.987193 -0.4220354 0.4454885 0.7895734 0.7535748 0.2501413
0.3938229 5.428285 -0.6161679 0.567965 0.445488 -0.6920666 0.8081541 0.1684576
-0.01310062 6.89317 -0.007164052 0.567965 0.445488 -0.6920666 0.7808645 0.2092994
0.5048148 5.428285 -0.5250792 0.567965 0.445488 -0.6920666 0.8155976 0.1745663
-0.6775085 4.177109 0.987193 -0.5679638 0.4454888 0.6920671 0.7535748 0.2501413
-0.01310063 6.568914 -0.007163995 -0.5679638 0.4454888 0.6920671 0.7808645 0.2092994
-0.8587314 4.177109 0.8384672 -0.5679638 0.4454888 0.6920671 0.7461314 0.2440326
0.3938229 5.428285 0.6018403 0.422037 0.4454881 0.7895727 0.8081541 0.2501413
-0.01310062 6.89317 -0.007164052 0.422037 0.4454881 0.7895727 0.7808645 0.2092994
0.2671932 5.428285 0.6695252 0.422037 0.4454881 0.7895727 0.7996619 0.2546804
-0.8587314 4.177109 0.8384672 -0.6920667 0.4454885 0.5679644 0.7461314 0.2440326
-0.01310063 6.568914 -0.007163995 -0.6920667 0.4454885 0.5679644 0.7808645 0.2092994
-1.007457 4.177109 0.6572443 -0.6920667 0.4454885 0.5679644 0.7400227 0.2365891
-1.007457 4.177109 0.6572443 -0.7895734 0.4454885 0.4220354 0.7400227 0.2365891
-0.01310063 6.568914 -0.007163995 -0.7895734 0.4454885 0.4220354 0.7808645 0.2092994
-1.11797 4.177109 0.4504885 -0.7895734 0.4454885 0.4220354 0.7354835 0.2280968
0.2671932 5.428285 -0.6838528 0.422037 0.4454877 -0.789573 0.7996619 0.1639185
-0.01310062 6.89317 -0.007164052 0.422037 0.4454877 -0.789573 0.7808645 0.2092994
0.3938229 5.428285 -0.6161679 0.422037 0.4454877 -0.789573 0.8081541 0.1684576
-1.11797 4.177109 0.4504885 -0.8567369 0.4454884 0.2598883 0.7354835 0.2280968
-0.01310063 6.568914 -0.007163995 -0.8567369 0.4454884 0.2598883 0.7808645 0.2092994
-1.186024 4.177109 0.2261454 -0.8567369 0.4454884 0.2598883 0.7326883 0.2188823
0.5048148 5.428285 0.5107516 0.567965 0.4454883 0.6920664 0.8155976 0.2440326
-0.01310062 6.89317 -0.007164052 0.567965 0.4454883 0.6920664 0.7808645 0.2092994
0.3938229 5.428285 0.6018403 0.567965 0.4454883 0.6920664 0.8081541 0.2501413
-1.186024 4.177109 0.2261454 -0.8909766 0.4454885 0.08775372 0.7326883 0.2188823
-0.01310063 6.568914 -0.007163995 -0.8909766 0.4454885 0.08775372 0.7808645 0.2092994
-1.209003 4.177109 -0.007163606 -0.8909766 0.4454885 0.08775372 0.7317444 0.2092994
-1.209003 4.177109 -0.007163606 -0.8909766 0.4454884 -0.08775387 0.7317444 0.2092994
-0.01310063 6.568914 -0.007163995 -0.8909766 0.4454884 -0.08775387 0.7808645 0.2092994
-1.186024 4.177109 -0.2404726 -0.8909766 0.4454884 -0.08775387 0.7326883 0.1997166
0.1297919 5.428285 -0.725533 0.2598892 0.445488 -0.8567368 0.7904474 0.1611233
-0.01310062 6.89317 -0.007164052 0.2598892 0.445488 -0.8567368 0.7808645 0.2092994
0.2671932 5.428285 -0.6838528 0.2598892 0.445488 -0.8567368 0.7996619 0.1639185
-1.186024 4.177109 -0.2404726 -0.8567369 0.4454882 -0.2598884 0.7326883 0.1997166
-0.01310063 6.568914 -0.007163995 -0.8567369 0.4454882 -0.2598884 0.7808645 0.2092994
-1.11797 4.177109 -0.4648157 -0.8567369 0.4454882 -0.2598884 0.7354835 0.190502
0.5959035 5.428285 0.3997597 0.692066 0.4454888 0.567965 0.8217063 0.2365891
-0.01310062 6.89317 -0.007164052 0.692066 0.4454888 0.567965 0.7808645 0.2092994
0.5048148 5.428285 0.5107516 0.692066 0.4454888 0.567965 0.8155976 0.2440326
-1.11797 4.177109 -0.4648157 -0.7895732 0.4454885 -0.4220358 0.7354835 0.190502
-0.01310063 6.568914 -0.007163995 -0.7895732 0.4454885 -0.4220358 0.7808645 0.2092994
-1.007457 4.177109 -0.6715715 -0.7895732 0.4454885 -0.4220358 0.7400227 0.1820098
-1.007457 4.177109 -0.6715715 -0.6920667 0.4454883 -0.5679646 0.7400227 0.1820098
-0.01310063 6.568914 -0.007163995 -0.6920667 0.4454883 -0.5679646 0.7808645 0.2092994
-0.8587314 4.177109 -0.8527943 -0.6920667 0.4454883 -0.5679646 0.7461314 0.1745663
-0.01310062 5.428285 -0.7396068 0.08775389 0.4454882 -0.8909768 0.7808645 0.1601794
-0.01310062 6.89317 -0.007164052 0.08775389 0.4454882 -0.8909768 0.7808645 0.2092994
0.1297919 5.428285 -0.725533 0.08775389 0.4454882 -0.8909768 0.7904474 0.1611233
-0.8587314 4.177109 -0.8527943 -0.5679637 0.4454885 -0.6920673 0.7461314 0.1745663
-0.01310063 6.568914 -0.007163995 -0.5679637 0.4454885 -0.6920673 0.7808645 0.2092994
-0.6775085 4.177109 -1.00152 -0.5679637 0.4454885 -0.6920673 0.7535748 0.1684576
0.6635884 5.428285 0.27313 0.7895736 0.4454883 0.4220352 0.8262455 0.2280968
-0.01310062 6.89317 -0.007164052 0.7895736 0.4454883 0.4220352 0.7808645 0.2092994
0.5959035 5.428285 0.3997597 0.7895736 0.4454883 0.4220352 0.8217063 0.2365891
-0.6775085 4.177109 -1.00152 -0.4220354 0.4454881 -0.7895736 0.7535748 0.1684576
-0.01310063 6.568914 -0.007163995 -0.4220354 0.4454881 -0.7895736 0.7808645 0.2092994
-0.4707527 4.177109 -1.112033 -0.4220354 0.4454881 -0.7895736 0.7620671 0.1639185
-0.4707527 4.177109 -1.112033 -0.2598892 0.4454881 -0.8567368 0.7620671 0.1639185
-0.01310063 6.568914 -0.007163995 -0.2598892 0.4454881 -0.8567368 0.7808645 0.2092994
-0.2464096 4.177109 -1.180087 -0.2598892 0.4454881 -0.8567368 0.7712816 0.1611233
0.7052686 5.428285 0.1357287 0.8567368 0.4454885 0.2598883 0.8290407 0.2188823
-0.01310062 6.89317 -0.007164052 0.8567368 0.4454885 0.2598883 0.7808645 0.2092994
0.6635884 5.428285 0.27313 0.8567368 0.4454885 0.2598883 0.8262455 0.2280968
-0.531016 5.428285 0.5107516 -0.6920667 0.4454883 0.5679645 0.7461314 0.2440326
-0.01310062 6.89317 -0.007164052 -0.6920667 0.4454883 0.5679645 0.7808645 0.2092994
-0.6221047 5.428285 0.3997597 -0.6920667 0.4454883 0.5679645 0.7400227 0.2365891
-0.2464096 4.177109 -1.180087 -0.08775291 0.4454882 -0.8909768 0.7712816 0.1611233
-0.01310063 6.568914 -0.007163995 -0.08775291 0.4454882 -0.8909768 0.7808645 0.2092994
-0.01310063 4.177109 -1.203066 -0.08775291 0.4454882 -0.8909768 0.7808645 0.1601794
-0.6221047 5.428285 0.3997597 -0.7895736 0.4454883 0.4220352 0.7400227 0.2365891
-0.01310062 6.89317 -0.007164052 -0.7895736 0.4454883 0.4220352 0.7808645 0.2092994
-0.6897897 5.428285 0.27313 -0.7895736 0.4454883 0.4220352 0.7354835 0.2280968
-0.6897897 5.428285 0.27313 -0.8567367 0.4454889 0.2598881 0.7354835 0.2280968
-0.01310062 6.89317 -0.007164052 -0.8567367 0.4454889 0.2598881 0.7808645 0.2092994
-0.7314698 5.428285 0.1357287 -0.8567367 0.4454889 0.2598881 0.7326883 0.2188823
-0.7314698 5.428285 0.1357287 -0.8909766 0.4454884 0.08775382 0.7326883 0.2188823
-0.01310062 6.89317 -0.007164052 -0.8909766 0.4454884 0.08775382 0.7808645 0.2092994
-0.7455435 5.428285 -0.007163813 -0.8909766 0.4454884 0.08775382 0.7317444 0.2092994
-0.7455435 5.428285 -0.007163813 -0.8909767 0.4454883 -0.08775398 0.7317444 0.2092994
-0.01310062 6.89317 -0.007164052 -0.8909767 0.4454883 -0.08775398 0.7808645 0.2092994
-0.7314698 5.428285 -0.1500563 -0.8909767 0.4454883 -0.08775398 0.7326883 0.1997166
-0.7314698 5.428285 -0.1500563 -0.8567373 0.445488 -0.2598877 0.7326883 0.1997166
-0.01310062 6.89317 -0.007164052 -0.8567373 0.445488 -0.2598877 0.7808645 0.2092994
-0.6897897 5.428285 -0.2874576 -0.8567373 0.445488 -0.2598877 0.7354835 0.190502
-0.6897897 5.428285 -0.2874576 -0.789573 0.4454885 -0.4220359 0.7354835 0.190502
-0.01310062 6.89317 -0.007164052 -0.789573 0.4454885 -0.4220359 0.7808645 0.2092994
-0.6221047 5.428285 -0.4140873 -0.789573 0.4454885 -0.4220359 0.7400227 0.1820098
-0.6221047 5.428285 -0.4140873 -0.6920659 0.4454887 -0.5679653 0.7400227 0.1820098
-0.01310062 6.89317 -0.007164052 -0.6920659 0.4454887 -0.5679653 0.7808645 0.2092994
-0.531016 5.428285 -0.5250792 -0.6920659 0.4454887 -0.5679653 0.7461314 0.1745663
-0.531016 5.428285 -0.5250792 -0.567965 0.4454881 -0.6920666 0.7461314 0.1745663
-0.01310062 6.89317 -0.007164052 -0.567965 0.4454881 -0.6920666 0.7808645 0.2092994
-0.4200242 5.428285 -0.6161679 -0.567965 0.4454881 -0.6920666 0.7535748 0.1684576
-0.4200242 5.428285 -0.6161679 -0.4220372 0.4454877 -0.7895728 0.7535748 0.1684576
-0.01310062 6.89317 -0.007164052 -0.4220372 0.4454877 -0.7895728 0.7808645 0.2092994
-0.2933944 5.428285 -0.6838528 -0.4220372 0.4454877 -0.7895728 0.7620671 0.1639185
-0.2933944 5.428285 -0.6838528 -0.2598892 0.445488 -0.8567368 0.7620671 0.1639185
-0.01310062 6.89317 -0.007164052 -0.2598892 0.445488 -0.8567368 0.7808645 0.2092994
-0.1559932 5.428285 -0.725533 -0.2598892 0.445488 -0.8567368 0.7712816 0.1611233
-0.1559932 5.428285 -0.725533 -0.08775388 0.4454882 -0.8909767 0.7712816 0.1611233
-0.01310062 6.89317 -0.007164052 -0.08775388 0.4454882 -0.8909767 0.7808645 0.2092994
-0.01310062 5.428285 -0.7396068 -0.08775388 0.4454882 -0.8909767 0.7808645 0.1601794
1.446885 2.566396 0.9683681 0.6920668 0.4454885 0.5679643 0.8217063 0.2365891
-0.01310065 6.078216 -0.007163925 0.6920668 0.4454885 0.5679643 0.7808645 0.2092994
1.228515 2.566396 1.234453 0.6920668 0.4454885 0.5679643 0.8155976 0.2440326
1.228515 2.566396 1.234453 0.5679643 0.4454886 0.6920668 0.8155976 0.2440326
-0.01310065 6.078216 -0.007163925 0.5679643 0.4454886 0.6920668 0.7808645 0.2092994
0.9624307 2.566396 1.452822 0.5679643 0.4454886 0.6920668 0.8081541 0.2501413
0.9624307 2.566396 1.452822 0.4220365 0.4454883 0.7895728 0.8081541 0.2501413
-0.01310065 6.078216 -0.007163925 0.4220365 0.4454883 0.7895728 0.7808645 0.2092994
0.6588571 2.566396 1.615086 0.4220365 0.4454883 0.7895728 0.7996619 0.2546804
0.6588571 2.566396 1.615086 0.2598877 0.4454886 0.856737 0.7996619 0.2546804
-0.01310065 6.078216 -0.007163925 0.2598877 0.4454886 0.856737 0.7808645 0.2092994
0.3294604 2.566396 1.715007 0.2598877 0.4454886 0.856737 0.7904474 0.2574756
0.3294604 2.566396 1.715007 0.08775416 0.4454885 0.8909766 0.7904474 0.2574756
-0.01310065 6.078216 -0.007163925 0.08775416 0.4454885 0.8909766 0.7808645 0.2092994
-0.01310065 2.566396 1.748747 0.08775416 0.4454885 0.8909766 0.7808645 0.2584195
-0.01310065 2.566396 1.748747 -0.08775416 0.4454885 0.8909766 0.7808645 0.2584195
-0.01310065 6.078216 -0.007163925 -0.08775416 0.4454885 0.8909766 0.7808645 0.2092994
-0.3556617 2.566396 1.715007 -0.08775416 0.4454885 0.8909766 0.7712816 0.2574756
-0.3556617 2.566396 1.715007 -0.2598878 0.4454885 0.856737 0.7712816 0.2574756
-0.01310065 6.078216 -0.007163925 -0.2598878 0.4454885 0.856737 0.7808645 0.2092994
-0.6850583 2.566396 1.615086 -0.2598878 0.4454885 0.856737 0.7620671 0.2546804
-0.6850583 2.566396 1.615086 -0.4220363 0.4454883 0.789573 0.7620671 0.2546804
-0.01310065 6.078216 -0.007163925 -0.4220363 0.4454883 0.789573 0.7808645 0.2092994
-0.9886321 2.566396 1.452822 -0.4220363 0.4454883 0.789573 0.7535748 0.2501413
-0.9886321 2.566396 1.452822 -0.5679644 0.4454885 0.6920667 0.7535748 0.2501413
-0.01310065 6.078216 -0.007163925 -0.5679644 0.4454885 0.6920667 0.7808645 0.2092994
-1.254717 2.566396 1.234453 -0.5679644 0.4454885 0.6920667 0.7461314 0.2440326
-1.254717 2.566396 1.234453 -0.6920668 0.4454884 0.5679643 0.7461314 0.2440326
-0.01310065 6.078216 -0.007163925 -0.6920668 0.4454884 0.5679643 0.7808645 0.2092994
-1.473086 2.566396 0.9683681 -0.6920668 0.4454884 0.5679643 0.7400227 0.2365891
-1.473086 2.566396 0.9683681 -0.7895736 0.4454883 0.4220354 0.7400227 0.2365891
-0.01310065 6.078216 -0.007163925 -0.7895736 0.4454883 0.4220354 0.7808645 0.2092994
-1.63535 2.566396 0.6647944 -0.7895736 0.4454883 0.4220354 0.7354835 0.2280968
-1.63535 2.566396 0.6647944 -0.856737 0.4454884 0.2598884 0.7354835 0.2280968
-0.01310065 6.078216 -0.007163925 -0.856737 0.4454884 0.2598884 0.7808645 0.2092994
-1.735271 2.566396 0.3353978 -0.856737 0.4454884 0.2598884 0.7326883 0.2188823
-1.735271 2.566396 0.3353978 -0.8909766 0.4454884 0.08775354 0.7326883 0.2188823
-0.01310065 6.078216 -0.007163925 -0.8909766 0.4454884 0.08775354 0.7808645 0.2092994
-1.769011 2.566396 -0.007163352 -0.8909766 0.4454884 0.08775354 0.7317444 0.2092994
-1.769011 2.566396 -0.007163352 -0.8909766 0.4454884 -0.08775368 0.7317444 0.2092994
-0.01310065 6.078216 -0.007163925 -0.8909766 0.4454884 -0.08775368 0.7808645 0.2092994
-1.735271 2.566396 -0.3497244 -0.8909766 0.4454884 -0.08775368 0.7326883 0.1997166
-1.735271 2.566396 -0.3497244 -0.8567368 0.4454884 -0.2598886 0.7326883 0.1997166
-0.01310065 6.078216 -0.007163925 -0.8567368 0.4454884 -0.2598886 0.7808645 0.2092994
-1.63535 2.566396 -0.6791211 -0.8567368 0.4454884 -0.2598886 0.7354835 0.190502
-1.63535 2.566396 -0.6791211 -0.7895733 0.4454885 -0.4220358 0.7354835 0.190502
-0.01310065 6.078216 -0.007163925 -0.7895733 0.4454885 -0.4220358 0.7808645 0.2092994
-1.473086 2.566396 -0.9826947 -0.7895733 0.4454885 -0.4220358 0.7400227 0.1820098
-1.473086 2.566396 -0.9826947 -0.6920668 0.4454884 -0.5679645 0.7400227 0.1820098
-0.01310065 6.078216 -0.007163925 -0.6920668 0.4454884 -0.5679645 0.7808645 0.2092994
-1.254717 2.566396 -1.248779 -0.6920668 0.4454884 -0.5679645 0.7461314 0.1745663
-1.254717 2.566396 -1.248779 -0.5679644 0.4454883 -0.692067 0.7461314 0.1745663
-0.01310065 6.078216 -0.007163925 -0.5679644 0.4454883 -0.692067 0.7808645 0.2092994
-0.9886321 2.566396 -1.467149 -0.5679644 0.4454883 -0.692067 0.7535748 0.1684576
-0.9886321 2.566396 -1.467149 -0.4220363 0.4454879 -0.7895732 0.7535748 0.1684576
-0.01310065 6.078216 -0.007163925 -0.4220363 0.4454879 -0.7895732 0.7808645 0.2092994
-0.6850583 2.566396 -1.629413 -0.4220363 0.4454879 -0.7895732 0.7620671 0.1639185
-0.6850583 2.566396 -1.629413 -0.2598878 0.4454884 -0.856737 0.7620671 0.1639185
-0.01310065 6.078216 -0.007163925 -0.2598878 0.4454884 -0.856737 0.7808645 0.2092994
-0.3556617 2.566396 -1.729334 -0.2598878 0.4454884 -0.856737 0.7712816 0.1611233
-0.3556617 2.566396 -1.729334 -0.08775415 0.4454882 -0.8909767 0.7712816 0.1611233
-0.01310065 6.078216 -0.007163925 -0.08775415 0.4454882 -0.8909767 0.7808645 0.2092994
-0.01310065 2.566396 -1.763073 -0.08775415 0.4454882 -0.8909767 0.7808645 0.1601794
0 -0.308094 -0.3080939 0.309017 -1.549468e-07 -0.9510565 0.0006675449 0.001373291
0 0.3080939 -0.308094 0.3090169 -1.549468e-07 -0.9510565 0.0006675449 0.1832849
0.1810931 0.3080939 -0.2492533 0.309017 -1.549468e-07 -0.9510565 0.0461455 0.1832849
0.1810931 -0.308094 -0.2492532 0.3090169 -1.549468e-07 -0.9510565 0.0461455 0.001373291
0.1810931 -0.308094 -0.2492532 0.809017 -9.576238e-08 -0.5877853 0.0461455 0.001373291
0.1810931 0.3080939 -0.2492533 0.8090169 -9.576237e-08 -0.5877852 0.0461455 0.1832849
0.2930148 0.3080939 -0.09520633 0.809017 -9.576238e-08 -0.5877853 0.1023593 0.1832849
0.2930148 -0.308094 -0.09520622 0.8090169 -9.576237e-08 -0.5877852 0.1023593 0.001373291
0.2930148 -0.308094 -0.09520622 1 0 0 0.1023593 0.001373291
0.2930148 0.3080939 -0.09520633 1 0 0 0.1023593 0.1832849
0.2930148 0.308094 0.09520622 1 0 0 0.1478373 0.1832849
0.2930148 -0.3080939 0.09520633 1 0 0 0.1478373 0.001373291
0.2930148 -0.3080939 0.09520633 0.809017 9.576238e-08 0.5877853 0.295007 0.001373291
0.2930148 0.308094 0.09520622 0.8090169 9.576237e-08 0.5877852 0.295007 0.1832849
0.1810931 0.308094 0.2492532 0.809017 9.576238e-08 0.5877853 0.3512208 0.1832849
0.1810931 -0.3080939 0.2492533 0.8090169 9.576237e-08 0.5877852 0.3512208 0.001373291
0.1810931 -0.3080939 0.2492533 0.309017 1.549468e-07 0.9510565 0.3512208 0.001373291
0.1810931 0.308094 0.2492532 0.3090169 1.549468e-07 0.9510565 0.3512208 0.1832849
0 0.308094 0.3080939 0.309017 1.549468e-07 0.9510565 0.3966987 0.1832849
0 -0.3080939 0.308094 0.3090169 1.549468e-07 0.9510565 0.3966987 0.001373291
0 -0.3080939 0.308094 -0.309017 1.549468e-07 0.9510565 0.1478373 0.001373291
0 0.308094 0.3080939 -0.3090169 1.549468e-07 0.9510565 0.1478373 0.1832849
-0.1810931 0.308094 0.2492532 -0.309017 1.549468e-07 0.9510565 0.1933152 0.1832849
-0.1810931 -0.3080939 0.2492533 -0.3090169 1.549468e-07 0.9510565 0.1933152 0.001373291
-0.1810931 -0.3080939 0.2492533 -0.809017 9.576238e-08 0.5877853 0.1933152 0.001373291
-0.1810931 0.308094 0.2492532 -0.8090169 9.576237e-08 0.5877852 0.1933152 0.1832849
-0.2930148 0.308094 0.09520622 -0.809017 9.576238e-08 0.5877853 0.249529 0.1832849
-0.2930148 -0.3080939 0.09520633 -0.8090169 9.576237e-08 0.5877852 0.249529 0.001373291
-0.2930148 -0.3080939 0.09520633 -1 0 -0 0.249529 0.001373291
-0.2930148 0.308094 0.09520622 -1 0 -0 0.249529 0.1832849
-0.2930148 0.3080939 -0.09520633 -1 0 -0 0.2950069 0.1832849
-0.2930148 -0.308094 -0.09520622 -1 0 -0 0.2950069 0.001373291
0.1810931 0.308094 0.2492532 0.8090169 9.57624e-08 0.5877854 0.3512208 0.1832849
0.2930148 0.308094 0.09520622 0.8090169 9.57624e-08 0.5877854 0.295007 0.1832849
0.2930148 2.753149 0.09520583 0.8090169 9.57624e-08 0.5877854 0.295007 0.9051171
0.1810931 2.753149 0.2492528 0.8090169 9.57624e-08 0.5877854 0.3512208 0.9051171
-0.2930148 -0.308094 -0.09520622 -0.809017 -9.576238e-08 -0.5877853 0.3966987 0.001373291
-0.2930148 0.3080939 -0.09520633 -0.8090169 -9.576237e-08 -0.5877852 0.3966987 0.1832849
-0.1810931 0.3080939 -0.2492533 -0.809017 -9.576238e-08 -0.5877853 0.4529125 0.1832849
-0.1810931 -0.308094 -0.2492532 -0.8090169 -9.576237e-08 -0.5877852 0.4529125 0.001373291
-0.1810931 -0.308094 -0.2492532 -0.309017 -1.549468e-07 -0.9510565 0.4529125 0.001373291
-0.1810931 0.3080939 -0.2492533 -0.3090169 -1.549468e-07 -0.9510565 0.4529125 0.1832849
0 0.3080939 -0.308094 -0.309017 -1.549468e-07 -0.9510565 0.4983905 0.1832849
0 -0.308094 -0.3080939 -0.3090169 -1.549468e-07 -0.9510565 0.4983905 0.001373291
0.1810931 0.3080939 -0.2492533 0.309017 -1.549468e-07 -0.9510565 0.0461455 0.1832849
0 0.3080939 -0.308094 0.309017 -1.549468e-07 -0.9510565 0.0006675449 0.1832849
0 2.753149 -0.3080944 0.309017 -1.549468e-07 -0.9510565 0.0006675449 0.9051171
0.1810931 2.753149 -0.2492537 0.309017 -1.549468e-07 -0.9510565 0.0461455 0.9051171
0.2930148 2.753149 -0.09520672 1 0 0 0.1023593 0.9051171
0.2930148 2.753149 0.09520583 1 0 0 0.1478373 0.9051171
0.2930148 0.3080939 -0.09520633 0.8090169 -9.57624e-08 -0.5877854 0.1023593 0.1832849
0.1810931 0.3080939 -0.2492533 0.8090169 -9.57624e-08 -0.5877854 0.0461455 0.1832849
0.1810931 2.753149 -0.2492537 0.8090169 -9.57624e-08 -0.5877854 0.0461455 0.9051171
0.2930148 2.753149 -0.09520672 0.8090169 -9.57624e-08 -0.5877854 0.1023593 0.9051171
0 0.3080939 -0.308094 -0.309017 -1.549468e-07 -0.9510565 0.4983905 0.1832849
-0.1810931 0.3080939 -0.2492533 -0.309017 -1.549468e-07 -0.9510565 0.4529125 0.1832849
-0.1810931 2.753149 -0.2492537 -0.309017 -1.549468e-07 -0.9510565 0.4529125 0.9051171
0 2.753149 -0.3080944 -0.309017 -1.549468e-07 -0.9510565 0.4983905 0.9051171
-0.1810931 0.3080939 -0.2492533 -0.8090169 -9.57624e-08 -0.5877854 0.4529125 0.1832849
-0.2930148 0.3080939 -0.09520633 -0.8090169 -9.57624e-08 -0.5877854 0.3966987 0.1832849
-0.2930148 2.753149 -0.09520672 -0.8090169 -9.57624e-08 -0.5877854 0.3966987 0.9051171
-0.1810931 2.753149 -0.2492537 -0.8090169 -9.57624e-08 -0.5877854 0.4529125 0.9051171
-0.2930148 2.753149 0.09520583 -1 0 -0 0.249529 0.9051171
-0.2930148 2.753149 -0.09520672 -1 0 -0 0.2950069 0.9051171
-0.2930148 0.308094 0.09520622 -0.8090169 9.57624e-08 0.5877854 0.249529 0.1832849
-0.1810931 0.308094 0.2492532 -0.8090169 9.57624e-08 0.5877854 0.1933152 0.1832849
-0.1810931 2.753149 0.2492528 -0.8090169 9.57624e-08 0.5877854 0.1933152 0.9051171
-0.2930148 2.753149 0.09520583 -0.8090169 9.57624e-08 0.5877854 0.249529 0.9051171
-0.1810931 0.308094 0.2492532 -0.309017 1.549468e-07 0.9510565 0.1933152 0.1832849
0 0.308094 0.3080939 -0.309017 1.549468e-07 0.9510565 0.1478373 0.1832849
0 2.753149 0.3080935 -0.309017 1.549468e-07 0.9510565 0.1478373 0.9051171
-0.1810931 2.753149 0.2492528 -0.309017 1.549468e-07 0.9510565 0.1933152 0.9051171
0 0.308094 0.3080939 0.309017 1.549468e-07 0.9510565 0.3966987 0.1832849
0.1810931 0.308094 0.2492532 0.309017 1.549468e-07 0.9510565 0.3512208 0.1832849
0.1810931 2.753149 0.2492528 0.309017 1.549468e-07 0.9510565 0.3512208 0.9051171
0 2.753149 0.3080935 0.309017 1.549468e-07 0.9510565 0.3966987 0.9051171
-0.01310063 4.177109 -1.203066 -1.52083e-07 -1 1.629207e-07 0.8831979 0.1601794
0.2202084 4.177109 -1.180087 -1.52083e-07 -1 1.629207e-07 0.8927808 0.1611233
0.4445515 4.177109 -1.112033 -1.52083e-07 -1 1.629207e-07 0.9019953 0.1639185
0.6513073 4.177109 -1.00152 -1.52083e-07 -1 1.629207e-07 0.9104875 0.1684576
0.8325301 4.177109 -0.8527943 -1.52083e-07 -1 1.629207e-07 0.9179311 0.1745663
0.9812559 4.177109 -0.6715715 -1.52083e-07 -1 1.629207e-07 0.9240397 0.1820098
1.091769 4.177109 -0.4648157 -1.52083e-07 -1 1.629207e-07 0.928579 0.190502
1.159823 4.177109 -0.2404726 -1.52083e-07 -1 1.629207e-07 0.9313742 0.1997166
1.182802 4.177109 -0.007163606 -1.52083e-07 -1 1.629207e-07 0.932318 0.2092994
1.159823 4.177109 0.2261454 -1.52083e-07 -1 1.629207e-07 0.9313742 0.2188823
1.091769 4.177109 0.4504885 -1.52083e-07 -1 1.629207e-07 0.928579 0.2280968
0.9812559 4.177109 0.6572443 -1.52083e-07 -1 1.629207e-07 0.9240397 0.2365891
0.8325301 4.177109 0.8384672 -1.52083e-07 -1 1.629207e-07 0.9179311 0.2440326
0.6513073 4.177109 0.987193 -1.52083e-07 -1 1.629207e-07 0.9104875 0.2501413
0.4445515 4.177109 1.097706 -1.52083e-07 -1 1.629207e-07 0.9019953 0.2546804
0.2202084 4.177109 1.16576 -1.52083e-07 -1 1.629207e-07 0.8927808 0.2574756
-0.01310063 4.177109 1.188739 -1.52083e-07 -1 1.629207e-07 0.8831979 0.2584195
-0.2464096 4.177109 1.16576 -1.52083e-07 -1 1.629207e-07 0.873615 0.2574756
-0.4707527 4.177109 1.097706 -1.52083e-07 -1 1.629207e-07 0.8644005 0.2546804
-0.6775085 4.177109 0.987193 -1.52083e-07 -1 1.629207e-07 0.8559083 0.2501413
-0.8587314 4.177109 0.8384672 -1.52083e-07 -1 1.629207e-07 0.8484648 0.2440326
-1.007457 4.177109 0.6572443 -1.52083e-07 -1 1.629207e-07 0.8423561 0.2365891
-1.11797 4.177109 0.4504885 -1.52083e-07 -1 1.629207e-07 0.837817 0.2280968
-1.186024 4.177109 0.2261454 -1.52083e-07 -1 1.629207e-07 0.8350217 0.2188823
-1.209003 4.177109 -0.007163606 -1.52083e-07 -1 1.629207e-07 0.8340778 0.2092994
-1.186024 4.177109 -0.2404726 -1.52083e-07 -1 1.629207e-07 0.8350217 0.1997166
-1.11797 4.177109 -0.4648157 -1.52083e-07 -1 1.629207e-07 0.837817 0.190502
-1.007457 4.177109 -0.6715715 -1.52083e-07 -1 1.629207e-07 0.8423561 0.1820098
-0.8587314 4.177109 -0.8527943 -1.52083e-07 -1 1.629207e-07 0.8484648 0.1745663
-0.6775085 4.177109 -1.00152 -1.52083e-07 -1 1.629207e-07 0.8559083 0.1684576
-0.4707527 4.177109 -1.112033 -1.52083e-07 -1 1.629207e-07 0.8644005 0.1639185
-0.2464096 4.177109 -1.180087 -1.52083e-07 -1 1.629207e-07 0.873615 0.1611233
0.6635884 5.428285 0.27313 0 -1 1.629207e-07 0.928579 0.2280968
0.5959035 5.428285 0.3997597 0 -1 1.629207e-07 0.9240397 0.2365891
0.5048148 5.428285 0.5107516 0 -1 1.629207e-07 0.9179311 0.2440326
0.3938229 5.428285 0.6018403 0 -1 1.629207e-07 0.9104875 0.2501413
0.2671932 5.428285 0.6695252 0 -1 1.629207e-07 0.9019953 0.2546804
0.1297919 5.428285 0.7112054 0 -1 1.629207e-07 0.8927808 0.2574756
-0.01310062 5.428285 0.7252792 0 -1 1.629207e-07 0.8831979 0.2584195
-0.1559932 5.428285 0.7112054 0 -1 1.629207e-07 0.873615 0.2574756
-0.2933944 5.428285 0.6695252 0 -1 1.629207e-07 0.8644005 0.2546804
-0.4200242 5.428285 0.6018403 0 -1 1.629207e-07 0.8559083 0.2501413
-0.531016 5.428285 0.5107516 0 -1 1.629207e-07 0.8484648 0.2440326
-0.6221047 5.428285 0.3997597 0 -1 1.629207e-07 0.8423561 0.2365891
-0.6897897 5.428285 0.27313 0 -1 1.629207e-07 0.837817 0.2280968
-0.7314698 5.428285 0.1357287 0 -1 1.629207e-07 0.8350217 0.2188823
-0.7455435 5.428285 -0.007163813 0 -1 1.629207e-07 0.8340778 0.2092994
-0.7314698 5.428285 -0.1500563 0 -1 1.629207e-07 0.8350217 0.1997166
-0.6897897 5.428285 -0.2874576 0 -1 1.629207e-07 0.837817 0.190502
-0.6221047 5.428285 -0.4140873 0 -1 1.629207e-07 0.8423561 0.1820098
-0.531016 5.428285 -0.5250792 0 -1 1.629207e-07 0.8484648 0.1745663
-0.4200242 5.428285 -0.6161679 0 -1 1.629207e-07 0.8559083 0.1684576
-0.2933944 5.428285 -0.6838528 0 -1 1.629207e-07 0.8644005 0.1639185
-0.1559932 5.428285 -0.725533 0 -1 1.629207e-07 0.873615 0.1611233
-0.01310062 5.428285 -0.7396068 0 -1 1.629207e-07 0.8831979 0.1601794
0.1297919 5.428285 -0.725533 0 -1 1.629207e-07 0.8927808 0.1611233
0.2671932 5.428285 -0.6838528 0 -1 1.629207e-07 0.9019953 0.1639185
0.3938229 5.428285 -0.6161679 0 -1 1.629207e-07 0.9104875 0.1684576
0.5048148 5.428285 -0.5250792 0 -1 1.629207e-07 0.9179311 0.1745663
0.5959035 5.428285 -0.4140873 0 -1 1.629207e-07 0.9240397 0.1820098
0.6635884 5.428285 -0.2874576 0 -1 1.629207e-07 0.928579 0.190502
0.7052686 5.428285 -0.1500563 0 -1 1.629207e-07 0.9313742 0.1997166
0.7193424 5.428285 -0.007163813 0 -1 1.629207e-07 0.932318 0.2092994
0.7052686 5.428285 0.1357287 0 -1 1.629207e-07 0.9313742 0.2188823
1.609149 2.566396 0.6647944 0 -1 1.629207e-07 0.928579 0.2280968
1.446885 2.566396 0.9683681 0 -1 1.629207e-07 0.9240397 0.2365891
1.228515 2.566396 1.234453 0 -1 1.629207e-07 0.9179311 0.2440326
0.9624307 2.566396 1.452822 0 -1 1.629207e-07 0.9104875 0.2501413
0.6588571 2.566396 1.615086 0 -1 1.629207e-07 0.9019953 0.2546804
0.3294604 2.566396 1.715007 0 -1 1.629207e-07 0.8927808 0.2574756
-0.01310065 2.566396 1.748747 0 -1 1.629207e-07 0.8831979 0.2584195
-0.3556617 2.566396 1.715007 0 -1 1.629207e-07 0.873615 0.2574756
-0.6850583 2.566396 1.615086 0 -1 1.629207e-07 0.8644005 0.2546804
-0.9886321 2.566396 1.452822 0 -1 1.629207e-07 0.8559083 0.2501413
-1.254717 2.566396 1.234453 0 -1 1.629207e-07 0.8484648 0.2440326
-1.473086 2.566396 0.9683681 0 -1 1.629207e-07 0.8423561 0.2365891
-1.63535 2.566396 0.6647944 0 -1 1.629207e-07 0.837817 0.2280968
-1.735271 2.566396 0.3353978 0 -1 1.629207e-07 0.8350217 0.2188823
-1.769011 2.566396 -0.007163352 0 -1 1.629207e-07 0.8340778 0.2092994
-1.735271 2.566396 -0.3497244 0 -1 1.629207e-07 0.8350217 0.1997166
-1.63535 2.566396 -0.6791211 0 -1 1.629207e-07 0.837817 0.190502
-1.473086 2.566396 -0.9826947 0 -1 1.629207e-07 0.8423561 0.1820098
-1.254717 2.566396 -1.248779 0 -1 1.629207e-07 0.8484648 0.1745663
-0.9886321 2.566396 -1.467149 0 -1 1.629207e-07 0.8559083 0.1684576
-0.6850583 2.566396 -1.629413 0 -1 1.629207e-07 0.8644005 0.1639185
-0.3556617 2.566396 -1.729334 0 -1 1.629207e-07 0.873615 0.1611233
-0.01310065 2.566396 -1.763073 0 -1 1.629207e-07 0.8831979 0.1601794
0.3294604 2.566396 -1.729334 0 -1 1.629207e-07 0.8927808 0.1611233
0.6588571 2.566396 -1.629413 0 -1 1.629207e-07 0.9019953 0.1639185
0.9624307 2.566396 -1.467149 0 -1 1.629207e-07 0.9104875 0.1684576
1.228515 2.566396 -1.248779 0 -1 1.629207e-07 0.9179311 0.1745663
1.446885 2.566396 -0.9826947 0 -1 1.629207e-07 0.9240397 0.1820098
1.609149 2.566396 -0.6791211 0 -1 1.629207e-07 0.928579 0.190502
1.70907 2.566396 -0.3497244 0 -1 1.629207e-07 0.9313742 0.1997166
1.742809 2.566396 -0.007163352 0 -1 1.629207e-07 0.932318 0.2092994
1.70907 2.566396 0.3353978 0 -1 1.629207e-07 0.9313742 0.2188823
3 0 1 2 
3 3 4 5 
3 6 7 8 
3 9 10 11 
3 12 13 14 
3 15 16 17 
3 18 19 20 
3 21 22 23 
3 24 25 26 
3 27 28 29 
3 30 31 32 
3 33 34 35 
3 36 37 38 
3 39 40 41 
3 42 43 44 
3 45 46 47 
3 48 49 50 
3 51 52 53 
3 54 55 56 
3 57 58 59 
3 60 61 62 
3 63 64 65 
3 66 67 68 
3 69 70 71 
3 72 73 74 
3 75 76 77 
3 78 79 80 
3 81 82 83 
3 84 85 86 
3 87 88 89 
3 90 91 92 
3 93 94 95 
3 96 97 98 
3 99 100 101 
3 102 103 104 
3 105 106 107 
3 108 109 110 
3 111 112 113 
3 114 115 116 
3 117 118 119 
3 120 121 122 
3 123 124 125 
3 126 127 128 
3 129 130 131 
3 132 133 134 
3 135 136 137 
3 138 139 140 
3 141 142 143 
3 144 145 146 
3 147 148 149 
3 150 151 152 
3 153 154 155 
3 156 157 158 
3 159 160 161 
3 162 163 164 
3 165 166 167 
3 168 169 170 
3 171 172 173 
3 174 175 176 
3 177 178 179 
3 180 181 182 
3 183 184 185 
3 186 187 188 
3 189 190 191 
3 192 193 194 
3 195 196 197 
3 198 199 200 
3 201 202 203 
3 204 205 206 
3 207 208 209 
3 210 211 212 
3 213 214 215 
3 216 217 218 
3 219 220 221 
3 222 223 224 
3 225 226 227 
3 228 229 230 
3 231 232 233 
3 234 235 236 
3 237 238 239 
3 240 241 242 
3 243 244 245 
3 246 247 248 
3 249 250 251 
3 252 253 254 
3 255 256 257 
3 258 259 260 
3 261 262 263 
3 264 265 266 
3 267 268 269 
3 270 271 272 
3 273 274 275 
3 276 277 278 
3 279 280 281 
3 282 283 284 
3 285 286 287 
3 288 289 290 
3 288 290 291 
3 292 293 294 
3 292 294 295 
3 296 297 298 
3 296 298 299 
3 300 301 302 
3 300 302 303 
3 304 305 306 
3 304 306 307 
3 308 309 310 
3 308 310 311 
3 312 313 314 
3 312 314 315 
3 316 317 318 
3 316 318 319 
3 320 321 322 
3 320 322 323 
3 324 325 326 
3 324 326 327 
3 328 329 330 
3 328 330 331 
3 332 333 334 
3 332 334 335 
3 298 297 336 
3 298 336 337 
3 338 339 340 
3 338 340 341 
3 342 343 344 
3 342 344 345 
3 346 347 348 
3 346 348 349 
3 318 317 350 
3 318 350 351 
3 352 353 354 
3 352 354 355 
3 356 357 358 
3 356 358 359 
3 360 361 362 
3 360 362 363 
3 389 387 388 
3 387 389 390 
3 387 390 386 
3 386 390 391 
3 386 391 385 
3 385 391 392 
3 385 392 384 
3 384 392 393 
3 384 393 383 
3 383 393 394 
3 383 394 382 
3 382 394 395 
3 382 395 381 
3 381 395 364 
3 381 364 380 
3 380 364 365 
3 380 365 379 
3 379 365 366 
3 379 366 378 
3 378 366 367 
3 378 367 377 
3 377 367 368 
3 377 368 376 
3 376 368 369 
3 376 369 375 
3 375 369 370 
3 375 370 374 
3 374 370 371 
3 374 371 373 
3 373 371 372 
3 411 409 410 
3 409 411 412 
3 409 412 408 
3 408 412 413 
3 408 413 407 
3 407 413 414 
3 407 414 406 
3 406 414 415 
3 406 415 405 
3 405 415 416 
3 405 416 404 
3 404 416 417 
3 404 417 403 
3 403 417 418 
3 403 418 402 
3 402 418 419 
3 402 419 401 
3 401 419 420 
3 401 420 400 
3 400 420 421 
3 400 421 399 
3 399 421 422 
3 399 422 398 
3 398 422 423 
3 398 423 397 
3 397 423 424 
3 397 424 396 
3 396 424 425 
3 396 425 427 
3 427 425 426 
3 443 441 442 
3 441 443 444 
3 441 444 440 
3 440 444 445 
3 440 445 439 
3 439 445 446 
3 439 446 438 
3 438 446 447 
3 438 447 437 
3 437 447 448 
3 437 448 436 
3 436 448 449 
3 436 449 435 
3 435 449 450 
3 435 450 434 
3 434 450 451 
3 434 451 433 
3 433 451 452 
3 433 452 432 
3 432 452 453 
3 432 453 431 
3 431 453 454 
3 431 454 430 
3 430 454 455 
3 430 455 429 
3 429 455 456 
3 429 456 428 
3 428 456 457 
3 428 457 459 
3 459 457 458 
