ply
format ascii 1.0
comment VCGLIB generated
element vertex 441
property float x
property float y
property float z
property float nx
property float ny
property float nz
property float texture_u
property float texture_v
element face 768
property list uchar int vertex_indices
end_header
-100 -1 100 -1 0 0 1 0
-100 1 -100 -0.8944272 0.4472136 0 0 0
-100 -1 -100 -1 0 0 0 0
-100 1 100 -0.4472136 0.8944272 0 1 0
100 1 -100 0.3333333 0.6666667 -0.6666667 0 1
100 1 100 0.8164966 0.4082483 0.4082483 1 1
100 -1 -100 0.8164966 -0.4082483 -0.4082483 0 1
100 -1 100 0.3333333 -0.6666667 0.6666667 1 1
-100 -1 -100 0 -1 0 0 0
-100 -1 -100 0 0 -1 0 0
-100 1 -100 0 0 -1 0 0
-100 1 100 0 0 1 1 0
-100 -1 100 0 -1 0 1 0
-100 -1 100 0 0 1 1 0
-100 0 0 -1 0 0 0.5 0
-100 0 -100 -1 0 0 0 0
-100 -1 0 -1 0 0 0.5 0
0 1 0 0 1 0 0.5 0.5
0 1 -100 0 1 0 0 0.5
-100 1 0 -0.7071068 0.7071068 0 0.5 0
100 0 0 1 0 0 0.5 1
100 0 -100 0.7071068 0 -0.7071068 0 1
100 1 0 0.7071068 0.7071068 0 0.5 1
0 -1 0 0 -1 0 0.5 0.5
0 -1 -100 0 -1 0 0 0.5
100 -1 0 0.7071068 -0.7071068 0 0.5 1
0 0 -100 0 0 -1 0 0.5
-100 0 -100 0 0 -1 0 0
0 1 -100 0 0 -1 0 0.5
0 0 100 0 0 1 1 0.5
100 0 100 0.7071068 0 0.7071068 1 1
0 1 100 0 0 1 1 0.5
-100 0 100 -1 0 0 1 0
0 1 100 0 1 0 1 0.5
0 -1 100 0 -1 0 1 0.5
-100 -1 0 0 -1 0 0.5 0
0 -1 -100 0 0 -1 0 0.5
-100 0 100 0 0 1 1 0
0 -1 100 0 0 1 1 0.5
-100 0 -50 -1 0 0 0.25 0
-100 -0.5 -50 -1 0 0 0.25 0
-100 -0.5 0 -1 0 0 0.5 0
0 1 -50 0 1 0 0.25 0.5
-50 1 -50 0 1 0 0.25 0.25
-50 1 0 0 1 0 0.5 0.25
100 0 -50 1 0 0 0.25 1
100 0.5 -50 1 0 0 0.25 1
100 0.5 0 1 0 0 0.5 1
0 -1 -50 0 -1 0 0.25 0.5
50 -1 -50 0 -1 0 0.25 0.75
50 -1 0 0 -1 0 0.5 0.75
-50 0 -100 0 0 -1 0 0.25
-50 0.5 -100 0 0 -1 0 0.25
0 0.5 -100 0 0 -1 0 0.5
50 0 100 0 0 1 1 0.75
50 0.5 100 0 0 1 1 0.75
0 0.5 100 0 0 1 1 0.5
-100 0.5 50 -1 0 0 0.75 0
-100 0.5 0 -1 0 0 0.5 0
-100 0 50 -1 0 0 0.75 0
50 1 50 0 1 0 0.75 0.75
50 1 0 0 1 0 0.5 0.75
0 1 50 0 1 0 0.75 0.5
100 -0.5 50 1 0 0 0.75 1
100 -0.5 0 1 0 0 0.5 1
100 0 50 1 0 0 0.75 1
-50 -1 50 0 -1 0 0.75 0.25
-50 -1 0 0 -1 0 0.5 0.25
0 -1 50 0 -1 0 0.75 0.5
50 -0.5 -100 0 0 -1 0 0.75
0 -0.5 -100 0 0 -1 0 0.5
50 0 -100 0 0 -1 0 0.75
-50 -0.5 100 0 0 1 1 0.25
0 -0.5 100 0 0 1 1 0.5
-50 0 100 0 0 1 1 0.25
-100 -0.5 50 -1 0 0 0.75 0
-100 -1 50 -1 0 0 0.75 0
-100 0.5 -50 -1 0 0 0.25 0
-100 0.5 -100 -1 0 0 0 0
-100 -0.5 -100 -1 0 0 0 0
-100 -1 -50 -1 0 0 0.25 0
-50 1 50 0 1 0 0.75 0.25
-100 1 50 -0.7071068 0.7071068 0 0.75 0
50 1 -50 0 1 0 0.25 0.75
50 1 -100 0 1 0 0 0.75
-50 1 -100 0 1 0 0 0.25
-100 1 -50 -0.7071068 0.7071068 0 0.25 0
100 0.5 50 1 0 0 0.75 1
100 1 50 0.7071068 0.7071068 0 0.75 1
100 -0.5 -50 1 0 0 0.25 1
100 -0.5 -100 0.7071068 0 -0.7071068 0 1
100 0.5 -100 0.7071068 0 -0.7071068 0 1
100 1 -50 0.7071068 0.7071068 0 0.25 1
50 -1 50 0 -1 0 0.75 0.75
100 -1 50 0.7071068 -0.7071068 0 0.75 1
-50 -1 -50 0 -1 0 0.25 0.25
-50 -1 -100 0 -1 0 0 0.25
50 -1 -100 0 -1 0 0 0.75
100 -1 -50 0.7071068 -0.7071068 0 0.25 1
50 0.5 -100 0 0 -1 0 0.75
50 1 -100 0 0 -1 0 0.75
-50 -0.5 -100 0 0 -1 0 0.25
-100 -0.5 -100 0 0 -1 0 0
-100 0.5 -100 0 0 -1 0 0
-50 1 -100 0 0 -1 0 0.25
-50 0.5 100 0 0 1 1 0.25
-50 1 100 0 0 1 1 0.25
50 -0.5 100 0 0 1 1 0.75
100 -0.5 100 0.7071068 0 0.7071068 1 1
100 0.5 100 0.7071068 0 0.7071068 1 1
50 1 100 0 0 1 1 0.75
-100 -0.5 100 -1 0 0 1 0
-100 0.5 100 -1 0 0 1 0
-50 1 100 0 1 0 1 0.25
50 1 100 0 1 0 1 0.75
50 -1 100 0 -1 0 1 0.75
-50 -1 100 0 -1 0 1 0.25
-100 -1 50 0 -1 0 0.75 0
-100 -1 -50 0 -1 0 0.25 0
50 -1 -100 0 0 -1 0 0.75
-50 -1 -100 0 0 -1 0 0.25
-100 0.5 100 0 0 1 1 0
-100 -0.5 100 0 0 1 1 0
-50 -1 100 0 0 1 1 0.25
50 -1 100 0 0 1 1 0.75
-100 -0.25 -50 -1 0 0 0.25 0
-100 -0.5 -25 -1 0 0 0.375 0
-100 -0.25 -25 -1 0 0 0.375 0
-25 1 -50 0 1 0 0.25 0.375
-50 1 -25 0 1 0 0.375 0.25
-25 1 -25 0 1 0 0.375 0.375
100 0.25 -50 1 0 0 0.25 1
100 0.5 -25 1 0 0 0.375 1
100 0.25 -25 1 0 0 0.375 1
25 -1 -50 0 -1 0 0.25 0.625
50 -1 -25 0 -1 0 0.375 0.75
25 -1 -25 0 -1 0 0.375 0.625
-50 0.25 -100 0 0 -1 0 0.25
-25 0.5 -100 0 0 -1 0 0.375
-25 0.25 -100 0 0 -1 0 0.375
50 0.25 100 0 0 1 1 0.75
25 0.5 100 0 0 1 1 0.625
25 0.25 100 0 0 1 1 0.625
-100 0.5 25 -1 0 0 0.625 0
-100 0.25 25 -1 0 0 0.625 0
-100 0.25 50 -1 0 0 0.75 0
50 1 25 0 1 0 0.625 0.75
25 1 25 0 1 0 0.625 0.625
25 1 50 0 1 0 0.75 0.625
100 -0.5 25 1 0 0 0.625 1
100 -0.25 25 1 0 0 0.625 1
100 -0.25 50 1 0 0 0.75 1
-50 -1 25 0 -1 0 0.625 0.25
-25 -1 25 0 -1 0 0.625 0.375
-25 -1 50 0 -1 0 0.75 0.375
25 -0.5 -100 0 0 -1 0 0.625
25 -0.25 -100 0 0 -1 0 0.625
50 -0.25 -100 0 0 -1 0 0.75
-25 -0.5 100 0 0 1 1 0.375
-25 -0.25 100 0 0 1 1 0.375
-50 -0.25 100 0 0 1 1 0.25
-100 -0.5 25 -1 0 0 0.625 0
-100 -0.75 25 -1 0 0 0.625 0
-100 -0.75 50 -1 0 0 0.75 0
-100 0.5 -75 -1 0 0 0.125 0
-100 0.25 -75 -1 0 0 0.125 0
-100 0.25 -50 -1 0 0 0.25 0
-100 -0.5 -75 -1 0 0 0.125 0
-100 -0.75 -75 -1 0 0 0.125 0
-100 -0.75 -50 -1 0 0 0.25 0
-50 1 25 0 1 0 0.625 0.25
-75 1 25 0 1 0 0.625 0.125
-75 1 50 0 1 0 0.75 0.125
50 1 -75 0 1 0 0.125 0.75
25 1 -75 0 1 0 0.125 0.625
25 1 -50 0 1 0 0.25 0.625
-50 1 -75 0 1 0 0.125 0.25
-75 1 -75 0 1 0 0.125 0.125
-75 1 -50 0 1 0 0.25 0.125
100 0.5 25 1 0 0 0.625 1
100 0.75 25 1 0 0 0.625 1
100 0.75 50 1 0 0 0.75 1
100 -0.5 -75 1 0 0 0.125 1
100 -0.25 -75 1 0 0 0.125 1
100 -0.25 -50 1 0 0 0.25 1
100 0.5 -75 1 0 0 0.125 1
100 0.75 -75 1 0 0 0.125 1
100 0.75 -50 1 0 0 0.25 1
50 -1 25 0 -1 0 0.625 0.75
75 -1 25 0 -1 0 0.625 0.875
75 -1 50 0 -1 0 0.75 0.875
-50 -1 -75 0 -1 0 0.125 0.25
-25 -1 -75 0 -1 0 0.125 0.375
-25 -1 -50 0 -1 0 0.25 0.375
50 -1 -75 0 -1 0 0.125 0.75
75 -1 -75 0 -1 0 0.125 0.875
75 -1 -50 0 -1 0 0.25 0.875
25 0.5 -100 0 0 -1 0 0.625
25 0.75 -100 0 0 -1 0 0.625
50 0.75 -100 0 0 -1 0 0.75
-75 -0.5 -100 0 0 -1 0 0.125
-75 -0.25 -100 0 0 -1 0 0.125
-50 -0.25 -100 0 0 -1 0 0.25
-75 0.5 -100 0 0 -1 0 0.125
-75 0.75 -100 0 0 -1 0 0.125
-50 0.75 -100 0 0 -1 0 0.25
-25 0.5 100 0 0 1 1 0.375
-25 0.75 100 0 0 1 1 0.375
-50 0.75 100 0 0 1 1 0.25
75 -0.5 100 0 0 1 1 0.875
75 -0.25 100 0 0 1 1 0.875
50 -0.25 100 0 0 1 1 0.75
75 0.5 100 0 0 1 1 0.875
75 0.75 100 0 0 1 1 0.875
50 0.75 100 0 0 1 1 0.75
-100 -0.25 75 -1 0 0 0.875 0
-100 -0.25 50 -1 0 0 0.75 0
-100 -0.5 75 -1 0 0 0.875 0
-100 0.75 75 -1 0 0 0.875 0
-100 0.75 50 -1 0 0 0.75 0
-100 0.5 75 -1 0 0 0.875 0
-100 0.75 -25 -1 0 0 0.375 0
-100 0.75 -50 -1 0 0 0.25 0
-100 0.5 -25 -1 0 0 0.375 0
-25 1 75 0 1 0 0.875 0.375
-25 1 50 0 1 0 0.75 0.375
-50 1 75 0 1 0 0.875 0.25
75 1 75 0 1 0 0.875 0.875
75 1 50 0 1 0 0.75 0.875
50 1 75 0 1 0 0.875 0.75
75 1 -25 0 1 0 0.375 0.875
75 1 -50 0 1 0 0.25 0.875
50 1 -25 0 1 0 0.375 0.75
100 0.25 75 1 0 0 0.875 1
100 0.25 50 1 0 0 0.75 1
100 0.5 75 1 0 0 0.875 1
100 -0.75 75 1 0 0 0.875 1
100 -0.75 50 1 0 0 0.75 1
100 -0.5 75 1 0 0 0.875 1
100 -0.75 -25 1 0 0 0.375 1
100 -0.75 -50 1 0 0 0.25 1
100 -0.5 -25 1 0 0 0.375 1
25 -1 75 0 -1 0 0.875 0.625
25 -1 50 0 -1 0 0.75 0.625
50 -1 75 0 -1 0 0.875 0.75
-75 -1 75 0 -1 0 0.875 0.125
-75 -1 50 0 -1 0 0.75 0.125
-50 -1 75 0 -1 0 0.875 0.25
-75 -1 -25 0 -1 0 0.375 0.125
-75 -1 -50 0 -1 0 0.25 0.125
-50 -1 -25 0 -1 0 0.375 0.25
75 0.25 -100 0 0 -1 0 0.875
50 0.25 -100 0 0 -1 0 0.75
75 0.5 -100 0 0 -1 0 0.875
75 -0.75 -100 0 0 -1 0 0.875
50 -0.75 -100 0 0 -1 0 0.75
75 -0.5 -100 0 0 -1 0 0.875
-25 -0.75 -100 0 0 -1 0 0.375
-50 -0.75 -100 0 0 -1 0 0.25
-25 -0.5 -100 0 0 -1 0 0.375
-75 0.25 100 0 0 1 1 0.125
-50 0.25 100 0 0 1 1 0.25
-75 0.5 100 0 0 1 1 0.125
-75 -0.75 100 0 0 1 1 0.125
-50 -0.75 100 0 0 1 1 0.25
-75 -0.5 100 0 0 1 1 0.125
25 -0.75 100 0 0 1 1 0.625
50 -0.75 100 0 0 1 1 0.75
25 -0.5 100 0 0 1 1 0.625
-100 0 -25 -1 0 0 0.375 0
-100 -0.25 0 -1 0 0 0.5 0
-100 0 -75 -1 0 0 0.125 0
-100 -0.25 -75 -1 0 0 0.125 0
-100 -0.75 -25 -1 0 0 0.375 0
-100 -0.75 0 -1 0 0 0.5 0
0 1 -25 0 1 0 0.375 0.5
-25 1 0 0 1 0 0.5 0.375
0 1 -75 0 1 0 0.125 0.5
-25 1 -75 0 1 0 0.125 0.375
-75 1 -25 0 1 0 0.375 0.125
-75 1 0 0 1 0 0.5 0.125
100 0 -25 1 0 0 0.375 1
100 0.25 0 1 0 0 0.5 1
100 0 -75 1 0 0 0.125 1
100 0.25 -75 1 0 0 0.125 1
100 0.75 -25 1 0 0 0.375 1
100 0.75 0 1 0 0 0.5 1
0 -1 -25 0 -1 0 0.375 0.5
25 -1 0 0 -1 0 0.5 0.625
0 -1 -75 0 -1 0 0.125 0.5
25 -1 -75 0 -1 0 0.125 0.625
75 -1 -25 0 -1 0 0.375 0.875
75 -1 0 0 -1 0 0.5 0.875
-25 0 -100 0 0 -1 0 0.375
0 0.25 -100 0 0 -1 0 0.5
-75 0 -100 0 0 -1 0 0.125
-75 0.25 -100 0 0 -1 0 0.125
-25 0.75 -100 0 0 -1 0 0.375
0 0.75 -100 0 0 -1 0 0.5
25 0 100 0 0 1 1 0.625
0 0.25 100 0 0 1 1 0.5
75 0 100 0 0 1 1 0.875
75 0.25 100 0 0 1 1 0.875
25 0.75 100 0 0 1 1 0.625
0 0.75 100 0 0 1 1 0.5
-100 0.25 75 -1 0 0 0.875 0
-100 0 75 -1 0 0 0.875 0
-100 0.75 25 -1 0 0 0.625 0
-100 0.75 0 -1 0 0 0.5 0
-100 0.25 0 -1 0 0 0.5 0
-100 0 25 -1 0 0 0.625 0
25 1 75 0 1 0 0.875 0.625
0 1 75 0 1 0 0.875 0.5
75 1 25 0 1 0 0.625 0.875
75 1 0 0 1 0 0.5 0.875
25 1 0 0 1 0 0.5 0.625
0 1 25 0 1 0 0.625 0.5
100 -0.25 75 1 0 0 0.875 1
100 0 75 1 0 0 0.875 1
100 -0.75 25 1 0 0 0.625 1
100 -0.75 0 1 0 0 0.5 1
100 -0.25 0 1 0 0 0.5 1
100 0 25 1 0 0 0.625 1
-25 -1 75 0 -1 0 0.875 0.375
0 -1 75 0 -1 0 0.875 0.5
-75 -1 25 0 -1 0 0.625 0.125
-75 -1 0 0 -1 0 0.5 0.125
-25 -1 0 0 -1 0 0.5 0.375
0 -1 25 0 -1 0 0.625 0.5
75 -0.25 -100 0 0 -1 0 0.875
75 0 -100 0 0 -1 0 0.875
25 -0.75 -100 0 0 -1 0 0.625
0 -0.75 -100 0 0 -1 0 0.5
0 -0.25 -100 0 0 -1 0 0.5
25 0 -100 0 0 -1 0 0.625
-75 -0.25 100 0 0 1 1 0.125
-75 0 100 0 0 1 1 0.125
-25 -0.75 100 0 0 1 1 0.375
0 -0.75 100 0 0 1 1 0.5
0 -0.25 100 0 0 1 1 0.5
-25 0 100 0 0 1 1 0.375
-100 -0.75 75 -1 0 0 0.875 0
-100 -1 75 -1 0 0 0.875 0
-100 -0.25 25 -1 0 0 0.625 0
-100 -1 25 -1 0 0 0.625 0
-100 0.25 -25 -1 0 0 0.375 0
-100 0.75 -75 -1 0 0 0.125 0
-100 0.75 -100 -1 0 0 0 0
-100 0.25 -100 -1 0 0 0 0
-100 -1 -25 -1 0 0 0.375 0
-100 -0.25 -100 -1 0 0 0 0
-100 -0.75 -100 -1 0 0 0 0
-100 -1 -75 -1 0 0 0.125 0
-75 1 75 0 1 0 0.875 0.125
-100 1 75 -0.7071068 0.7071068 0 0.875 0
-25 1 25 0 1 0 0.625 0.375
-100 1 25 -0.7071068 0.7071068 0 0.625 0
25 1 -25 0 1 0 0.375 0.625
75 1 -75 0 1 0 0.125 0.875
75 1 -100 0 1 0 0 0.875
25 1 -100 0 1 0 0 0.625
-100 1 -25 -0.7071068 0.7071068 0 0.375 0
-25 1 -100 0 1 0 0 0.375
-75 1 -100 0 1 0 0 0.125
-100 1 -75 -0.7071068 0.7071068 0 0.125 0
100 0.75 75 1 0 0 0.875 1
100 1 75 0.7071068 0.7071068 0 0.875 1
100 0.25 25 1 0 0 0.625 1
100 1 25 0.7071068 0.7071068 0 0.625 1
100 -0.25 -25 1 0 0 0.375 1
100 -0.75 -75 1 0 0 0.125 1
100 -0.75 -100 0.7071068 0 -0.7071068 0 1
100 -0.25 -100 0.7071068 0 -0.7071068 0 1
100 1 -25 0.7071068 0.7071068 0 0.375 1
100 0.25 -100 0.7071068 0 -0.7071068 0 1
100 0.75 -100 0.7071068 0 -0.7071068 0 1
100 1 -75 0.7071068 0.7071068 0 0.125 1
75 -1 75 0 -1 0 0.875 0.875
100 -1 75 0.7071068 -0.7071068 0 0.875 1
25 -1 25 0 -1 0 0.625 0.625
100 -1 25 0.7071068 -0.7071068 0 0.625 1
-25 -1 -25 0 -1 0 0.375 0.375
-75 -1 -75 0 -1 0 0.125 0.125
-75 -1 -100 0 -1 0 0 0.125
-25 -1 -100 0 -1 0 0 0.375
100 -1 -25 0.7071068 -0.7071068 0 0.375 1
25 -1 -100 0 -1 0 0 0.625
75 -1 -100 0 -1 0 0 0.875
100 -1 -75 0.7071068 -0.7071068 0 0.125 1
75 0.75 -100 0 0 -1 0 0.875
75 1 -100 0 0 -1 0 0.875
25 0.25 -100 0 0 -1 0 0.625
25 1 -100 0 0 -1 0 0.625
-25 -0.25 -100 0 0 -1 0 0.375
-75 -0.75 -100 0 0 -1 0 0.125
-100 -0.75 -100 0 0 -1 0 0
-100 -0.25 -100 0 0 -1 0 0
-25 1 -100 0 0 -1 0 0.375
-100 0.25 -100 0 0 -1 0 0
-100 0.75 -100 0 0 -1 0 0
-75 1 -100 0 0 -1 0 0.125
-75 0.75 100 0 0 1 1 0.125
-75 1 100 0 0 1 1 0.125
-25 0.25 100 0 0 1 1 0.375
-25 1 100 0 0 1 1 0.375
25 -0.25 100 0 0 1 1 0.625
75 -0.75 100 0 0 1 1 0.875
100 -0.75 100 0.7071068 0 0.7071068 1 1
100 -0.25 100 0.7071068 0 0.7071068 1 1
25 1 100 0 0 1 1 0.625
100 0.25 100 0.7071068 0 0.7071068 1 1
100 0.75 100 0.7071068 0 0.7071068 1 1
75 1 100 0 0 1 1 0.875
-100 -0.75 100 -1 0 0 1 0
-100 -0.25 100 -1 0 0 1 0
-100 0.25 100 -1 0 0 1 0
-100 0.75 100 -1 0 0 1 0
-75 1 100 0 1 0 1 0.125
-25 1 100 0 1 0 1 0.375
25 1 100 0 1 0 1 0.625
75 1 100 0 1 0 1 0.875
75 -1 100 0 -1 0 1 0.875
25 -1 100 0 -1 0 1 0.625
-25 -1 100 0 -1 0 1 0.375
-75 -1 100 0 -1 0 1 0.125
-100 -1 75 0 -1 0 0.875 0
-100 -1 25 0 -1 0 0.625 0
-100 -1 -25 0 -1 0 0.375 0
-100 -1 -75 0 -1 0 0.125 0
75 -1 -100 0 0 -1 0 0.875
25 -1 -100 0 0 -1 0 0.625
-25 -1 -100 0 0 -1 0 0.375
-75 -1 -100 0 0 -1 0 0.125
-100 0.75 100 0 0 1 1 0
-100 0.25 100 0 0 1 1 0
-100 -0.25 100 0 0 1 1 0
-100 -0.75 100 0 0 1 1 0
-75 -1 100 0 0 1 1 0.125
-25 -1 100 0 0 1 1 0.375
25 -1 100 0 0 1 1 0.625
75 -1 100 0 0 1 1 0.875
3 125 126 127 
3 128 129 130 
3 131 132 133 
3 134 135 136 
3 137 138 139 
3 140 141 142 
3 143 144 145 
3 146 147 148 
3 149 150 151 
3 152 153 154 
3 155 156 157 
3 158 159 160 
3 161 162 163 
3 164 165 166 
3 167 168 169 
3 170 171 172 
3 173 174 175 
3 176 177 178 
3 179 180 181 
3 182 183 184 
3 185 186 187 
3 188 189 190 
3 191 192 193 
3 194 195 196 
3 197 198 199 
3 200 201 202 
3 203 204 205 
3 206 207 208 
3 209 210 211 
3 212 213 214 
3 215 216 217 
3 218 219 220 
3 221 222 223 
3 224 225 226 
3 227 228 229 
3 230 231 232 
3 233 234 235 
3 236 237 238 
3 239 240 241 
3 242 243 244 
3 245 246 247 
3 248 249 250 
3 251 252 253 
3 254 255 256 
3 257 258 259 
3 260 261 262 
3 263 264 265 
3 266 267 268 
3 269 127 270 
3 271 272 125 
3 126 273 274 
3 275 130 276 
3 277 278 128 
3 129 279 280 
3 281 133 282 
3 283 284 131 
3 132 285 286 
3 287 136 288 
3 289 290 134 
3 135 291 292 
3 293 139 294 
3 295 296 137 
3 138 297 298 
3 299 142 300 
3 301 302 140 
3 141 303 304 
3 305 145 306 
3 307 308 143 
3 144 309 310 
3 311 148 312 
3 313 314 146 
3 147 315 316 
3 317 151 318 
3 319 320 149 
3 150 321 322 
3 323 154 324 
3 325 326 152 
3 153 327 328 
3 329 157 330 
3 331 332 155 
3 156 333 334 
3 335 160 336 
3 337 338 158 
3 159 339 340 
3 341 163 342 
3 343 270 161 
3 162 274 344 
3 345 166 269 
3 346 347 164 
3 165 348 271 
3 273 169 349 
3 272 350 167 
3 168 351 352 
3 353 172 354 
3 355 276 170 
3 171 280 356 
3 357 175 275 
3 358 359 173 
3 174 360 277 
3 279 178 361 
3 278 362 176 
3 177 363 364 
3 365 181 366 
3 367 282 179 
3 180 286 368 
3 369 184 281 
3 370 371 182 
3 183 372 283 
3 285 187 373 
3 284 374 185 
3 186 375 376 
3 377 190 378 
3 379 288 188 
3 189 292 380 
3 381 193 287 
3 382 383 191 
3 192 384 289 
3 291 196 385 
3 290 386 194 
3 195 387 388 
3 389 199 390 
3 391 294 197 
3 198 298 392 
3 393 202 293 
3 394 395 200 
3 201 396 295 
3 297 205 397 
3 296 398 203 
3 204 399 400 
3 401 208 402 
3 403 300 206 
3 207 304 404 
3 405 211 299 
3 406 407 209 
3 210 408 301 
3 303 214 409 
3 302 410 212 
3 213 411 412 
3 413 217 341 
3 414 306 215 
3 216 310 343 
3 415 220 305 
3 416 354 218 
3 219 356 307 
3 309 223 345 
3 308 361 221 
3 222 364 346 
3 417 226 353 
3 418 312 224 
3 225 316 355 
3 419 229 311 
3 420 366 227 
3 228 368 313 
3 315 232 357 
3 314 373 230 
3 231 376 358 
3 411 235 365 
3 410 318 233 
3 234 322 367 
3 408 238 317 
3 407 378 236 
3 237 380 319 
3 321 241 369 
3 320 385 239 
3 240 388 370 
3 421 244 377 
3 422 324 242 
3 243 328 379 
3 423 247 323 
3 424 425 245 
3 246 426 325 
3 327 250 381 
3 326 427 248 
3 249 428 382 
3 375 253 389 
3 374 330 251 
3 252 334 391 
3 372 256 329 
3 371 429 254 
3 255 430 331 
3 333 259 393 
3 332 431 257 
3 258 432 394 
3 433 262 401 
3 434 336 260 
3 261 340 403 
3 435 265 335 
3 436 437 263 
3 264 438 337 
3 339 268 405 
3 338 439 266 
3 267 440 406 
3 39 125 127 
3 125 40 126 
3 127 126 41 
3 42 128 130 
3 128 43 129 
3 130 129 44 
3 45 131 133 
3 131 46 132 
3 133 132 47 
3 48 134 136 
3 134 49 135 
3 136 135 50 
3 51 137 139 
3 137 52 138 
3 139 138 53 
3 54 140 142 
3 140 55 141 
3 142 141 56 
3 57 143 145 
3 143 58 144 
3 145 144 59 
3 60 146 148 
3 146 61 147 
3 148 147 62 
3 63 149 151 
3 149 64 150 
3 151 150 65 
3 66 152 154 
3 152 67 153 
3 154 153 68 
3 69 155 157 
3 155 70 156 
3 157 156 71 
3 72 158 160 
3 158 73 159 
3 160 159 74 
3 75 161 163 
3 161 41 162 
3 163 162 76 
3 77 164 166 
3 164 78 165 
3 166 165 39 
3 40 167 169 
3 167 79 168 
3 169 168 80 
3 81 170 172 
3 170 44 171 
3 172 171 82 
3 83 173 175 
3 173 84 174 
3 175 174 42 
3 43 176 178 
3 176 85 177 
3 178 177 86 
3 87 179 181 
3 179 47 180 
3 181 180 88 
3 89 182 184 
3 182 90 183 
3 184 183 45 
3 46 185 187 
3 185 91 186 
3 187 186 92 
3 93 188 190 
3 188 50 189 
3 190 189 94 
3 95 191 193 
3 191 96 192 
3 193 192 48 
3 49 194 196 
3 194 97 195 
3 196 195 98 
3 99 197 199 
3 197 53 198 
3 199 198 100 
3 101 200 202 
3 200 102 201 
3 202 201 51 
3 52 203 205 
3 203 103 204 
3 205 204 104 
3 105 206 208 
3 206 56 207 
3 208 207 106 
3 107 209 211 
3 209 108 210 
3 211 210 54 
3 55 212 214 
3 212 109 213 
3 214 213 110 
3 111 215 217 
3 215 59 216 
3 217 216 75 
3 112 218 220 
3 218 82 219 
3 220 219 57 
3 58 221 223 
3 221 86 222 
3 223 222 77 
3 113 224 226 
3 224 62 225 
3 226 225 81 
3 114 227 229 
3 227 88 228 
3 229 228 60 
3 61 230 232 
3 230 92 231 
3 232 231 83 
3 109 233 235 
3 233 65 234 
3 235 234 87 
3 108 236 238 
3 236 94 237 
3 238 237 63 
3 64 239 241 
3 239 98 240 
3 241 240 89 
3 115 242 244 
3 242 68 243 
3 244 243 93 
3 116 245 247 
3 245 117 246 
3 247 246 66 
3 67 248 250 
3 248 118 249 
3 250 249 95 
3 91 251 253 
3 251 71 252 
3 253 252 99 
3 90 254 256 
3 254 119 255 
3 256 255 69 
3 70 257 259 
3 257 120 258 
3 259 258 101 
3 121 260 262 
3 260 74 261 
3 262 261 105 
3 122 263 265 
3 263 123 264 
3 265 264 72 
3 73 266 268 
3 266 124 267 
3 268 267 107 
3 14 269 270 
3 269 39 127 
3 270 127 41 
3 39 271 125 
3 271 15 272 
3 125 272 40 
3 41 126 274 
3 126 40 273 
3 274 273 16 
3 17 275 276 
3 275 42 130 
3 276 130 44 
3 42 277 128 
3 277 18 278 
3 128 278 43 
3 44 129 280 
3 129 43 279 
3 280 279 19 
3 20 281 282 
3 281 45 133 
3 282 133 47 
3 45 283 131 
3 283 21 284 
3 131 284 46 
3 47 132 286 
3 132 46 285 
3 286 285 22 
3 23 287 288 
3 287 48 136 
3 288 136 50 
3 48 289 134 
3 289 24 290 
3 134 290 49 
3 50 135 292 
3 135 49 291 
3 292 291 25 
3 26 293 294 
3 293 51 139 
3 294 139 53 
3 51 295 137 
3 295 27 296 
3 137 296 52 
3 53 138 298 
3 138 52 297 
3 298 297 28 
3 29 299 300 
3 299 54 142 
3 300 142 56 
3 54 301 140 
3 301 30 302 
3 140 302 55 
3 56 141 304 
3 141 55 303 
3 304 303 31 
3 32 305 306 
3 305 57 145 
3 306 145 59 
3 57 307 143 
3 307 19 308 
3 143 308 58 
3 59 144 310 
3 144 58 309 
3 310 309 14 
3 33 311 312 
3 311 60 148 
3 312 148 62 
3 60 313 146 
3 313 22 314 
3 146 314 61 
3 62 147 316 
3 147 61 315 
3 316 315 17 
3 30 317 318 
3 317 63 151 
3 318 151 65 
3 63 319 149 
3 319 25 320 
3 149 320 64 
3 65 150 322 
3 150 64 321 
3 322 321 20 
3 34 323 324 
3 323 66 154 
3 324 154 68 
3 66 325 152 
3 325 35 326 
3 152 326 67 
3 68 153 328 
3 153 67 327 
3 328 327 23 
3 21 329 330 
3 329 69 157 
3 330 157 71 
3 69 331 155 
3 331 36 332 
3 155 332 70 
3 71 156 334 
3 156 70 333 
3 334 333 26 
3 37 335 336 
3 335 72 160 
3 336 160 74 
3 72 337 158 
3 337 38 338 
3 158 338 73 
3 74 159 340 
3 159 73 339 
3 340 339 29 
3 0 341 342 
3 341 75 163 
3 342 163 76 
3 75 343 161 
3 343 14 270 
3 161 270 41 
3 76 162 344 
3 162 41 274 
3 344 274 16 
3 14 345 269 
3 345 77 166 
3 269 166 39 
3 77 346 164 
3 346 1 347 
3 164 347 78 
3 39 165 271 
3 165 78 348 
3 271 348 15 
3 16 273 349 
3 273 40 169 
3 349 169 80 
3 40 272 167 
3 272 15 350 
3 167 350 79 
3 80 168 352 
3 168 79 351 
3 352 351 2 
3 3 353 354 
3 353 81 172 
3 354 172 82 
3 81 355 170 
3 355 17 276 
3 170 276 44 
3 82 171 356 
3 171 44 280 
3 356 280 19 
3 17 357 275 
3 357 83 175 
3 275 175 42 
3 83 358 173 
3 358 4 359 
3 173 359 84 
3 42 174 277 
3 174 84 360 
3 277 360 18 
3 19 279 361 
3 279 43 178 
3 361 178 86 
3 43 278 176 
3 278 18 362 
3 176 362 85 
3 86 177 364 
3 177 85 363 
3 364 363 1 
3 5 365 366 
3 365 87 181 
3 366 181 88 
3 87 367 179 
3 367 20 282 
3 179 282 47 
3 88 180 368 
3 180 47 286 
3 368 286 22 
3 20 369 281 
3 369 89 184 
3 281 184 45 
3 89 370 182 
3 370 6 371 
3 182 371 90 
3 45 183 283 
3 183 90 372 
3 283 372 21 
3 22 285 373 
3 285 46 187 
3 373 187 92 
3 46 284 185 
3 284 21 374 
3 185 374 91 
3 92 186 376 
3 186 91 375 
3 376 375 4 
3 7 377 378 
3 377 93 190 
3 378 190 94 
3 93 379 188 
3 379 23 288 
3 188 288 50 
3 94 189 380 
3 189 50 292 
3 380 292 25 
3 23 381 287 
3 381 95 193 
3 287 193 48 
3 95 382 191 
3 382 8 383 
3 191 383 96 
3 48 192 289 
3 192 96 384 
3 289 384 24 
3 25 291 385 
3 291 49 196 
3 385 196 98 
3 49 290 194 
3 290 24 386 
3 194 386 97 
3 98 195 388 
3 195 97 387 
3 388 387 6 
3 4 389 390 
3 389 99 199 
3 390 199 100 
3 99 391 197 
3 391 26 294 
3 197 294 53 
3 100 198 392 
3 198 53 298 
3 392 298 28 
3 26 393 293 
3 393 101 202 
3 293 202 51 
3 101 394 200 
3 394 9 395 
3 200 395 102 
3 51 201 295 
3 201 102 396 
3 295 396 27 
3 28 297 397 
3 297 52 205 
3 397 205 104 
3 52 296 203 
3 296 27 398 
3 203 398 103 
3 104 204 400 
3 204 103 399 
3 400 399 10 
3 11 401 402 
3 401 105 208 
3 402 208 106 
3 105 403 206 
3 403 29 300 
3 206 300 56 
3 106 207 404 
3 207 56 304 
3 404 304 31 
3 29 405 299 
3 405 107 211 
3 299 211 54 
3 107 406 209 
3 406 7 407 
3 209 407 108 
3 54 210 301 
3 210 108 408 
3 301 408 30 
3 31 303 409 
3 303 55 214 
3 409 214 110 
3 55 302 212 
3 302 30 410 
3 212 410 109 
3 110 213 412 
3 213 109 411 
3 412 411 5 
3 0 413 341 
3 413 111 217 
3 341 217 75 
3 111 414 215 
3 414 32 306 
3 215 306 59 
3 75 216 343 
3 216 59 310 
3 343 310 14 
3 32 415 305 
3 415 112 220 
3 305 220 57 
3 112 416 218 
3 416 3 354 
3 218 354 82 
3 57 219 307 
3 219 82 356 
3 307 356 19 
3 14 309 345 
3 309 58 223 
3 345 223 77 
3 58 308 221 
3 308 19 361 
3 221 361 86 
3 77 222 346 
3 222 86 364 
3 346 364 1 
3 3 417 353 
3 417 113 226 
3 353 226 81 
3 113 418 224 
3 418 33 312 
3 224 312 62 
3 81 225 355 
3 225 62 316 
3 355 316 17 
3 33 419 311 
3 419 114 229 
3 311 229 60 
3 114 420 227 
3 420 5 366 
3 227 366 88 
3 60 228 313 
3 228 88 368 
3 313 368 22 
3 17 315 357 
3 315 61 232 
3 357 232 83 
3 61 314 230 
3 314 22 373 
3 230 373 92 
3 83 231 358 
3 231 92 376 
3 358 376 4 
3 5 411 365 
3 411 109 235 
3 365 235 87 
3 109 410 233 
3 410 30 318 
3 233 318 65 
3 87 234 367 
3 234 65 322 
3 367 322 20 
3 30 408 317 
3 408 108 238 
3 317 238 63 
3 108 407 236 
3 407 7 378 
3 236 378 94 
3 63 237 319 
3 237 94 380 
3 319 380 25 
3 20 321 369 
3 321 64 241 
3 369 241 89 
3 64 320 239 
3 320 25 385 
3 239 385 98 
3 89 240 370 
3 240 98 388 
3 370 388 6 
3 7 421 377 
3 421 115 244 
3 377 244 93 
3 115 422 242 
3 422 34 324 
3 242 324 68 
3 93 243 379 
3 243 68 328 
3 379 328 23 
3 34 423 323 
3 423 116 247 
3 323 247 66 
3 116 424 245 
3 424 12 425 
3 245 425 117 
3 66 246 325 
3 246 117 426 
3 325 426 35 
3 23 327 381 
3 327 67 250 
3 381 250 95 
3 67 326 248 
3 326 35 427 
3 248 427 118 
3 95 249 382 
3 249 118 428 
3 382 428 8 
3 4 375 389 
3 375 91 253 
3 389 253 99 
3 91 374 251 
3 374 21 330 
3 251 330 71 
3 99 252 391 
3 252 71 334 
3 391 334 26 
3 21 372 329 
3 372 90 256 
3 329 256 69 
3 90 371 254 
3 371 6 429 
3 254 429 119 
3 69 255 331 
3 255 119 430 
3 331 430 36 
3 26 333 393 
3 333 70 259 
3 393 259 101 
3 70 332 257 
3 332 36 431 
3 257 431 120 
3 101 258 394 
3 258 120 432 
3 394 432 9 
3 11 433 401 
3 433 121 262 
3 401 262 105 
3 121 434 260 
3 434 37 336 
3 260 336 74 
3 105 261 403 
3 261 74 340 
3 403 340 29 
3 37 435 335 
3 435 122 265 
3 335 265 72 
3 122 436 263 
3 436 13 437 
3 263 437 123 
3 72 264 337 
3 264 123 438 
3 337 438 38 
3 29 339 405 
3 339 73 268 
3 405 268 107 
3 73 338 266 
3 338 38 439 
3 266 439 124 
3 107 267 406 
3 267 124 440 
3 406 440 7 
