ply
format ascii 1.0
comment VCGLIB generated
comment TextureFile dummy.png
element vertex 42
property float x
property float y
property float z
property float nx
property float ny
property float nz
property float texture_u
property float texture_v
element face 40
property list uchar int vertex_indices
end_header
62.49999 80.9647 11.31674 -4.069173e-09 0.6848336 0.7286994 62.49999 80.9647
62.49999 247.7088 11.04685 9.875349e-09 -0.5558088 0.8313102 62.49999 247.7088
-62.50001 247.7088 11.04685 7.190838e-10 -0.5558088 0.8313102 -62.50001 247.7088
-62.50001 80.9647 11.31674 -1.122989e-08 0.6848338 0.7286994 -62.50001 80.9647
-62.50001 273.2396 24.60899 0 -0.5542445 0.8323539 -62.50001 273.2396
62.49999 273.2396 24.60899 0 -0.5542442 0.8323541 62.49999 273.2396
62.49999 274.5485 24.99995 0 -0.1443495 0.9895268 62.49999 274.5485
-62.50001 274.5485 24.99995 0 -0.1443497 0.9895267 -62.50001 274.5485
-62.50001 270.5882 21.37112 0 -0.4468253 0.8946213 -62.50001 270.5882
-62.50001 266.6078 21.20473 1.996982e-08 -0.256963 0.9664213 -62.50001 266.6078
62.49999 266.6078 21.20473 0 -0.2569634 0.9664212 62.49999 266.6078
62.49999 270.5882 21.37112 0 -0.4468251 0.8946214 62.49999 270.5882
62.49999 323.6908 24.97295 0 0.2049438 0.9787738 62.49999 323.6908
-62.50001 323.6908 24.97295 0 0.2049435 0.9787738 -62.50001 323.6908
-62.50001 4.805578e-05 24.89859 0 -0.7073259 0.7068875 -62.50001 4.805578e-05
62.49999 4.805578e-05 24.89859 0 -0.7073261 0.7068875 62.49999 4.805578e-05
62.49999 8.405269 24.9038 0 0.3589517 0.9333562 62.49999 8.405269
-62.50001 8.405269 24.9038 0 0.3589502 0.9333568 -62.50001 8.405269
-62.50001 80.10752 24.76265 -6.181282e-10 0.8185921 0.5743753 -62.50001 80.10752
62.49999 80.10752 24.76265 0 0.8185923 0.574375 62.49999 80.10752
62.49999 249.3506 15.0351 1.742506e-08 -0.6521692 0.7580734 62.49999 249.3506
-62.50001 249.3506 15.0351 2.637419e-08 -0.6521695 0.7580732 -62.50001 249.3506
62.49999 325 24.4004 0 0.8368642 0.5474106 62.49999 325
-62.50001 325 24.4004 0 0.8368636 0.5474114 -62.50001 325
62.49999 70.44537 19.1594 7.610353e-09 -0.6922082 0.7216978 62.49999 70.44537
62.49999 70.69349 24.79133 1.462299e-07 -0.825874 0.5638548 62.49999 70.69349
-62.50001 70.69349 24.79136 4.724852e-10 -0.8258546 0.5638832 -62.50001 70.69349
-62.50001 70.44537 19.1594 0 -0.6922083 0.7216977 -62.50001 70.44537
62.49999 71.05685 24.95217 1.209895e-07 -0.2068676 0.978369 62.49999 71.05685
62.49999 79.67208 24.95231 0 0.2039408 0.9789832 62.49999 79.67208
-62.50001 79.67208 24.95231 0 0.2039406 0.9789833 -62.50001 79.67208
-62.50001 71.05685 24.95217 0 -0.2068321 0.9783764 -62.50001 71.05685
62.49999 259.5098 17.52764 1.264067e-08 -0.3516071 0.9361477 62.49999 259.5098
-62.50001 259.5098 17.52765 4.323714e-08 -0.3516069 0.9361478 -62.50001 259.5098
-62.50001 8.996883 19.01689 0 0.6828561 0.730553 -62.50001 8.996883
62.49999 8.996883 19.01689 0 0.6828563 0.7305527 62.49999 8.996883
62.49999 8.625834 24.70446 0 0.9002214 0.4354324 62.49999 8.625834
-62.50001 8.625834 24.70446 0 0.9002208 0.4354339 -62.50001 8.625834
-62.50001 4.805578e-05 0 0 -1 0 -62.50001 4.805578e-05
62.49999 4.805578e-05 0 0 -1 0 62.49999 4.805578e-05
62.49999 325 0 0 1 0 62.49999 325
-62.50001 325 0 0 1 0 -62.50001 325
3 0 1 2 
3 0 2 3 
3 4 5 6 
3 4 6 7 
3 8 9 10 
3 8 10 11 
3 12 13 7 
3 12 7 6 
3 14 15 16 
3 14 16 17 
3 18 19 0 
3 18 0 3 
3 1 20 21 
3 1 21 2 
3 12 22 23 
3 12 23 13 
3 24 25 26 
3 24 26 27 
3 28 29 30 
3 28 30 31 
3 21 20 32 
3 21 32 33 
3 30 29 19 
3 30 19 18 
3 34 35 24 
3 34 24 27 
3 5 4 8 
3 5 8 11 
3 16 36 37 
3 16 37 17 
3 28 31 26 
3 28 26 25 
3 34 37 36 
3 34 36 35 
3 32 10 9 
3 32 9 33 
3 38 39 15 
3 38 15 14 
3 22 40 41 
3 22 41 23 
