ply
format ascii 1.0
comment VCGLIB generated
comment TextureFile dummy.png
element vertex 182
property float x
property float y
property float z
property float nx
property float ny
property float nz
property float texture_u
property float texture_v
element face 214
property list uchar int vertex_indices
end_header
9.999999 0 9.999999 0 45.04335 0 0 1
0.1950903 0 0.9807852 0 3.249901 0 0.4902455 0.5490392
0 0 0.9999999 0 14.25 0 0.5 0.55
2.5 0 3.25 0 35.74999 0 0.375 0.6625
5 0 5.5 0 35.75 0 0.25 0.775
7.5 0 7.75 0 34.74999 0 0.125 0.8875
0 0 -0.9999999 0 17.25 0 0.5 0.45
0.1950903 0 -0.9807852 0 3.249898 0 0.4902455 0.4509608
9.999999 0 -9.999999 0 43.04335 0 0 0
7.5 0 -7.75 0 35.74999 0 0.125 0.1125
5 0 -5.5 0 35.75 0 0.25 0.225
2.5 0 -3.25 0 34.74999 0 0.375 0.3375
0 0 0.9999999 -0.230577 0 2.341084 1 1
-0.1950903 -6 0.9807852 -0.5720115 0 3.466642 0.96875 0.5
0 -6 0.9999999 -0.1152885 0 1.170542 1 0.5
-0.1950903 0 0.9807852 -0.7981575 0 3.421659 0.96875 1
-0.3826834 -6 0.9238794 -1.237328 0 3.288438 0.9375 0.5
-0.3826834 0 0.9238794 -1.450353 0 3.2002 0.9375 1
-0.5555702 -6 0.8314695 -1.855096 0 2.98386 0.90625 0.5
-0.5555702 0 0.8314695 -2.046813 0 2.855759 0.90625 1
-0.7071067 -6 0.7071067 -2.401573 0 2.564615 0.875 0.5
-0.7071067 0 0.7071067 -2.564615 0 2.401573 0.875 1
-0.8314695 -6 0.5555702 -2.855759 0 2.046813 0.84375 0.5
-0.8314695 0 0.5555702 -2.98386 0 1.855096 0.84375 1
-0.9238794 -6 0.3826834 -3.2002 0 1.450353 0.8125 0.5
-0.9238794 0 0.3826834 -3.288438 0 1.237328 0.8125 1
-0.9807852 -6 0.1950903 -3.421659 0 0.7981575 0.78125 0.5
-0.9807852 0 0.1950903 -3.466642 0 0.5720115 0.78125 1
-0.9999999 -6 0 -3.511626 0 0.1152885 0.75 0.5
-0.9999999 0 0 -3.511626 0 -0.1152885 0.75 1
-0.9807852 -6 -0.1950903 -3.466642 0 -0.5720115 0.71875 0.5
-0.9807852 0 -0.1950903 -3.421659 0 -0.7981575 0.71875 1
-0.9238794 -6 -0.3826834 -3.288438 0 -1.237328 0.6875 0.5
-0.9238794 0 -0.3826834 -3.2002 0 -1.450353 0.6875 1
-0.8314695 -6 -0.5555702 -2.98386 0 -1.855096 0.65625 0.5
-0.8314695 0 -0.5555702 -2.855759 0 -2.046813 0.65625 1
-0.7071067 -6 -0.7071067 -2.564615 0 -2.401573 0.625 0.5
-0.7071067 0 -0.7071067 -2.401573 0 -2.564615 0.625 1
-0.5555702 -6 -0.8314695 -2.046813 0 -2.855759 0.59375 0.5
-0.5555702 0 -0.8314695 -1.855096 0 -2.98386 0.59375 1
-0.3826834 -6 -0.9238794 -1.450353 0 -3.2002 0.5625 0.5
-0.3826834 0 -0.9238794 -1.237328 0 -3.288438 0.5625 1
-0.1950903 -6 -0.9807852 -0.7981575 0 -3.421659 0.53125 0.5
-0.1950903 0 -0.9807852 -0.5720115 0 -3.466642 0.53125 1
0 -6 -0.9999999 -0.1152885 0 -3.511626 0.5 0.5
0 0 -0.9999999 0.1152885 0 -3.511626 0.5 1
0.1950903 -6 -0.9807852 0.5720115 0 -3.466642 0.46875 0.5
0.1950903 0 -0.9807852 0.7981575 0 -3.421659 0.46875 1
0.3826834 -6 -0.9238794 1.237328 0 -3.288438 0.4375 0.5
0.3826834 0 -0.9238794 1.450353 0 -3.2002 0.4375 1
0.5555702 -6 -0.8314695 1.855096 0 -2.98386 0.40625 0.5
0.5555702 0 -0.8314695 2.046813 0 -2.855759 0.40625 1
0.7071067 -6 -0.7071067 2.401573 0 -2.564615 0.375 0.5
0.7071067 0 -0.7071067 2.564615 0 -2.401573 0.375 1
0.8314695 -6 -0.5555702 2.855759 0 -2.046813 0.34375 0.5
0.8314695 0 -0.5555702 2.98386 0 -1.855096 0.34375 1
0.9238794 -6 -0.3826834 3.2002 0 -1.450353 0.3125 0.5
0.9238794 0 -0.3826834 3.288438 0 -1.237328 0.3125 1
0.9807852 -6 -0.1950903 3.421659 0 -0.7981575 0.28125 0.5
0.9807852 0 -0.1950903 3.466642 0 -0.5720115 0.28125 1
0.9999999 -6 0 3.511626 0 -0.1152885 0.25 0.5
0.9999999 0 0 3.511626 0 0.1152885 0.25 1
0.9807852 -6 0.1950903 3.466642 0 0.5720115 0.21875 0.5
0.9807852 0 0.1950903 3.421659 0 0.7981575 0.21875 1
0.9238794 -6 0.3826834 3.288438 0 1.237328 0.1875 0.5
0.9238794 0 0.3826834 3.2002 0 1.450353 0.1875 1
0.8314695 -6 0.5555702 2.98386 0 1.855096 0.15625 0.5
0.8314695 0 0.5555702 2.855759 0 2.046813 0.15625 1
0.7071067 -6 0.7071067 2.564615 0 2.401573 0.125 0.5
0.7071067 0 0.7071067 2.401573 0 2.564615 0.125 1
0.5555702 -6 0.8314695 2.046813 0 2.855759 0.09375 0.5
0.5555702 0 0.8314695 1.855096 0 2.98386 0.09375 1
0.3826834 -6 0.9238794 1.450353 0 3.2002 0.0625 0.5
0.3826834 0 0.9238794 1.237328 0 3.288438 0.0625 1
0.1950903 -6 0.9807852 0.7981575 0 3.421659 0.03125 0.5
0.1950903 0 0.9807852 0.5720115 0 3.466642 0.03125 1
0 -6 0.9999999 0.230577 0 2.341084 0 0.5
0.8314695 -6 0.5555702 0 -2.545728 0 0.5504473 0.3833368
0.1950903 -6 0.9807852 0 -2.959941 0 0.7031783 0.4853885
-0.1950903 -6 -0.9807852 0 -5.680717 0 0.7968217 0.01461154
-0.7071067 0 -0.7071067 0 5.127807 0 0.5353553 0.4646447
-9.999999 0 -9.999999 0 42.04335 0 1 0
-0.8314695 0 -0.5555702 0 5.021779 0 0.5415735 0.4722215
-9.999999 0 -5 0 33.74998 0 1 0.25
-7.75 0 -7.5 0 35.74999 0 0.8875 0.125
-0.9238794 0 -0.3826834 0 4.707774 0 0.546194 0.4808658
9.999999 0 5 0 33.74998 0 0 0.75
7.75 0 7.5 0 34.74999 0 0.1125 0.875
0.7071067 0 -0.7071067 0 5.127807 0 0.4646447 0.4646447
0.8314695 0 -0.5555702 0 5.021782 0 0.4584265 0.4722215
0.9238794 0 -0.3826834 0 4.707779 0 0.453806 0.4808658
-0.9807852 0 -0.1950903 0 6.249898 0 0.5490393 0.4902455
-5.5 0 -5 0 35.75 0 0.775 0.25
-3.25 0 -2.5 0 35.74999 0 0.6625 0.375
-0.9999999 0 0 0 13.25 0 0.55 0.5
0.9807852 0 -0.1950903 0 3.249901 0 0.4509608 0.4902455
0.9999999 0 0 0 15.25 0 0.45 0.5
3.25 0 -2.5 0 35.74999 0 0.3375 0.375
5.5 0 -5 0 35.75 0 0.225 0.25
7.75 0 -7.5 0 34.74999 0 0.1125 0.125
5.5 0 5 0 35.75 0 0.225 0.75
3.25 0 2.5 0 35.74999 0 0.3375 0.625
0.9807852 0 0.1950903 0 3.249901 0 0.4509608 0.5097545
-0.9807852 0 0.1950903 0 6.249898 0 0.5490393 0.5097545
-3.25 0 2.5 0 35.74999 0 0.6625 0.625
-5.5 0 5 0 35.75 0 0.775 0.75
-7.75 0 7.5 0 35.74999 0 0.8875 0.875
-9.999999 0 9.999999 0 39.04334 0 1 1
-0.9238794 0 0.3826834 0 4.707774 0 0.546194 0.5191342
0.9238794 0 0.3826834 0 4.707779 0 0.453806 0.5191342
0.8314695 0 0.5555702 0 5.021782 0 0.4584265 0.5277785
-0.8314695 0 0.5555702 0 5.021779 0 0.5415735 0.5277785
-0.7071067 0 0.7071067 0 5.127806 0 0.5353553 0.5353553
0.7071067 0 0.7071067 0 5.127808 0 0.4646447 0.5353553
0.5555702 0 0.8314695 0 5.021782 0 0.4722215 0.5415735
-0.5555702 0 0.8314695 0 5.021779 0 0.5277785 0.5415735
-5 0 9.999999 0 33.74998 0 0.75 1
-7.5 0 7.75 0 35.74999 0 0.875 0.8875
-0.3826834 0 0.9238794 0 4.707774 0 0.5191342 0.546194
-0.1950903 0 0.9807852 0 6.249898 0 0.5097545 0.5490392
0.3826834 0 0.9238794 0 4.707779 0 0.4808658 0.546194
-5 0 5.5 0 35.75 0 0.75 0.775
-2.5 0 3.25 0 35.74999 0 0.625 0.6625
0.5555702 0 -0.8314695 0 5.021779 0 0.4722215 0.4584265
5 0 -9.999999 0 33.74998 0 0.25 0
-0.5555702 0 -0.8314695 0 5.021782 0 0.5277785 0.4584265
-0.3826834 0 -0.9238794 0 4.707779 0 0.5191342 0.453806
0.3826834 0 -0.9238794 0 4.707774 0 0.4808658 0.453806
-0.1950903 0 -0.9807852 0 3.249901 0 0.5097545 0.4509607
-2.5 0 -3.25 0 35.74999 0 0.625 0.3375
-5 0 -5.5 0 35.75 0 0.75 0.225
-7.5 0 -7.75 0 34.74999 0 0.875 0.1125
0 0 0.9999999 0.1152885 0 1.170542 0 1
0 -6 0.9999999 0 -0.007497223 0 0.75 0.49
-0.1950903 -6 0.9807852 0 -0.07325451 0 0.7968217 0.4853885
-0.3826834 -6 0.9238794 0 -0.007497212 0 0.841844 0.4717311
-0.5555702 -6 0.8314695 0 -2.545728 0 0.8833368 0.4495527
-0.7071067 -6 0.7071067 0 -0.007497206 0 0.9197056 0.4197056
-0.8314695 -6 0.5555702 0 -0.07325449 0 0.9495527 0.3833368
-0.9238794 -6 0.3826834 0 -0.007497216 0 0.9717311 0.341844
-0.9807852 -6 0.1950903 0 -1.603988 0 0.9853885 0.2968217
-0.9999999 -6 0 0 -0.007497223 0 0.99 0.25
-0.9807852 -6 -0.1950903 0 -0.07325451 0 0.9853885 0.2031783
-0.9238794 -6 -0.3826834 0 -0.007497212 0 0.9717311 0.158156
-0.8314695 -6 -0.5555702 0 -0.2391651 0 0.9495527 0.1166631
-0.7071067 -6 -0.7071067 0 -0.007497206 0 0.9197056 0.08029439
-0.5555702 -6 -0.8314695 0 -0.487468 0 0.8833368 0.0504473
-0.3826834 -6 -0.9238794 0 -0.007497216 0 0.841844 0.02826892
0 -6 -0.9999999 0 -0.007497223 0 0.75 0.01000001
0.1950903 -6 -0.9807852 0 -0.07325451 0 0.7031783 0.01461154
0.3826834 -6 -0.9238794 0 -0.007497212 0 0.658156 0.02826892
0.5555702 -6 -0.8314695 0 -0.2391651 0 0.6166632 0.0504473
0.7071067 -6 -0.7071067 0 -0.007497206 0 0.5802944 0.08029439
0.8314695 -6 -0.5555702 0 -0.487468 0 0.5504473 0.1166631
0.9238794 -6 -0.3826834 0 -0.007497216 0 0.5282689 0.158156
0.9807852 -6 -0.1950903 0 -1.379817 0 0.5146115 0.2031783
0.9999999 -6 0 0 -0.007497223 0 0.51 0.25
0.9807852 -6 0.1950903 0 -0.07325451 0 0.5146115 0.2968217
0.9238794 -6 0.3826834 0 -0.007497212 0 0.5282689 0.341844
0.7071067 -6 0.7071067 0 -0.007497206 0 0.5802944 0.4197056
0.5555702 -6 0.8314695 0 -0.07325449 0 0.6166632 0.4495527
0.3826834 -6 0.9238794 0 -0.007497216 0 0.658156 0.4717311
-2.980232e-07 0 5.5 0 67.49999 0 0.5 0.775
-2.5 0 7.75 0 67.49998 0 0.625 0.8875
2.5 0 7.75 0 67.49998 0 0.375 0.8875
0 0 9.999999 0 33.74998 0 0.5 1
5 0 9.999999 0 33.74998 0 0.25 1
-5.5 0 -2.980232e-07 0 67.49999 0 0.775 0.5
-7.75 0 -2.5 0 67.49998 0 0.8875 0.375
-7.75 0 2.5 0 67.49998 0 0.8875 0.625
-9.999999 0 0 0 33.74998 0 1 0.5
-9.999999 0 5 0 33.74998 0 1 0.75
2.980232e-07 0 -5.5 0 67.49999 0 0.5 0.225
2.5 0 -7.75 0 67.49998 0 0.375 0.1125
-2.5 0 -7.75 0 67.49998 0 0.625 0.1125
0 0 -9.999999 0 33.74998 0 0.5 0
-5 0 -9.999999 0 33.74998 0 0.75 0
5.5 0 2.980232e-07 0 67.49999 0 0.225 0.5
7.75 0 2.5 0 67.49998 0 0.1125 0.625
7.75 0 -2.5 0 67.49998 0 0.1125 0.375
9.999999 0 0 0 33.74998 0 0 0.5
9.999999 0 -5 0 33.74998 0 0 0.25
3 0 1 2 
3 0 2 3 
3 0 3 4 
3 0 4 5 
3 6 7 8 
3 6 8 9 
3 6 9 10 
3 6 10 11 
3 12 13 14 
3 15 16 13 
3 17 18 16 
3 19 20 18 
3 21 22 20 
3 23 24 22 
3 25 26 24 
3 27 28 26 
3 29 30 28 
3 31 32 30 
3 33 34 32 
3 35 36 34 
3 37 38 36 
3 39 40 38 
3 41 42 40 
3 43 44 42 
3 45 46 44 
3 47 48 46 
3 49 50 48 
3 51 52 50 
3 53 54 52 
3 55 56 54 
3 57 58 56 
3 59 60 58 
3 61 62 60 
3 63 64 62 
3 65 66 64 
3 67 68 66 
3 69 70 68 
3 71 72 70 
3 73 74 72 
3 75 76 74 
3 77 78 79 
3 80 81 82 
3 81 83 84 
3 82 81 85 
3 0 86 87 
3 8 88 89 
3 8 89 90 
3 85 81 91 
3 91 81 84 
3 91 84 92 
3 91 92 93 
3 91 93 94 
3 8 90 95 
3 8 95 96 
3 8 96 97 
3 8 97 98 
3 8 98 99 
3 0 87 100 
3 0 100 101 
3 0 101 96 
3 0 96 102 
3 103 94 104 
3 103 104 105 
3 103 105 106 
3 103 106 107 
3 108 103 107 
3 0 102 109 
3 0 109 110 
3 111 108 107 
3 112 111 107 
3 0 110 113 
3 0 113 114 
3 112 107 115 
3 107 116 117 
3 115 107 118 
3 118 107 119 
3 0 114 120 
3 0 120 1 
3 119 107 117 
3 119 117 121 
3 119 121 122 
3 119 122 2 
3 123 88 8 
3 8 124 9 
3 81 80 125 
3 81 125 126 
3 127 123 8 
3 7 127 8 
3 81 126 128 
3 81 128 6 
3 81 6 129 
3 81 129 130 
3 81 130 131 
3 12 15 13 
3 15 17 16 
3 17 19 18 
3 19 21 20 
3 21 23 22 
3 23 25 24 
3 25 27 26 
3 27 29 28 
3 29 31 30 
3 31 33 32 
3 33 35 34 
3 35 37 36 
3 37 39 38 
3 39 41 40 
3 41 43 42 
3 43 45 44 
3 45 47 46 
3 47 49 48 
3 49 51 50 
3 51 53 52 
3 53 55 54 
3 55 57 56 
3 57 59 58 
3 59 61 60 
3 61 63 62 
3 63 65 64 
3 65 67 66 
3 67 69 68 
3 69 71 70 
3 71 73 72 
3 73 75 74 
3 75 132 76 
3 78 133 134 
3 134 135 136 
3 136 137 138 
3 138 139 140 
3 140 141 142 
3 142 143 144 
3 144 145 146 
3 146 147 79 
3 79 148 149 
3 149 150 151 
3 151 152 153 
3 153 154 155 
3 155 156 157 
3 157 158 77 
3 77 159 160 
3 160 161 78 
3 78 134 136 
3 136 138 140 
3 140 142 144 
3 144 146 140 
3 146 79 140 
3 79 149 151 
3 151 153 79 
3 153 155 79 
3 155 157 77 
3 77 160 78 
3 78 136 79 
3 136 140 79 
3 155 77 79 
3 122 3 2 
3 121 162 122 
3 117 163 121 
3 122 162 3 
3 162 4 3 
3 121 163 162 
3 163 164 162 
3 162 164 4 
3 164 5 4 
3 117 116 163 
3 116 165 163 
3 163 165 164 
3 165 166 164 
3 164 166 5 
3 166 0 5 
3 93 104 94 
3 92 167 93 
3 84 168 92 
3 93 167 104 
3 167 105 104 
3 92 168 167 
3 168 169 167 
3 167 169 105 
3 169 106 105 
3 84 83 168 
3 83 170 168 
3 168 170 169 
3 170 171 169 
3 169 171 106 
3 171 107 106 
3 11 129 6 
3 10 172 11 
3 9 173 10 
3 11 172 129 
3 172 130 129 
3 10 173 172 
3 173 174 172 
3 172 174 130 
3 174 131 130 
3 9 124 173 
3 124 175 173 
3 173 175 174 
3 175 176 174 
3 174 176 131 
3 176 81 131 
3 101 97 96 
3 100 177 101 
3 87 178 100 
3 101 177 97 
3 177 98 97 
3 100 178 177 
3 178 179 177 
3 177 179 98 
3 179 99 98 
3 87 86 178 
3 86 180 178 
3 178 180 179 
3 180 181 179 
3 179 181 99 
3 181 8 99 
