ply
format ascii 1.0
comment VCGLIB generated
element vertex 121
property float x
property float y
property float z
property float nx
property float ny
property float nz
property float texture_u
property float texture_v
element face 200
property list uchar int vertex_indices
end_header
0.575 -0.5 0 0 0 1 0.5 -0.5
0.46 -0.5 0 0 0 1 0.4 -0.5
0.345 -0.5 0 0 0 1 0.3 -0.5
0.23 -0.5 0 0 0 1 0.2 -0.5
0.115 -0.5 0 0 0 1 0.09999999 -0.5
0 -0.5 0 0 0 1 0 -0.5
-0.115 -0.5 0 0 0 1 -0.1 -0.5
-0.23 -0.5 0 0 0 1 -0.2 -0.5
-0.345 -0.5 0 0 0 1 -0.3 -0.5
-0.46 -0.5 0 0 0 1 -0.4 -0.5
-0.575 -0.5 0 0 0 1 -0.5 -0.5
0.575 -0.4 0 0 0 1 0.5 -0.4
0.46 -0.4 0 0 0 1 0.4 -0.4
0.345 -0.4 0 0 0 1 0.3 -0.4
0.23 -0.4 0 0 0 1 0.2 -0.4
0.115 -0.4 0 0 0 1 0.09999999 -0.4
0 -0.4 0 0 0 1 0 -0.4
-0.115 -0.4 0 0 0 1 -0.1 -0.4
-0.23 -0.4 0 0 0 1 -0.2 -0.4
-0.345 -0.4 0 0 0 1 -0.3 -0.4
-0.46 -0.4 0 0 0 1 -0.4 -0.4
-0.575 -0.4 0 0 0 1 -0.5 -0.4
0.575 -0.3 0 0 0 1 0.5 -0.3
0.46 -0.3 0 0 0 1 0.4 -0.3
0.345 -0.3 0 0 0 1 0.3 -0.3
0.23 -0.3 0 0 0 1 0.2 -0.3
0.115 -0.3 0 0 0 1 0.09999999 -0.3
0 -0.3 0 0 0 1 0 -0.3
-0.115 -0.3 0 0 0 1 -0.1 -0.3
-0.23 -0.3 0 0 0 1 -0.2 -0.3
-0.345 -0.3 0 0 0 1 -0.3 -0.3
-0.46 -0.3 0 0 0 1 -0.4 -0.3
-0.575 -0.3 0 0 0 1 -0.5 -0.3
0.575 -0.2 0 0 0 1 0.5 -0.2
0.46 -0.2 0 0 0 1 0.4 -0.2
0.345 -0.2 0 0 0 1 0.3 -0.2
0.23 -0.2 0 0 0 1 0.2 -0.2
0.115 -0.2 0 0 0 1 0.09999999 -0.2
0 -0.2 0 0 0 1 0 -0.2
-0.115 -0.2 0 0 0 1 -0.1 -0.2
-0.23 -0.2 0 0 0 1 -0.2 -0.2
-0.345 -0.2 0 0 0 1 -0.3 -0.2
-0.46 -0.2 0 0 0 1 -0.4 -0.2
-0.575 -0.2 0 0 0 1 -0.5 -0.2
0.575 -0.09999999 0 0 0 1 0.5 -0.09999999
0.46 -0.09999999 0 0 0 1 0.4 -0.09999999
0.345 -0.09999999 0 0 0 1 0.3 -0.09999999
0.23 -0.09999999 0 0 0 1 0.2 -0.09999999
0.115 -0.09999999 0 0 0 1 0.09999999 -0.09999999
0 -0.09999999 0 0 0 1 0 -0.09999999
-0.115 -0.09999999 0 0 0 1 -0.1 -0.09999999
-0.23 -0.09999999 0 0 0 1 -0.2 -0.09999999
-0.345 -0.09999999 0 0 0 1 -0.3 -0.09999999
-0.46 -0.09999999 0 0 0 1 -0.4 -0.09999999
-0.575 -0.09999999 0 0 0 1 -0.5 -0.09999999
0.575 0 0 0 0 1 0.5 0
0.46 0 0 0 0 1 0.4 0
0.345 0 0 0 0 1 0.3 0
0.23 0 0 0 0 1 0.2 0
0.115 0 0 0 0 1 0.09999999 0
0 0 0 0 0 1 0 0
-0.115 0 0 0 0 1 -0.1 0
-0.23 0 0 0 0 1 -0.2 0
-0.345 0 0 0 0 1 -0.3 0
-0.46 0 0 0 0 1 -0.4 0
-0.575 0 0 0 0 1 -0.5 0
0.575 0.1 0 0 0 1 0.5 0.1
0.46 0.1 0 0 0 1 0.4 0.1
0.345 0.1 0 0 0 1 0.3 0.1
0.23 0.1 0 0 0 1 0.2 0.1
0.115 0.1 0 0 0 1 0.09999999 0.1
0 0.1 0 0 0 1 0 0.1
-0.115 0.1 0 0 0 1 -0.1 0.1
-0.23 0.1 0 0 0 1 -0.2 0.1
-0.345 0.1 0 0 0 1 -0.3 0.1
-0.46 0.1 0 0 0 1 -0.4 0.1
-0.575 0.1 0 0 0 1 -0.5 0.1
0.575 0.2 0 0 0 1 0.5 0.2
0.46 0.2 0 0 0 1 0.4 0.2
0.345 0.2 0 0 0 1 0.3 0.2
0.23 0.2 0 0 0 1 0.2 0.2
0.115 0.2 0 0 0 1 0.09999999 0.2
0 0.2 0 0 0 1 0 0.2
-0.115 0.2 0 0 0 1 -0.1 0.2
-0.23 0.2 0 0 0 1 -0.2 0.2
-0.345 0.2 0 0 0 1 -0.3 0.2
-0.46 0.2 0 0 0 1 -0.4 0.2
-0.575 0.2 0 0 0 1 -0.5 0.2
0.575 0.3 0 0 0 1 0.5 0.3
0.46 0.3 0 0 0 1 0.4 0.3
0.345 0.3 0 0 0 1 0.3 0.3
0.23 0.3 0 0 0 1 0.2 0.3
0.115 0.3 0 0 0 1 0.09999999 0.3
0 0.3 0 0 0 1 0 0.3
-0.115 0.3 0 0 0 1 -0.1 0.3
-0.23 0.3 0 0 0 1 -0.2 0.3
-0.345 0.3 0 0 0 1 -0.3 0.3
-0.46 0.3 0 0 0 1 -0.4 0.3
-0.575 0.3 0 0 0 1 -0.5 0.3
0.575 0.4 0 0 0 1 0.5 0.4
0.46 0.4 0 0 0 1 0.4 0.4
0.345 0.4 0 0 0 1 0.3 0.4
0.23 0.4 0 0 0 1 0.2 0.4
0.115 0.4 0 0 0 1 0.09999999 0.4
0 0.4 0 0 0 1 0 0.4
-0.115 0.4 0 0 0 1 -0.1 0.4
-0.23 0.4 0 0 0 1 -0.2 0.4
-0.345 0.4 0 0 0 1 -0.3 0.4
-0.46 0.4 0 0 0 1 -0.4 0.4
-0.575 0.4 0 0 0 1 -0.5 0.4
0.575 0.5 0 0 0 1 0.5 0.5
0.46 0.5 0 0 0 1 0.4 0.5
0.345 0.5 0 0 0 1 0.3 0.5
0.23 0.5 0 0 0 1 0.2 0.5
0.115 0.5 0 0 0 1 0.09999999 0.5
0 0.5 0 0 0 1 0 0.5
-0.115 0.5 0 0 0 1 -0.1 0.5
-0.23 0.5 0 0 0 1 -0.2 0.5
-0.345 0.5 0 0 0 1 -0.3 0.5
-0.46 0.5 0 0 0 1 -0.4 0.5
-0.575 0.5 0 0 0 1 -0.5 0.5
3 12 1 0 
3 0 11 12 
3 13 2 1 
3 1 12 13 
3 14 3 2 
3 2 13 14 
3 15 4 3 
3 3 14 15 
3 16 5 4 
3 4 15 16 
3 17 6 5 
3 5 16 17 
3 18 7 6 
3 6 17 18 
3 19 8 7 
3 7 18 19 
3 20 9 8 
3 8 19 20 
3 21 10 9 
3 9 20 21 
3 23 12 11 
3 11 22 23 
3 24 13 12 
3 12 23 24 
3 25 14 13 
3 13 24 25 
3 26 15 14 
3 14 25 26 
3 27 16 15 
3 15 26 27 
3 28 17 16 
3 16 27 28 
3 29 18 17 
3 17 28 29 
3 30 19 18 
3 18 29 30 
3 31 20 19 
3 19 30 31 
3 32 21 20 
3 20 31 32 
3 34 23 22 
3 22 33 34 
3 35 24 23 
3 23 34 35 
3 36 25 24 
3 24 35 36 
3 37 26 25 
3 25 36 37 
3 38 27 26 
3 26 37 38 
3 39 28 27 
3 27 38 39 
3 40 29 28 
3 28 39 40 
3 41 30 29 
3 29 40 41 
3 42 31 30 
3 30 41 42 
3 43 32 31 
3 31 42 43 
3 45 34 33 
3 33 44 45 
3 46 35 34 
3 34 45 46 
3 47 36 35 
3 35 46 47 
3 48 37 36 
3 36 47 48 
3 49 38 37 
3 37 48 49 
3 50 39 38 
3 38 49 50 
3 51 40 39 
3 39 50 51 
3 52 41 40 
3 40 51 52 
3 53 42 41 
3 41 52 53 
3 54 43 42 
3 42 53 54 
3 56 45 44 
3 44 55 56 
3 57 46 45 
3 45 56 57 
3 58 47 46 
3 46 57 58 
3 59 48 47 
3 47 58 59 
3 60 49 48 
3 48 59 60 
3 61 50 49 
3 49 60 61 
3 62 51 50 
3 50 61 62 
3 63 52 51 
3 51 62 63 
3 64 53 52 
3 52 63 64 
3 65 54 53 
3 53 64 65 
3 67 56 55 
3 55 66 67 
3 68 57 56 
3 56 67 68 
3 69 58 57 
3 57 68 69 
3 70 59 58 
3 58 69 70 
3 71 60 59 
3 59 70 71 
3 72 61 60 
3 60 71 72 
3 73 62 61 
3 61 72 73 
3 74 63 62 
3 62 73 74 
3 75 64 63 
3 63 74 75 
3 76 65 64 
3 64 75 76 
3 78 67 66 
3 66 77 78 
3 79 68 67 
3 67 78 79 
3 80 69 68 
3 68 79 80 
3 81 70 69 
3 69 80 81 
3 82 71 70 
3 70 81 82 
3 83 72 71 
3 71 82 83 
3 84 73 72 
3 72 83 84 
3 85 74 73 
3 73 84 85 
3 86 75 74 
3 74 85 86 
3 87 76 75 
3 75 86 87 
3 89 78 77 
3 77 88 89 
3 90 79 78 
3 78 89 90 
3 91 80 79 
3 79 90 91 
3 92 81 80 
3 80 91 92 
3 93 82 81 
3 81 92 93 
3 94 83 82 
3 82 93 94 
3 95 84 83 
3 83 94 95 
3 96 85 84 
3 84 95 96 
3 97 86 85 
3 85 96 97 
3 98 87 86 
3 86 97 98 
3 100 89 88 
3 88 99 100 
3 101 90 89 
3 89 100 101 
3 102 91 90 
3 90 101 102 
3 103 92 91 
3 91 102 103 
3 104 93 92 
3 92 103 104 
3 105 94 93 
3 93 104 105 
3 106 95 94 
3 94 105 106 
3 107 96 95 
3 95 106 107 
3 108 97 96 
3 96 107 108 
3 109 98 97 
3 97 108 109 
3 111 100 99 
3 99 110 111 
3 112 101 100 
3 100 111 112 
3 113 102 101 
3 101 112 113 
3 114 103 102 
3 102 113 114 
3 115 104 103 
3 103 114 115 
3 116 105 104 
3 104 115 116 
3 117 106 105 
3 105 116 117 
3 118 107 106 
3 106 117 118 
3 119 108 107 
3 107 118 119 
3 120 109 108 
3 108 119 120 
