ply
format ascii 1.0
comment VCGLIB generated
element vertex 441
property float x
property float y
property float z
property float nx
property float ny
property float nz
property float texture_u
property float texture_v
element face 800
property list uchar int vertex_indices
end_header
0.575 -0.5 0 0 0 1 0.5 -0.5
0.46 -0.5 0 0 0 1 0.4 -0.5
0.345 -0.5 0 0 0 1 0.3 -0.5
0.23 -0.5 0 0 0 1 0.2 -0.5
0.115 -0.5 0 0 0 1 0.09999999 -0.5
0 -0.5 0 0 0 1 0 -0.5
-0.115 -0.5 0 0 0 1 -0.1 -0.5
-0.23 -0.5 0 0 0 1 -0.2 -0.5
-0.345 -0.5 0 0 0 1 -0.3 -0.5
-0.46 -0.5 0 0 0 1 -0.4 -0.5
-0.575 -0.5 0 0 0 1 -0.5 -0.5
0.575 -0.4 0 0 0 1 0.5 -0.4
0.46 -0.4 0 0 0 1 0.4 -0.4
0.345 -0.4 0 0 0 1 0.3 -0.4
0.23 -0.4 0 0 0 1 0.2 -0.4
0.115 -0.4 0 0 0 1 0.09999999 -0.4
0 -0.4 0 0 0 1 0 -0.4
-0.115 -0.4 0 0 0 1 -0.1 -0.4
-0.23 -0.4 0 0 0 1 -0.2 -0.4
-0.345 -0.4 0 0 0 1 -0.3 -0.4
-0.46 -0.4 0 0 0 1 -0.4 -0.4
-0.575 -0.4 0 0 0 1 -0.5 -0.4
0.575 -0.3 0 0 0 1 0.5 -0.3
0.46 -0.3 0 0 0 1 0.4 -0.3
0.345 -0.3 0 0 0 1 0.3 -0.3
0.23 -0.3 0 0 0 1 0.2 -0.3
0.115 -0.3 0 0 0 1 0.09999999 -0.3
0 -0.3 0 0 0 1 0 -0.3
-0.115 -0.3 0 0 0 1 -0.1 -0.3
-0.23 -0.3 0 0 0 1 -0.2 -0.3
-0.345 -0.3 0 0 0 1 -0.3 -0.3
-0.46 -0.3 0 0 0 1 -0.4 -0.3
-0.575 -0.3 0 0 0 1 -0.5 -0.3
0.575 -0.2 0 0 0 1 0.5 -0.2
0.46 -0.2 0 0 0 1 0.4 -0.2
0.345 -0.2 0 0 0 1 0.3 -0.2
0.23 -0.2 0 0 0 1 0.2 -0.2
0.115 -0.2 0 0 0 1 0.09999999 -0.2
0 -0.2 0 0 0 1 0 -0.2
-0.115 -0.2 0 0 0 1 -0.1 -0.2
-0.23 -0.2 0 0 0 1 -0.2 -0.2
-0.345 -0.2 0 0 0 1 -0.3 -0.2
-0.46 -0.2 0 0 0 1 -0.4 -0.2
-0.575 -0.2 0 0 0 1 -0.5 -0.2
0.575 -0.09999999 0 0 0 1 0.5 -0.09999999
0.46 -0.09999999 0 0 0 1 0.4 -0.09999999
0.345 -0.09999999 0 0 0 1 0.3 -0.09999999
0.23 -0.09999999 0 0 0 1 0.2 -0.09999999
0.115 -0.09999999 0 0 0 1 0.09999999 -0.09999999
0 -0.09999999 0 0 0 1 0 -0.09999999
-0.115 -0.09999999 0 0 0 1 -0.1 -0.09999999
-0.23 -0.09999999 0 0 0 1 -0.2 -0.09999999
-0.345 -0.09999999 0 0 0 1 -0.3 -0.09999999
-0.46 -0.09999999 0 0 0 1 -0.4 -0.09999999
-0.575 -0.09999999 0 0 0 1 -0.5 -0.09999999
0.575 0 0 0 0 1 0.5 0
0.46 0 0 0 0 1 0.4 0
0.345 0 0 0 0 1 0.3 0
0.23 0 0 0 0 1 0.2 0
0.115 0 0 0 0 1 0.09999999 0
0 0 0 0 0 1 0 0
-0.115 0 0 0 0 1 -0.1 0
-0.23 0 0 0 0 1 -0.2 0
-0.345 0 0 0 0 1 -0.3 0
-0.46 0 0 0 0 1 -0.4 0
-0.575 0 0 0 0 1 -0.5 0
0.575 0.1 0 0 0 1 0.5 0.1
0.46 0.1 0 0 0 1 0.4 0.1
0.345 0.1 0 0 0 1 0.3 0.1
0.23 0.1 0 0 0 1 0.2 0.1
0.115 0.1 0 0 0 1 0.09999999 0.1
0 0.1 0 0 0 1 0 0.1
-0.115 0.1 0 0 0 1 -0.1 0.1
-0.23 0.1 0 0 0 1 -0.2 0.1
-0.345 0.1 0 0 0 1 -0.3 0.1
-0.46 0.1 0 0 0 1 -0.4 0.1
-0.575 0.1 0 0 0 1 -0.5 0.1
0.575 0.2 0 0 0 1 0.5 0.2
0.46 0.2 0 0 0 1 0.4 0.2
0.345 0.2 0 0 0 1 0.3 0.2
0.23 0.2 0 0 0 1 0.2 0.2
0.115 0.2 0 0 0 1 0.09999999 0.2
0 0.2 0 0 0 1 0 0.2
-0.115 0.2 0 0 0 1 -0.1 0.2
-0.23 0.2 0 0 0 1 -0.2 0.2
-0.345 0.2 0 0 0 1 -0.3 0.2
-0.46 0.2 0 0 0 1 -0.4 0.2
-0.575 0.2 0 0 0 1 -0.5 0.2
0.575 0.3 0 0 0 1 0.5 0.3
0.46 0.3 0 0 0 1 0.4 0.3
0.345 0.3 0 0 0 1 0.3 0.3
0.23 0.3 0 0 0 1 0.2 0.3
0.115 0.3 0 0 0 1 0.09999999 0.3
0 0.3 0 0 0 1 0 0.3
-0.115 0.3 0 0 0 1 -0.1 0.3
-0.23 0.3 0 0 0 1 -0.2 0.3
-0.345 0.3 0 0 0 1 -0.3 0.3
-0.46 0.3 0 0 0 1 -0.4 0.3
-0.575 0.3 0 0 0 1 -0.5 0.3
0.575 0.4 0 0 0 1 0.5 0.4
0.46 0.4 0 0 0 1 0.4 0.4
0.345 0.4 0 0 0 1 0.3 0.4
0.23 0.4 0 0 0 1 0.2 0.4
0.115 0.4 0 0 0 1 0.09999999 0.4
0 0.4 0 0 0 1 0 0.4
-0.115 0.4 0 0 0 1 -0.1 0.4
-0.23 0.4 0 0 0 1 -0.2 0.4
-0.345 0.4 0 0 0 1 -0.3 0.4
-0.46 0.4 0 0 0 1 -0.4 0.4
-0.575 0.4 0 0 0 1 -0.5 0.4
0.575 0.5 0 0 0 1 0.5 0.5
0.46 0.5 0 0 0 1 0.4 0.5
0.345 0.5 0 0 0 1 0.3 0.5
0.23 0.5 0 0 0 1 0.2 0.5
0.115 0.5 0 0 0 1 0.09999999 0.5
0 0.5 0 0 0 1 0 0.5
-0.115 0.5 0 0 0 1 -0.1 0.5
-0.23 0.5 0 0 0 1 -0.2 0.5
-0.345 0.5 0 0 0 1 -0.3 0.5
-0.46 0.5 0 0 0 1 -0.4 0.5
-0.575 0.5 0 0 0 1 -0.5 0.5
0.46 -0.45 0 0 0 1 0.4 -0.45
0.5175 -0.5 0 0 0 1 0.45 -0.5
0.5175 -0.45 0 0 0 1 0.45 -0.45
0.575 -0.45 0 0 0 1 0.5 -0.45
0.5175 -0.4 0 0 0 1 0.45 -0.4
0.345 -0.45 0 0 0 1 0.3 -0.45
0.4025 -0.5 0 0 0 1 0.35 -0.5
0.4025 -0.45 0 0 0 1 0.35 -0.45
0.4025 -0.4 0 0 0 1 0.35 -0.4
0.23 -0.45 0 0 0 1 0.2 -0.45
0.2875 -0.5 0 0 0 1 0.25 -0.5
0.2875 -0.45 0 0 0 1 0.25 -0.45
0.2875 -0.4 0 0 0 1 0.25 -0.4
0.115 -0.45 0 0 0 1 0.09999999 -0.45
0.1725 -0.5 0 0 0 1 0.15 -0.5
0.1725 -0.45 0 0 0 1 0.15 -0.45
0.1725 -0.4 0 0 0 1 0.15 -0.4
0 -0.45 0 0 0 1 0 -0.45
0.0575 -0.5 0 0 0 1 0.04999999 -0.5
0.0575 -0.45 0 0 0 1 0.04999999 -0.45
0.0575 -0.4 0 0 0 1 0.04999999 -0.4
-0.115 -0.45 0 0 0 1 -0.1 -0.45
-0.0575 -0.5 0 0 0 1 -0.05 -0.5
-0.0575 -0.45 0 0 0 1 -0.05 -0.45
-0.0575 -0.4 0 0 0 1 -0.05 -0.4
-0.23 -0.45 0 0 0 1 -0.2 -0.45
-0.1725 -0.5 0 0 0 1 -0.15 -0.5
-0.1725 -0.45 0 0 0 1 -0.15 -0.45
-0.1725 -0.4 0 0 0 1 -0.15 -0.4
-0.345 -0.45 0 0 0 1 -0.3 -0.45
-0.2875 -0.5 0 0 0 1 -0.25 -0.5
-0.2875 -0.45 0 0 0 1 -0.25 -0.45
-0.2875 -0.4 0 0 0 1 -0.25 -0.4
-0.46 -0.45 0 0 0 1 -0.4 -0.45
-0.4025 -0.5 0 0 0 1 -0.35 -0.5
-0.4025 -0.45 0 0 0 1 -0.35 -0.45
-0.4025 -0.4 0 0 0 1 -0.35 -0.4
-0.575 -0.45 0 0 0 1 -0.5 -0.45
-0.5175 -0.5 0 0 0 1 -0.45 -0.5
-0.5175 -0.45 0 0 0 1 -0.45 -0.45
-0.5175 -0.4 0 0 0 1 -0.45 -0.4
0.46 -0.35 0 0 0 1 0.4 -0.35
0.5175 -0.35 0 0 0 1 0.45 -0.35
0.575 -0.35 0 0 0 1 0.5 -0.35
0.5175 -0.3 0 0 0 1 0.45 -0.3
0.345 -0.35 0 0 0 1 0.3 -0.35
0.4025 -0.35 0 0 0 1 0.35 -0.35
0.4025 -0.3 0 0 0 1 0.35 -0.3
0.23 -0.35 0 0 0 1 0.2 -0.35
0.2875 -0.35 0 0 0 1 0.25 -0.35
0.2875 -0.3 0 0 0 1 0.25 -0.3
0.115 -0.35 0 0 0 1 0.09999999 -0.35
0.1725 -0.35 0 0 0 1 0.15 -0.35
0.1725 -0.3 0 0 0 1 0.15 -0.3
0 -0.35 0 0 0 1 0 -0.35
0.0575 -0.35 0 0 0 1 0.04999999 -0.35
0.0575 -0.3 0 0 0 1 0.04999999 -0.3
-0.115 -0.35 0 0 0 1 -0.1 -0.35
-0.0575 -0.35 0 0 0 1 -0.05 -0.35
-0.0575 -0.3 0 0 0 1 -0.05 -0.3
-0.23 -0.35 0 0 0 1 -0.2 -0.35
-0.1725 -0.35 0 0 0 1 -0.15 -0.35
-0.1725 -0.3 0 0 0 1 -0.15 -0.3
-0.345 -0.35 0 0 0 1 -0.3 -0.35
-0.2875 -0.35 0 0 0 1 -0.25 -0.35
-0.2875 -0.3 0 0 0 1 -0.25 -0.3
-0.46 -0.35 0 0 0 1 -0.4 -0.35
-0.4025 -0.35 0 0 0 1 -0.35 -0.35
-0.4025 -0.3 0 0 0 1 -0.35 -0.3
-0.575 -0.35 0 0 0 1 -0.5 -0.35
-0.5175 -0.35 0 0 0 1 -0.45 -0.35
-0.5175 -0.3 0 0 0 1 -0.45 -0.3
0.46 -0.25 0 0 0 1 0.4 -0.25
0.5175 -0.25 0 0 0 1 0.45 -0.25
0.575 -0.25 0 0 0 1 0.5 -0.25
0.5175 -0.2 0 0 0 1 0.45 -0.2
0.345 -0.25 0 0 0 1 0.3 -0.25
0.4025 -0.25 0 0 0 1 0.35 -0.25
0.4025 -0.2 0 0 0 1 0.35 -0.2
0.23 -0.25 0 0 0 1 0.2 -0.25
0.2875 -0.25 0 0 0 1 0.25 -0.25
0.2875 -0.2 0 0 0 1 0.25 -0.2
0.115 -0.25 0 0 0 1 0.09999999 -0.25
0.1725 -0.25 0 0 0 1 0.15 -0.25
0.1725 -0.2 0 0 0 1 0.15 -0.2
0 -0.25 0 0 0 1 0 -0.25
0.0575 -0.25 0 0 0 1 0.04999999 -0.25
0.0575 -0.2 0 0 0 1 0.04999999 -0.2
-0.115 -0.25 0 0 0 1 -0.1 -0.25
-0.0575 -0.25 0 0 0 1 -0.05 -0.25
-0.0575 -0.2 0 0 0 1 -0.05 -0.2
-0.23 -0.25 0 0 0 1 -0.2 -0.25
-0.1725 -0.25 0 0 0 1 -0.15 -0.25
-0.1725 -0.2 0 0 0 1 -0.15 -0.2
-0.345 -0.25 0 0 0 1 -0.3 -0.25
-0.2875 -0.25 0 0 0 1 -0.25 -0.25
-0.2875 -0.2 0 0 0 1 -0.25 -0.2
-0.46 -0.25 0 0 0 1 -0.4 -0.25
-0.4025 -0.25 0 0 0 1 -0.35 -0.25
-0.4025 -0.2 0 0 0 1 -0.35 -0.2
-0.575 -0.25 0 0 0 1 -0.5 -0.25
-0.5175 -0.25 0 0 0 1 -0.45 -0.25
-0.5175 -0.2 0 0 0 1 -0.45 -0.2
0.46 -0.15 0 0 0 1 0.4 -0.15
0.5175 -0.15 0 0 0 1 0.45 -0.15
0.575 -0.15 0 0 0 1 0.5 -0.15
0.5175 -0.09999999 0 0 0 1 0.45 -0.09999999
0.345 -0.15 0 0 0 1 0.3 -0.15
0.4025 -0.15 0 0 0 1 0.35 -0.15
0.4025 -0.09999999 0 0 0 1 0.35 -0.09999999
0.23 -0.15 0 0 0 1 0.2 -0.15
0.2875 -0.15 0 0 0 1 0.25 -0.15
0.2875 -0.09999999 0 0 0 1 0.25 -0.09999999
0.115 -0.15 0 0 0 1 0.09999999 -0.15
0.1725 -0.15 0 0 0 1 0.15 -0.15
0.1725 -0.09999999 0 0 0 1 0.15 -0.09999999
0 -0.15 0 0 0 1 0 -0.15
0.0575 -0.15 0 0 0 1 0.04999999 -0.15
0.0575 -0.09999999 0 0 0 1 0.04999999 -0.09999999
-0.115 -0.15 0 0 0 1 -0.1 -0.15
-0.0575 -0.15 0 0 0 1 -0.05 -0.15
-0.0575 -0.09999999 0 0 0 1 -0.05 -0.09999999
-0.23 -0.15 0 0 0 1 -0.2 -0.15
-0.1725 -0.15 0 0 0 1 -0.15 -0.15
-0.1725 -0.09999999 0 0 0 1 -0.15 -0.09999999
-0.345 -0.15 0 0 0 1 -0.3 -0.15
-0.2875 -0.15 0 0 0 1 -0.25 -0.15
-0.2875 -0.09999999 0 0 0 1 -0.25 -0.09999999
-0.46 -0.15 0 0 0 1 -0.4 -0.15
-0.4025 -0.15 0 0 0 1 -0.35 -0.15
-0.4025 -0.09999999 0 0 0 1 -0.35 -0.09999999
-0.575 -0.15 0 0 0 1 -0.5 -0.15
-0.5175 -0.15 0 0 0 1 -0.45 -0.15
-0.5175 -0.09999999 0 0 0 1 -0.45 -0.09999999
0.46 -0.04999999 0 0 0 1 0.4 -0.04999999
0.5175 -0.04999999 0 0 0 1 0.45 -0.04999999
0.575 -0.04999999 0 0 0 1 0.5 -0.04999999
0.5175 0 0 0 0 1 0.45 0
0.345 -0.04999999 0 0 0 1 0.3 -0.04999999
0.4025 -0.04999999 0 0 0 1 0.35 -0.04999999
0.4025 0 0 0 0 1 0.35 0
0.23 -0.04999999 0 0 0 1 0.2 -0.04999999
0.2875 -0.04999999 0 0 0 1 0.25 -0.04999999
0.2875 0 0 0 0 1 0.25 0
0.115 -0.04999999 0 0 0 1 0.09999999 -0.04999999
0.1725 -0.04999999 0 0 0 1 0.15 -0.04999999
0.1725 0 0 0 0 1 0.15 0
0 -0.04999999 0 0 0 1 0 -0.04999999
0.0575 -0.04999999 0 0 0 1 0.04999999 -0.04999999
0.0575 0 0 0 0 1 0.04999999 0
-0.115 -0.04999999 0 0 0 1 -0.1 -0.04999999
-0.0575 -0.04999999 0 0 0 1 -0.05 -0.04999999
-0.0575 0 0 0 0 1 -0.05 0
-0.23 -0.04999999 0 0 0 1 -0.2 -0.04999999
-0.1725 -0.04999999 0 0 0 1 -0.15 -0.04999999
-0.1725 0 0 0 0 1 -0.15 0
-0.345 -0.04999999 0 0 0 1 -0.3 -0.04999999
-0.2875 -0.04999999 0 0 0 1 -0.25 -0.04999999
-0.2875 0 0 0 0 1 -0.25 0
-0.46 -0.04999999 0 0 0 1 -0.4 -0.04999999
-0.4025 -0.04999999 0 0 0 1 -0.35 -0.04999999
-0.4025 0 0 0 0 1 -0.35 0
-0.575 -0.04999999 0 0 0 1 -0.5 -0.04999999
-0.5175 -0.04999999 0 0 0 1 -0.45 -0.04999999
-0.5175 0 0 0 0 1 -0.45 0
0.46 0.05 0 0 0 1 0.4 0.05
0.5175 0.05 0 0 0 1 0.45 0.05
0.575 0.05 0 0 0 1 0.5 0.05
0.5175 0.1 0 0 0 1 0.45 0.1
0.345 0.05 0 0 0 1 0.3 0.05
0.4025 0.05 0 0 0 1 0.35 0.05
0.4025 0.1 0 0 0 1 0.35 0.1
0.23 0.05 0 0 0 1 0.2 0.05
0.2875 0.05 0 0 0 1 0.25 0.05
0.2875 0.1 0 0 0 1 0.25 0.1
0.115 0.05 0 0 0 1 0.09999999 0.05
0.1725 0.05 0 0 0 1 0.15 0.05
0.1725 0.1 0 0 0 1 0.15 0.1
0 0.05 0 0 0 1 0 0.05
0.0575 0.05 0 0 0 1 0.04999999 0.05
0.0575 0.1 0 0 0 1 0.04999999 0.1
-0.115 0.05 0 0 0 1 -0.1 0.05
-0.0575 0.05 0 0 0 1 -0.05 0.05
-0.0575 0.1 0 0 0 1 -0.05 0.1
-0.23 0.05 0 0 0 1 -0.2 0.05
-0.1725 0.05 0 0 0 1 -0.15 0.05
-0.1725 0.1 0 0 0 1 -0.15 0.1
-0.345 0.05 0 0 0 1 -0.3 0.05
-0.2875 0.05 0 0 0 1 -0.25 0.05
-0.2875 0.1 0 0 0 1 -0.25 0.1
-0.46 0.05 0 0 0 1 -0.4 0.05
-0.4025 0.05 0 0 0 1 -0.35 0.05
-0.4025 0.1 0 0 0 1 -0.35 0.1
-0.575 0.05 0 0 0 1 -0.5 0.05
-0.5175 0.05 0 0 0 1 -0.45 0.05
-0.5175 0.1 0 0 0 1 -0.45 0.1
0.46 0.15 0 0 0 1 0.4 0.15
0.5175 0.15 0 0 0 1 0.45 0.15
0.575 0.15 0 0 0 1 0.5 0.15
0.5175 0.2 0 0 0 1 0.45 0.2
0.345 0.15 0 0 0 1 0.3 0.15
0.4025 0.15 0 0 0 1 0.35 0.15
0.4025 0.2 0 0 0 1 0.35 0.2
0.23 0.15 0 0 0 1 0.2 0.15
0.2875 0.15 0 0 0 1 0.25 0.15
0.2875 0.2 0 0 0 1 0.25 0.2
0.115 0.15 0 0 0 1 0.09999999 0.15
0.1725 0.15 0 0 0 1 0.15 0.15
0.1725 0.2 0 0 0 1 0.15 0.2
0 0.15 0 0 0 1 0 0.15
0.0575 0.15 0 0 0 1 0.04999999 0.15
0.0575 0.2 0 0 0 1 0.04999999 0.2
-0.115 0.15 0 0 0 1 -0.1 0.15
-0.0575 0.15 0 0 0 1 -0.05 0.15
-0.0575 0.2 0 0 0 1 -0.05 0.2
-0.23 0.15 0 0 0 1 -0.2 0.15
-0.1725 0.15 0 0 0 1 -0.15 0.15
-0.1725 0.2 0 0 0 1 -0.15 0.2
-0.345 0.15 0 0 0 1 -0.3 0.15
-0.2875 0.15 0 0 0 1 -0.25 0.15
-0.2875 0.2 0 0 0 1 -0.25 0.2
-0.46 0.15 0 0 0 1 -0.4 0.15
-0.4025 0.15 0 0 0 1 -0.35 0.15
-0.4025 0.2 0 0 0 1 -0.35 0.2
-0.575 0.15 0 0 0 1 -0.5 0.15
-0.5175 0.15 0 0 0 1 -0.45 0.15
-0.5175 0.2 0 0 0 1 -0.45 0.2
0.46 0.25 0 0 0 1 0.4 0.25
0.5175 0.25 0 0 0 1 0.45 0.25
0.575 0.25 0 0 0 1 0.5 0.25
0.5175 0.3 0 0 0 1 0.45 0.3
0.345 0.25 0 0 0 1 0.3 0.25
0.4025 0.25 0 0 0 1 0.35 0.25
0.4025 0.3 0 0 0 1 0.35 0.3
0.23 0.25 0 0 0 1 0.2 0.25
0.2875 0.25 0 0 0 1 0.25 0.25
0.2875 0.3 0 0 0 1 0.25 0.3
0.115 0.25 0 0 0 1 0.09999999 0.25
0.1725 0.25 0 0 0 1 0.15 0.25
0.1725 0.3 0 0 0 1 0.15 0.3
0 0.25 0 0 0 1 0 0.25
0.0575 0.25 0 0 0 1 0.04999999 0.25
0.0575 0.3 0 0 0 1 0.04999999 0.3
-0.115 0.25 0 0 0 1 -0.1 0.25
-0.0575 0.25 0 0 0 1 -0.05 0.25
-0.0575 0.3 0 0 0 1 -0.05 0.3
-0.23 0.25 0 0 0 1 -0.2 0.25
-0.1725 0.25 0 0 0 1 -0.15 0.25
-0.1725 0.3 0 0 0 1 -0.15 0.3
-0.345 0.25 0 0 0 1 -0.3 0.25
-0.2875 0.25 0 0 0 1 -0.25 0.25
-0.2875 0.3 0 0 0 1 -0.25 0.3
-0.46 0.25 0 0 0 1 -0.4 0.25
-0.4025 0.25 0 0 0 1 -0.35 0.25
-0.4025 0.3 0 0 0 1 -0.35 0.3
-0.575 0.25 0 0 0 1 -0.5 0.25
-0.5175 0.25 0 0 0 1 -0.45 0.25
-0.5175 0.3 0 0 0 1 -0.45 0.3
0.46 0.35 0 0 0 1 0.4 0.35
0.5175 0.35 0 0 0 1 0.45 0.35
0.575 0.35 0 0 0 1 0.5 0.35
0.5175 0.4 0 0 0 1 0.45 0.4
0.345 0.35 0 0 0 1 0.3 0.35
0.4025 0.35 0 0 0 1 0.35 0.35
0.4025 0.4 0 0 0 1 0.35 0.4
0.23 0.35 0 0 0 1 0.2 0.35
0.2875 0.35 0 0 0 1 0.25 0.35
0.2875 0.4 0 0 0 1 0.25 0.4
0.115 0.35 0 0 0 1 0.09999999 0.35
0.1725 0.35 0 0 0 1 0.15 0.35
0.1725 0.4 0 0 0 1 0.15 0.4
0 0.35 0 0 0 1 0 0.35
0.0575 0.35 0 0 0 1 0.04999999 0.35
0.0575 0.4 0 0 0 1 0.04999999 0.4
-0.115 0.35 0 0 0 1 -0.1 0.35
-0.0575 0.35 0 0 0 1 -0.05 0.35
-0.0575 0.4 0 0 0 1 -0.05 0.4
-0.23 0.35 0 0 0 1 -0.2 0.35
-0.1725 0.35 0 0 0 1 -0.15 0.35
-0.1725 0.4 0 0 0 1 -0.15 0.4
-0.345 0.35 0 0 0 1 -0.3 0.35
-0.2875 0.35 0 0 0 1 -0.25 0.35
-0.2875 0.4 0 0 0 1 -0.25 0.4
-0.46 0.35 0 0 0 1 -0.4 0.35
-0.4025 0.35 0 0 0 1 -0.35 0.35
-0.4025 0.4 0 0 0 1 -0.35 0.4
-0.575 0.35 0 0 0 1 -0.5 0.35
-0.5175 0.35 0 0 0 1 -0.45 0.35
-0.5175 0.4 0 0 0 1 -0.45 0.4
0.46 0.45 0 0 0 1 0.4 0.45
0.5175 0.45 0 0 0 1 0.45 0.45
0.575 0.45 0 0 0 1 0.5 0.45
0.5175 0.5 0 0 0 1 0.45 0.5
0.345 0.45 0 0 0 1 0.3 0.45
0.4025 0.45 0 0 0 1 0.35 0.45
0.4025 0.5 0 0 0 1 0.35 0.5
0.23 0.45 0 0 0 1 0.2 0.45
0.2875 0.45 0 0 0 1 0.25 0.45
0.2875 0.5 0 0 0 1 0.25 0.5
0.115 0.45 0 0 0 1 0.09999999 0.45
0.1725 0.45 0 0 0 1 0.15 0.45
0.1725 0.5 0 0 0 1 0.15 0.5
0 0.45 0 0 0 1 0 0.45
0.0575 0.45 0 0 0 1 0.04999999 0.45
0.0575 0.5 0 0 0 1 0.04999999 0.5
-0.115 0.45 0 0 0 1 -0.1 0.45
-0.0575 0.45 0 0 0 1 -0.05 0.45
-0.0575 0.5 0 0 0 1 -0.05 0.5
-0.23 0.45 0 0 0 1 -0.2 0.45
-0.1725 0.45 0 0 0 1 -0.15 0.45
-0.1725 0.5 0 0 0 1 -0.15 0.5
-0.345 0.45 0 0 0 1 -0.3 0.45
-0.2875 0.45 0 0 0 1 -0.25 0.45
-0.2875 0.5 0 0 0 1 -0.25 0.5
-0.46 0.45 0 0 0 1 -0.4 0.45
-0.4025 0.45 0 0 0 1 -0.35 0.45
-0.4025 0.5 0 0 0 1 -0.35 0.5
-0.575 0.45 0 0 0 1 -0.5 0.45
-0.5175 0.45 0 0 0 1 -0.45 0.45
-0.5175 0.5 0 0 0 1 -0.45 0.5
3 121 122 123 
3 124 125 123 
3 126 127 128 
3 121 129 128 
3 130 131 132 
3 126 133 132 
3 134 135 136 
3 130 137 136 
3 138 139 140 
3 134 141 140 
3 142 143 144 
3 138 145 144 
3 146 147 148 
3 142 149 148 
3 150 151 152 
3 146 153 152 
3 154 155 156 
3 150 157 156 
3 158 159 160 
3 154 161 160 
3 162 125 163 
3 164 165 163 
3 166 129 167 
3 162 168 167 
3 169 133 170 
3 166 171 170 
3 172 137 173 
3 169 174 173 
3 175 141 176 
3 172 177 176 
3 178 145 179 
3 175 180 179 
3 181 149 182 
3 178 183 182 
3 184 153 185 
3 181 186 185 
3 187 157 188 
3 184 189 188 
3 190 161 191 
3 187 192 191 
3 193 165 194 
3 195 196 194 
3 197 168 198 
3 193 199 198 
3 200 171 201 
3 197 202 201 
3 203 174 204 
3 200 205 204 
3 206 177 207 
3 203 208 207 
3 209 180 210 
3 206 211 210 
3 212 183 213 
3 209 214 213 
3 215 186 216 
3 212 217 216 
3 218 189 219 
3 215 220 219 
3 221 192 222 
3 218 223 222 
3 224 196 225 
3 226 227 225 
3 228 199 229 
3 224 230 229 
3 231 202 232 
3 228 233 232 
3 234 205 235 
3 231 236 235 
3 237 208 238 
3 234 239 238 
3 240 211 241 
3 237 242 241 
3 243 214 244 
3 240 245 244 
3 246 217 247 
3 243 248 247 
3 249 220 250 
3 246 251 250 
3 252 223 253 
3 249 254 253 
3 255 227 256 
3 257 258 256 
3 259 230 260 
3 255 261 260 
3 262 233 263 
3 259 264 263 
3 265 236 266 
3 262 267 266 
3 268 239 269 
3 265 270 269 
3 271 242 272 
3 268 273 272 
3 274 245 275 
3 271 276 275 
3 277 248 278 
3 274 279 278 
3 280 251 281 
3 277 282 281 
3 283 254 284 
3 280 285 284 
3 286 258 287 
3 288 289 287 
3 290 261 291 
3 286 292 291 
3 293 264 294 
3 290 295 294 
3 296 267 297 
3 293 298 297 
3 299 270 300 
3 296 301 300 
3 302 273 303 
3 299 304 303 
3 305 276 306 
3 302 307 306 
3 308 279 309 
3 305 310 309 
3 311 282 312 
3 308 313 312 
3 314 285 315 
3 311 316 315 
3 317 289 318 
3 319 320 318 
3 321 292 322 
3 317 323 322 
3 324 295 325 
3 321 326 325 
3 327 298 328 
3 324 329 328 
3 330 301 331 
3 327 332 331 
3 333 304 334 
3 330 335 334 
3 336 307 337 
3 333 338 337 
3 339 310 340 
3 336 341 340 
3 342 313 343 
3 339 344 343 
3 345 316 346 
3 342 347 346 
3 348 320 349 
3 350 351 349 
3 352 323 353 
3 348 354 353 
3 355 326 356 
3 352 357 356 
3 358 329 359 
3 355 360 359 
3 361 332 362 
3 358 363 362 
3 364 335 365 
3 361 366 365 
3 367 338 368 
3 364 369 368 
3 370 341 371 
3 367 372 371 
3 373 344 374 
3 370 375 374 
3 376 347 377 
3 373 378 377 
3 379 351 380 
3 381 382 380 
3 383 354 384 
3 379 385 384 
3 386 357 387 
3 383 388 387 
3 389 360 390 
3 386 391 390 
3 392 363 393 
3 389 394 393 
3 395 366 396 
3 392 397 396 
3 398 369 399 
3 395 400 399 
3 401 372 402 
3 398 403 402 
3 404 375 405 
3 401 406 405 
3 407 378 408 
3 404 409 408 
3 410 382 411 
3 412 413 411 
3 414 385 415 
3 410 416 415 
3 417 388 418 
3 414 419 418 
3 420 391 421 
3 417 422 421 
3 423 394 424 
3 420 425 424 
3 426 397 427 
3 423 428 427 
3 429 400 430 
3 426 431 430 
3 432 403 433 
3 429 434 433 
3 435 406 436 
3 432 437 436 
3 438 409 439 
3 435 440 439 
3 12 121 123 
3 121 1 122 
3 123 122 0 
3 0 124 123 
3 124 11 125 
3 123 125 12 
3 13 126 128 
3 126 2 127 
3 128 127 1 
3 1 121 128 
3 121 12 129 
3 128 129 13 
3 14 130 132 
3 130 3 131 
3 132 131 2 
3 2 126 132 
3 126 13 133 
3 132 133 14 
3 15 134 136 
3 134 4 135 
3 136 135 3 
3 3 130 136 
3 130 14 137 
3 136 137 15 
3 16 138 140 
3 138 5 139 
3 140 139 4 
3 4 134 140 
3 134 15 141 
3 140 141 16 
3 17 142 144 
3 142 6 143 
3 144 143 5 
3 5 138 144 
3 138 16 145 
3 144 145 17 
3 18 146 148 
3 146 7 147 
3 148 147 6 
3 6 142 148 
3 142 17 149 
3 148 149 18 
3 19 150 152 
3 150 8 151 
3 152 151 7 
3 7 146 152 
3 146 18 153 
3 152 153 19 
3 20 154 156 
3 154 9 155 
3 156 155 8 
3 8 150 156 
3 150 19 157 
3 156 157 20 
3 21 158 160 
3 158 10 159 
3 160 159 9 
3 9 154 160 
3 154 20 161 
3 160 161 21 
3 23 162 163 
3 162 12 125 
3 163 125 11 
3 11 164 163 
3 164 22 165 
3 163 165 23 
3 24 166 167 
3 166 13 129 
3 167 129 12 
3 12 162 167 
3 162 23 168 
3 167 168 24 
3 25 169 170 
3 169 14 133 
3 170 133 13 
3 13 166 170 
3 166 24 171 
3 170 171 25 
3 26 172 173 
3 172 15 137 
3 173 137 14 
3 14 169 173 
3 169 25 174 
3 173 174 26 
3 27 175 176 
3 175 16 141 
3 176 141 15 
3 15 172 176 
3 172 26 177 
3 176 177 27 
3 28 178 179 
3 178 17 145 
3 179 145 16 
3 16 175 179 
3 175 27 180 
3 179 180 28 
3 29 181 182 
3 181 18 149 
3 182 149 17 
3 17 178 182 
3 178 28 183 
3 182 183 29 
3 30 184 185 
3 184 19 153 
3 185 153 18 
3 18 181 185 
3 181 29 186 
3 185 186 30 
3 31 187 188 
3 187 20 157 
3 188 157 19 
3 19 184 188 
3 184 30 189 
3 188 189 31 
3 32 190 191 
3 190 21 161 
3 191 161 20 
3 20 187 191 
3 187 31 192 
3 191 192 32 
3 34 193 194 
3 193 23 165 
3 194 165 22 
3 22 195 194 
3 195 33 196 
3 194 196 34 
3 35 197 198 
3 197 24 168 
3 198 168 23 
3 23 193 198 
3 193 34 199 
3 198 199 35 
3 36 200 201 
3 200 25 171 
3 201 171 24 
3 24 197 201 
3 197 35 202 
3 201 202 36 
3 37 203 204 
3 203 26 174 
3 204 174 25 
3 25 200 204 
3 200 36 205 
3 204 205 37 
3 38 206 207 
3 206 27 177 
3 207 177 26 
3 26 203 207 
3 203 37 208 
3 207 208 38 
3 39 209 210 
3 209 28 180 
3 210 180 27 
3 27 206 210 
3 206 38 211 
3 210 211 39 
3 40 212 213 
3 212 29 183 
3 213 183 28 
3 28 209 213 
3 209 39 214 
3 213 214 40 
3 41 215 216 
3 215 30 186 
3 216 186 29 
3 29 212 216 
3 212 40 217 
3 216 217 41 
3 42 218 219 
3 218 31 189 
3 219 189 30 
3 30 215 219 
3 215 41 220 
3 219 220 42 
3 43 221 222 
3 221 32 192 
3 222 192 31 
3 31 218 222 
3 218 42 223 
3 222 223 43 
3 45 224 225 
3 224 34 196 
3 225 196 33 
3 33 226 225 
3 226 44 227 
3 225 227 45 
3 46 228 229 
3 228 35 199 
3 229 199 34 
3 34 224 229 
3 224 45 230 
3 229 230 46 
3 47 231 232 
3 231 36 202 
3 232 202 35 
3 35 228 232 
3 228 46 233 
3 232 233 47 
3 48 234 235 
3 234 37 205 
3 235 205 36 
3 36 231 235 
3 231 47 236 
3 235 236 48 
3 49 237 238 
3 237 38 208 
3 238 208 37 
3 37 234 238 
3 234 48 239 
3 238 239 49 
3 50 240 241 
3 240 39 211 
3 241 211 38 
3 38 237 241 
3 237 49 242 
3 241 242 50 
3 51 243 244 
3 243 40 214 
3 244 214 39 
3 39 240 244 
3 240 50 245 
3 244 245 51 
3 52 246 247 
3 246 41 217 
3 247 217 40 
3 40 243 247 
3 243 51 248 
3 247 248 52 
3 53 249 250 
3 249 42 220 
3 250 220 41 
3 41 246 250 
3 246 52 251 
3 250 251 53 
3 54 252 253 
3 252 43 223 
3 253 223 42 
3 42 249 253 
3 249 53 254 
3 253 254 54 
3 56 255 256 
3 255 45 227 
3 256 227 44 
3 44 257 256 
3 257 55 258 
3 256 258 56 
3 57 259 260 
3 259 46 230 
3 260 230 45 
3 45 255 260 
3 255 56 261 
3 260 261 57 
3 58 262 263 
3 262 47 233 
3 263 233 46 
3 46 259 263 
3 259 57 264 
3 263 264 58 
3 59 265 266 
3 265 48 236 
3 266 236 47 
3 47 262 266 
3 262 58 267 
3 266 267 59 
3 60 268 269 
3 268 49 239 
3 269 239 48 
3 48 265 269 
3 265 59 270 
3 269 270 60 
3 61 271 272 
3 271 50 242 
3 272 242 49 
3 49 268 272 
3 268 60 273 
3 272 273 61 
3 62 274 275 
3 274 51 245 
3 275 245 50 
3 50 271 275 
3 271 61 276 
3 275 276 62 
3 63 277 278 
3 277 52 248 
3 278 248 51 
3 51 274 278 
3 274 62 279 
3 278 279 63 
3 64 280 281 
3 280 53 251 
3 281 251 52 
3 52 277 281 
3 277 63 282 
3 281 282 64 
3 65 283 284 
3 283 54 254 
3 284 254 53 
3 53 280 284 
3 280 64 285 
3 284 285 65 
3 67 286 287 
3 286 56 258 
3 287 258 55 
3 55 288 287 
3 288 66 289 
3 287 289 67 
3 68 290 291 
3 290 57 261 
3 291 261 56 
3 56 286 291 
3 286 67 292 
3 291 292 68 
3 69 293 294 
3 293 58 264 
3 294 264 57 
3 57 290 294 
3 290 68 295 
3 294 295 69 
3 70 296 297 
3 296 59 267 
3 297 267 58 
3 58 293 297 
3 293 69 298 
3 297 298 70 
3 71 299 300 
3 299 60 270 
3 300 270 59 
3 59 296 300 
3 296 70 301 
3 300 301 71 
3 72 302 303 
3 302 61 273 
3 303 273 60 
3 60 299 303 
3 299 71 304 
3 303 304 72 
3 73 305 306 
3 305 62 276 
3 306 276 61 
3 61 302 306 
3 302 72 307 
3 306 307 73 
3 74 308 309 
3 308 63 279 
3 309 279 62 
3 62 305 309 
3 305 73 310 
3 309 310 74 
3 75 311 312 
3 311 64 282 
3 312 282 63 
3 63 308 312 
3 308 74 313 
3 312 313 75 
3 76 314 315 
3 314 65 285 
3 315 285 64 
3 64 311 315 
3 311 75 316 
3 315 316 76 
3 78 317 318 
3 317 67 289 
3 318 289 66 
3 66 319 318 
3 319 77 320 
3 318 320 78 
3 79 321 322 
3 321 68 292 
3 322 292 67 
3 67 317 322 
3 317 78 323 
3 322 323 79 
3 80 324 325 
3 324 69 295 
3 325 295 68 
3 68 321 325 
3 321 79 326 
3 325 326 80 
3 81 327 328 
3 327 70 298 
3 328 298 69 
3 69 324 328 
3 324 80 329 
3 328 329 81 
3 82 330 331 
3 330 71 301 
3 331 301 70 
3 70 327 331 
3 327 81 332 
3 331 332 82 
3 83 333 334 
3 333 72 304 
3 334 304 71 
3 71 330 334 
3 330 82 335 
3 334 335 83 
3 84 336 337 
3 336 73 307 
3 337 307 72 
3 72 333 337 
3 333 83 338 
3 337 338 84 
3 85 339 340 
3 339 74 310 
3 340 310 73 
3 73 336 340 
3 336 84 341 
3 340 341 85 
3 86 342 343 
3 342 75 313 
3 343 313 74 
3 74 339 343 
3 339 85 344 
3 343 344 86 
3 87 345 346 
3 345 76 316 
3 346 316 75 
3 75 342 346 
3 342 86 347 
3 346 347 87 
3 89 348 349 
3 348 78 320 
3 349 320 77 
3 77 350 349 
3 350 88 351 
3 349 351 89 
3 90 352 353 
3 352 79 323 
3 353 323 78 
3 78 348 353 
3 348 89 354 
3 353 354 90 
3 91 355 356 
3 355 80 326 
3 356 326 79 
3 79 352 356 
3 352 90 357 
3 356 357 91 
3 92 358 359 
3 358 81 329 
3 359 329 80 
3 80 355 359 
3 355 91 360 
3 359 360 92 
3 93 361 362 
3 361 82 332 
3 362 332 81 
3 81 358 362 
3 358 92 363 
3 362 363 93 
3 94 364 365 
3 364 83 335 
3 365 335 82 
3 82 361 365 
3 361 93 366 
3 365 366 94 
3 95 367 368 
3 367 84 338 
3 368 338 83 
3 83 364 368 
3 364 94 369 
3 368 369 95 
3 96 370 371 
3 370 85 341 
3 371 341 84 
3 84 367 371 
3 367 95 372 
3 371 372 96 
3 97 373 374 
3 373 86 344 
3 374 344 85 
3 85 370 374 
3 370 96 375 
3 374 375 97 
3 98 376 377 
3 376 87 347 
3 377 347 86 
3 86 373 377 
3 373 97 378 
3 377 378 98 
3 100 379 380 
3 379 89 351 
3 380 351 88 
3 88 381 380 
3 381 99 382 
3 380 382 100 
3 101 383 384 
3 383 90 354 
3 384 354 89 
3 89 379 384 
3 379 100 385 
3 384 385 101 
3 102 386 387 
3 386 91 357 
3 387 357 90 
3 90 383 387 
3 383 101 388 
3 387 388 102 
3 103 389 390 
3 389 92 360 
3 390 360 91 
3 91 386 390 
3 386 102 391 
3 390 391 103 
3 104 392 393 
3 392 93 363 
3 393 363 92 
3 92 389 393 
3 389 103 394 
3 393 394 104 
3 105 395 396 
3 395 94 366 
3 396 366 93 
3 93 392 396 
3 392 104 397 
3 396 397 105 
3 106 398 399 
3 398 95 369 
3 399 369 94 
3 94 395 399 
3 395 105 400 
3 399 400 106 
3 107 401 402 
3 401 96 372 
3 402 372 95 
3 95 398 402 
3 398 106 403 
3 402 403 107 
3 108 404 405 
3 404 97 375 
3 405 375 96 
3 96 401 405 
3 401 107 406 
3 405 406 108 
3 109 407 408 
3 407 98 378 
3 408 378 97 
3 97 404 408 
3 404 108 409 
3 408 409 109 
3 111 410 411 
3 410 100 382 
3 411 382 99 
3 99 412 411 
3 412 110 413 
3 411 413 111 
3 112 414 415 
3 414 101 385 
3 415 385 100 
3 100 410 415 
3 410 111 416 
3 415 416 112 
3 113 417 418 
3 417 102 388 
3 418 388 101 
3 101 414 418 
3 414 112 419 
3 418 419 113 
3 114 420 421 
3 420 103 391 
3 421 391 102 
3 102 417 421 
3 417 113 422 
3 421 422 114 
3 115 423 424 
3 423 104 394 
3 424 394 103 
3 103 420 424 
3 420 114 425 
3 424 425 115 
3 116 426 427 
3 426 105 397 
3 427 397 104 
3 104 423 427 
3 423 115 428 
3 427 428 116 
3 117 429 430 
3 429 106 400 
3 430 400 105 
3 105 426 430 
3 426 116 431 
3 430 431 117 
3 118 432 433 
3 432 107 403 
3 433 403 106 
3 106 429 433 
3 429 117 434 
3 433 434 118 
3 119 435 436 
3 435 108 406 
3 436 406 107 
3 107 432 436 
3 432 118 437 
3 436 437 119 
3 120 438 439 
3 438 109 409 
3 439 409 108 
3 108 435 439 
3 435 119 440 
3 439 440 120 
